<svg width="158" height="160" viewBox="0 0 158 160" fill="none" xmlns="http://www.w3.org/2000/svg">
<path d="M125.565 103.446L122.155 108.485C121.912 108.842 122.112 109.329 122.539 109.424L129.757 110.978C129.757 110.978 127.874 104.837 127.772 104.916C127.671 104.995 125.565 103.446 125.565 103.446Z" fill="#DD8126"/>
<path d="M143.673 108.276C140.219 106.285 128.927 99.9599 124.653 97.5708C124.088 97.2533 123.431 97.8081 123.659 98.4084L125.566 103.446L122.166 108.471C122.028 108.674 122.033 108.916 122.134 109.106C122.216 109.26 126.106 106.567 126.106 106.567C126.106 106.567 126.297 113.271 126.39 116.448C126.412 117.231 127.256 117.723 127.957 117.364C131.557 115.538 140.563 110.974 143.639 109.415C144.105 109.182 144.124 108.536 143.673 108.276Z" fill="#F99013"/>
<path d="M122.133 109.106C122.216 109.26 126.106 106.567 126.106 106.567L138.263 108.39C138.347 108.403 138.374 108.287 138.298 108.256L125.566 103.439L122.167 108.465C122.034 108.675 122.033 108.916 122.133 109.106Z" fill="#D37816"/>
<path d="M6.09695 57.4165C25.3431 73.879 60.2965 85.149 83.5304 69.0367C92.9064 62.5311 98.9027 52.0795 97.5903 40.3135C95.9326 25.4415 80.5463 24.4871 73.407 37.0996C61.6771 57.8234 71.8908 89.4372 88.192 103.789C97.6128 112.084 110.518 115.265 122.071 108.999" stroke="white" stroke-width="2" stroke-miterlimit="10" stroke-dasharray="5 5"/>
</svg>
