<svg width="236" height="143" viewBox="0 0 236 143" fill="none" xmlns="http://www.w3.org/2000/svg">
<path d="M46.7134 46.3182C46.4399 46.3182 46.1621 46.2729 45.8901 46.1781L41.3289 44.5915C40.6094 44.3405 40.0522 43.7858 39.7992 43.0677C39.5477 42.3496 39.6354 41.5688 40.0405 40.9251L65.0592 1.16373C65.6003 0.30405 66.5976 -0.138201 67.5994 0.0384061L69.7725 0.42081C70.5739 0.562388 71.2349 1.06302 71.5859 1.79572C71.9369 2.52842 71.9134 3.35599 71.52 4.0668L48.888 45.0323C48.4405 45.8453 47.5982 46.3182 46.7134 46.3182ZM67.1621 0.114306C66.3549 0.114306 65.5988 0.52298 65.1572 1.22357L40.1385 40.985C39.7524 41.5994 39.669 42.3438 39.9089 43.0283C40.1487 43.7129 40.681 44.2427 41.3669 44.4806L45.9281 46.0671C47.0249 46.4481 48.227 45.9898 48.7871 44.9739L71.4191 4.00842C71.7935 3.33118 71.8169 2.54155 71.482 1.84388C71.1471 1.14621 70.5183 0.667479 69.7535 0.5332L67.5804 0.150795C67.44 0.127442 67.301 0.114306 67.1621 0.114306Z" fill="#131F2D"/>
<path d="M41.0656 24.3568C40.9574 24.3568 40.8492 24.3553 40.741 24.3524C37.7592 24.2794 35.0421 23.1731 33.0912 21.2362C31.1126 19.2731 30.0626 16.5802 30.1343 13.6567C30.2045 10.7785 31.5967 7.98487 34.0506 5.79114C36.3831 3.70689 39.4351 2.40933 42.4227 2.23273L42.4256 2.29111L42.4227 2.23273C45.4352 2.0532 48.0924 2.98586 50.1061 4.92708C52.4196 7.1573 53.7474 10.6354 53.6597 14.2318C53.5895 17.0706 52.0876 19.7022 49.4305 21.6391C47.0526 23.3745 44.0211 24.3568 41.0656 24.3568ZM43.1451 2.3276C42.9097 2.3276 42.6713 2.3349 42.43 2.34949C39.4672 2.52464 36.4416 3.81198 34.1281 5.87872C31.6976 8.05055 30.32 10.815 30.2498 13.6596C30.1782 16.551 31.2165 19.2133 33.1731 21.1531C35.1035 23.068 37.7913 24.1627 40.7439 24.2356C43.7769 24.3115 46.9166 23.3293 49.3632 21.5457C51.9911 19.6307 53.4754 17.0312 53.5441 14.2289C53.6319 10.6646 52.3172 7.21713 50.0271 5.01028C48.1977 3.24858 45.8301 2.3276 43.1451 2.3276ZM41.2148 18.2003C41.1826 18.2003 41.1504 18.2003 41.1183 18.1989C39.9601 18.1712 39.0051 17.5085 38.3573 16.2839C37.8177 15.2637 37.5267 13.9005 37.5603 12.5475C37.5895 11.3462 38.0853 10.345 38.9949 9.65169C39.8358 9.00948 40.9998 8.67524 42.2706 8.70443C44.7976 8.76573 46.8026 10.869 46.7411 13.3896C46.7119 14.569 46.0231 15.8008 44.8532 16.7671C43.7593 17.6691 42.4081 18.2003 41.2148 18.2003ZM42.0878 8.81828C39.106 8.81828 37.7226 10.6763 37.6773 12.5504C37.6451 13.8859 37.9303 15.2272 38.4611 16.2299C38.8984 17.0561 39.7144 18.0486 41.1212 18.0836C42.3116 18.1113 43.6774 17.5873 44.7786 16.678C45.9237 15.7322 46.5964 14.5325 46.6256 13.3867C46.6856 10.9288 44.7318 8.87958 42.2692 8.81974C42.2063 8.81828 42.1463 8.81828 42.0878 8.81828Z" fill="#131F2D"/>
<path d="M69.4417 45.687C69.3335 45.687 69.2252 45.6856 69.117 45.6826C66.1352 45.6097 63.4181 44.5033 61.4672 42.5665C59.4886 40.6034 58.4386 37.9105 58.5103 34.987C58.5805 32.1087 59.9727 29.3151 62.4266 27.1214C64.7591 25.0372 67.8111 23.7396 70.7988 23.563L70.8017 23.6214L70.7988 23.563C73.8113 23.3849 76.4685 24.3161 78.4822 26.2573C80.7957 28.4876 82.1236 31.9657 82.0358 35.5621C81.9656 38.4009 80.4637 41.0325 77.8065 42.9693C75.4287 44.7062 72.3972 45.687 69.4417 45.687ZM71.5226 23.6593C71.2872 23.6593 71.0488 23.6666 70.8075 23.6812C67.8447 23.8564 64.819 25.1437 62.5055 27.2104C60.075 29.3823 58.6975 32.1467 58.6273 34.9914C58.5556 37.8828 59.5939 40.545 61.5506 42.4848C63.4809 44.3997 66.1688 45.4944 69.1214 45.5673C72.1529 45.6432 75.2942 44.661 77.7407 42.8774C80.3687 40.9624 81.853 38.3629 81.9217 35.5606C82.0095 31.9963 80.6948 28.5489 78.4047 26.342C76.5738 24.5789 74.2061 23.6593 71.5226 23.6593ZM69.5908 39.5306C69.5587 39.5306 69.5265 39.5306 69.4943 39.5291C68.3361 39.5014 67.3812 38.8388 66.7333 37.6142C66.1937 36.594 65.9027 35.2307 65.9363 33.8777C65.9655 32.6765 66.4613 31.6752 67.3709 30.9819C68.2133 30.3397 69.3773 30.0055 70.6467 30.0347C73.1737 30.096 75.1786 32.1992 75.1172 34.7199C75.088 35.8992 74.3992 37.1311 73.2293 38.0973C72.1354 38.9993 70.7841 39.5306 69.5908 39.5306ZM70.4844 30.1485C69.3027 30.1485 68.2264 30.474 67.4411 31.0739C66.5622 31.7453 66.0811 32.7144 66.0533 33.8806C66.0211 35.2161 66.3063 36.5575 66.8371 37.5602C67.2744 38.3863 68.0904 39.3788 69.4972 39.4138C69.5338 39.4153 69.5718 39.4153 69.6084 39.4153C72.4147 39.4153 74.949 36.8187 75.0002 34.717C75.0602 32.2591 73.1064 30.2098 70.6437 30.15C70.5911 30.1485 70.537 30.1485 70.4844 30.1485Z" fill="#131F2D"/>
<path d="M48.3896 46.1241L43.8283 44.5375C42.3542 44.0238 41.74 42.2767 42.5707 40.9558L67.5894 1.1944C68.1158 0.358076 69.0971 -0.0768735 70.0711 0.0953547L72.2442 0.477759C73.885 0.766752 74.7551 2.58099 73.9508 4.03909L51.3187 45.0046C50.7455 46.0409 49.5083 46.5138 48.3896 46.1241Z" fill="#657285"/>
<path d="M44.9078 2.29072C38.8389 2.64978 32.8226 7.59185 32.6734 13.6578C32.5243 19.7237 37.1454 24.1447 43.2231 24.2936C49.3051 24.4425 55.9341 20.2973 56.0833 14.2314C56.2325 8.16545 52.3323 1.8514 44.9078 2.29072ZM43.5989 18.1416C41.0997 18.0803 40.0365 15.0414 40.098 12.5485C40.1594 10.0541 42.2491 8.70111 44.7483 8.76242C47.2476 8.82372 49.2232 10.8948 49.1618 13.3892C49.1004 15.8822 46.0981 18.2014 43.5989 18.1416Z" fill="#657285"/>
<path d="M73.2838 23.6244C67.2149 23.9834 61.1986 28.9255 61.0494 34.9914C60.9002 41.0573 65.5214 45.4783 71.5991 45.6272C77.6812 45.7761 84.3103 41.631 84.4594 35.565C84.6086 29.4976 80.7098 23.1836 73.2838 23.6244ZM71.9764 39.4737C69.4772 39.4124 68.414 36.3736 68.4754 33.8807C68.5369 31.3863 70.6266 30.0333 73.1259 30.0946C75.6251 30.1559 77.6008 32.227 77.5394 34.7214C77.478 37.2143 74.4742 39.535 71.9764 39.4737Z" fill="#657285"/>
<path d="M112.895 142.331C174.894 142.331 225.154 135.158 225.154 126.31C225.154 117.461 174.894 110.288 112.895 110.288C50.8958 110.288 0.635742 117.461 0.635742 126.31C0.635742 135.158 50.8958 142.331 112.895 142.331Z" fill="#EAEAEA"/>
<g opacity="0.6">
<path opacity="0.6" d="M160.878 101.799C156.381 102.174 152.735 98.3091 153.471 93.9494C157.058 72.6909 167.927 19.4972 186.437 22.5287C208.733 26.1805 169.177 73.5783 164.165 98.8973C163.854 100.475 162.514 101.663 160.878 101.799Z" fill="#EAEAEA"/>
</g>
<path d="M152.669 97.0873C152.669 97.0873 196.615 23.7721 220.303 36.6731C243.992 49.5742 177.648 79.1507 165.675 100.907L152.669 97.0873Z" fill="#EAEAEA"/>
<path d="M159.927 99.2882C167.919 84.1131 181.808 70.4881 192.05 61.7293C203.156 52.2334 212.481 46.258 212.575 46.1996L212.2 45.6245C212.107 45.6844 202.74 51.6846 191.598 61.2112C181.31 70.0094 167.358 83.7015 159.314 98.9715L159.927 99.2882Z" fill="white"/>
<path d="M224.724 88.8124C216.827 92.8729 221.684 105.081 211.479 105.324C202.847 105.526 201.962 104.97 199.798 108.032C199.056 109.081 198.486 110.24 198.069 111.453C197.57 112.907 196.452 115.153 194.112 116.242C179.823 122.895 153.255 106.441 165.578 90.1071C166.467 88.9277 168.02 88.1469 169.764 87.3733C179.228 83.1815 183.543 86.8464 188.154 73.2097C192.766 59.5701 207.886 73.2681 214.354 70.8992C220.822 68.5304 226.121 64.988 233.2 70.5533C240.281 76.123 232.624 84.7563 224.724 88.8124Z" fill="#D5D6DA"/>
<g opacity="0.5">
<g opacity="0.5">
<g opacity="0.5">
<path opacity="0.5" d="M174.76 104.813L174.316 104.433C174.485 104.24 191.688 84.9407 234.933 72.2075L235.099 72.7636C192.019 85.4501 174.928 104.62 174.76 104.813Z" fill="white"/>
</g>
</g>
<g opacity="0.5">
<g opacity="0.5">
<path opacity="0.5" d="M197.259 80.8672C190.111 77.2957 187.983 73.5053 187.896 73.3462L188.411 73.0703C188.432 73.1083 190.558 76.8695 197.523 80.3491L197.259 80.8672Z" fill="white"/>
</g>
</g>
<g opacity="0.5">
<g opacity="0.5">
<path opacity="0.5" d="M199.913 86.6368C197.526 84.2562 196.562 80.1563 197.127 74.7837C197.549 70.7596 198.689 67.3866 198.699 67.353L199.253 67.5384C199.208 67.6698 194.838 80.7518 200.328 86.2281L199.913 86.6368Z" fill="white"/>
</g>
</g>
<g opacity="0.5">
<g opacity="0.5">
<path opacity="0.5" d="M211.098 82.5769C210.259 82.1944 209.79 81.9259 209.768 81.9127L210.064 81.4136C210.162 81.4705 220.077 87.1176 231.474 83.6788L231.645 84.2335C222.461 87.0038 214.225 84.0014 211.098 82.5769Z" fill="white"/>
</g>
</g>
<g opacity="0.5">
<g opacity="0.5">
<path opacity="0.5" d="M220.302 93.9927C216.882 91.8005 215.338 89.1076 214.644 87.232C213.889 85.1916 213.947 83.6839 213.95 83.6211L214.535 83.6474C214.532 83.7057 214.36 89.4929 220.62 93.5052L220.302 93.9927Z" fill="white"/>
</g>
</g>
</g>
<g opacity="0.6">
<path opacity="0.6" d="M162.375 34.784C162.318 32.618 162.994 31.951 163.848 31.9232C164.702 31.8955 165.411 32.5173 165.468 34.6833C165.572 38.6284 164.075 40.5857 164.075 40.5857C164.075 40.5857 162.481 38.7875 162.375 34.784Z" fill="#EAEAEA"/>
</g>
<g opacity="0.6">
<path opacity="0.6" d="M205.625 29.7273C207.516 28.3845 208.506 28.5786 209.031 29.3113C209.556 30.044 209.42 31.038 207.529 32.3823C204.084 34.83 201.466 34.684 201.466 34.684C201.466 34.684 202.128 32.21 205.625 29.7273Z" fill="#EAEAEA"/>
</g>
<g opacity="0.6">
<path opacity="0.6" d="M197.711 26.527C198.043 24.3844 198.827 23.8473 199.672 23.9713C200.518 24.0954 201.102 24.8339 200.771 26.9766C200.165 30.8809 198.343 32.5419 198.343 32.5419C198.343 32.5419 197.097 30.4883 197.711 26.527Z" fill="#EAEAEA"/>
</g>
<path d="M37.5714 32.3515C36.6501 34.0169 35.8414 34.2227 35.1834 33.8651C34.5253 33.5075 34.2636 32.7222 35.1848 31.0569C36.8636 28.0239 38.867 27.2051 38.867 27.2051C38.867 27.2051 39.2736 29.2733 37.5714 32.3515Z" fill="#EAEAEA"/>
<path d="M59.8063 70.8338L59.4802 70.9915C59.4553 70.9418 56.9678 65.9385 51.1314 59.9061C45.7454 54.3408 36.3247 46.7379 22.0312 42.1184L22.1439 41.7769C36.5162 46.4212 45.9896 54.0707 51.4048 59.6696C57.2749 65.74 59.7814 70.7842 59.8063 70.8338Z" fill="#EAEAEA"/>
<path d="M37.8333 49.0014L37.4706 48.9897C37.8772 35.9441 27.2894 26.6642 27.1826 26.5723L27.421 26.3008C27.5277 26.3942 38.2457 35.7821 37.8333 49.0014Z" fill="#EAEAEA"/>
<path d="M30.122 46.7733C26.9588 48.6459 23.6201 48.4926 23.582 48.4912L23.601 48.1321C23.6435 48.135 27.9181 48.3262 31.2933 45.5078L31.5273 45.7822C31.0711 46.1632 30.5987 46.4916 30.122 46.7733Z" fill="#EAEAEA"/>
<path d="M20.7835 40.5203C23.3193 41.0166 23.9554 41.7566 23.8106 42.4864C23.6659 43.2162 22.7928 43.6613 20.2556 43.1636C15.6359 42.2587 13.666 40.4999 13.666 40.4999C13.666 40.4999 16.095 39.6023 20.7835 40.5203Z" fill="#EAEAEA"/>
<path d="M23.8162 46.9988C26.3856 46.7156 27.2177 47.2309 27.3011 47.9694C27.3845 48.7094 26.6869 49.3925 24.1175 49.6771C19.4364 50.1938 17.0234 49.105 17.0234 49.105C17.0234 49.105 19.0664 47.5242 23.8162 46.9988Z" fill="#EAEAEA"/>
<path d="M30.3414 39.9729C31.6751 41.3376 31.6327 42.1638 31.0931 42.6804C30.5534 43.1986 29.7184 43.2117 28.3862 41.847C25.9586 39.3614 25.7627 37.2217 25.7627 37.2217C25.7627 37.2217 27.8788 37.4508 30.3414 39.9729Z" fill="#EAEAEA"/>
<path d="M27.3237 24.6642C29.1312 26.4959 29.2322 27.4622 28.6955 27.9818C28.1573 28.5014 27.1848 28.3788 25.3773 26.547C22.0854 23.2105 21.4668 20.6562 21.4668 20.6562C21.4668 20.6562 23.9836 21.2795 27.3237 24.6642Z" fill="#EAEAEA"/>
<path d="M71.6773 96.506C71.6773 96.506 46.7538 46.408 33.2822 53.6167C19.8121 60.8255 57.4936 83.5217 64.282 98.3334L71.6773 96.506Z" fill="#D5D6DA"/>
<path d="M58.8701 88.856C58.8701 88.856 23.9804 45.0925 9.76007 55.451C-4.46023 65.8095 41.1152 79.3528 50.7758 92.429L58.8701 88.856Z" fill="#EAEAEA"/>
<path d="M54.3584 90.8931C47.8522 81.7417 37.6608 74.0921 30.2582 69.2858C22.2325 64.0752 15.6664 60.994 15.6006 60.9648L15.7936 60.5605C15.8594 60.5912 22.4534 63.6855 30.5068 68.9121C37.943 73.7389 48.1813 81.4264 54.7284 90.6362L54.3584 90.8931Z" fill="white"/>
<path d="M62.5113 113.782C56.8386 113.674 62.795 119.372 56.008 119.556C47.529 118.818 44.0515 114.899 42.8421 112.985C42.2147 111.991 41.4762 111.069 40.6192 110.263C38.0206 107.816 37.3011 108.497 29.2228 109.919C22.3686 111.12 21.5657 105.142 18.657 100.814C18.6044 100.735 18.5503 100.656 18.4962 100.579C17.3731 98.9765 15.9326 97.6308 13.7419 97.0075C11.4182 96.3478 9.0418 95.3378 6.96228 94.0768C6.78972 93.9731 6.61863 93.8666 6.449 93.7571C2.32651 91.1153 -0.452046 87.4781 1.04544 83.7168C1.08054 83.6278 1.11857 83.5387 1.15805 83.4497C1.43883 82.8279 1.83807 82.2018 2.37038 81.5771C7.90554 75.0747 13.5167 77.3867 19.9922 78.3894C23.5721 78.9426 28.6817 74.4296 33.6992 72.2841C33.7709 72.2534 33.844 72.2228 33.9156 72.1936C37.8992 70.5443 41.8111 70.4581 44.8397 75.6586C44.8397 75.66 44.8412 75.66 44.8412 75.66C44.9026 75.7651 44.964 75.8702 45.0254 75.9724C51.7919 87.427 55.1408 83.3037 64.6683 85.4259C66.4407 85.8215 68.0362 86.2593 69.0891 87.1935C78.912 95.8924 72.3166 107.928 62.5113 113.782Z" fill="#D5D6DA"/>
<path d="M63.333 102.6L63.6737 102.165C63.4807 102.016 43.7794 87.245 1.07022 83.4399L1.02051 83.9887C43.5688 87.7792 63.14 102.452 63.333 102.6Z" fill="white"/>
<path d="M37.8163 84.4882C43.796 79.8293 45.0566 75.9031 45.1077 75.7382L44.5754 75.5776C44.5637 75.617 43.2988 79.517 37.4727 84.0562L37.8163 84.4882Z" fill="white"/>
<path d="M36.4412 90.3556C38.2121 87.6933 38.3291 83.6956 36.7805 78.7958C35.6208 75.1265 33.9186 72.1972 33.9011 72.168L33.4199 72.4438C33.4872 72.5577 40.0474 83.9306 35.9762 90.0534L36.4412 90.3556Z" fill="white"/>
<path d="M25.2462 88.6585C25.9555 88.1462 26.3415 87.8075 26.3591 87.7929L25.9876 87.3828C25.9072 87.4543 17.7442 94.5609 6.47354 93.4823L6.41943 94.0311C15.5038 94.8996 22.6066 90.5676 25.2462 88.6585Z" fill="white"/>
<path d="M18.847 101.006C21.6153 98.3279 22.5409 95.5299 22.8305 93.6558C23.1449 91.6154 22.8042 90.2215 22.7896 90.1631L22.2499 90.2959C22.2631 90.3499 23.5266 95.708 18.458 100.612L18.847 101.006Z" fill="white"/>
<path d="M8.89835 73.1755C7.13033 72.4414 6.83931 71.6663 7.13032 70.9803C7.42133 70.2943 8.18177 69.9557 9.94978 70.6899C13.1714 72.0268 14.2024 73.9155 14.2024 73.9155C14.2024 73.9155 12.1668 74.5314 8.89835 73.1755Z" fill="#EAEAEA"/>
<path d="M181.118 63.9434H127.978V120.412H181.118V63.9434Z" fill="#657285"/>
<path d="M84.8025 30.0088L51.46 64.5902V120.413H127.978V64.5902L84.8025 30.0088Z" fill="#A3AEB7"/>
<path d="M143.336 31.6101L81.2051 28.437L125.043 64.5903L185.245 64.8326L143.336 31.6101Z" fill="#F99013"/>
<path d="M51.4595 64.5904H45.0967L81.2046 28.437L84.0534 30.7854L51.4595 64.5904Z" fill="#B0640A"/>
<path d="M142.246 34.2093C141.617 34.2093 141.057 33.8896 140.357 33.4882C139.849 33.1978 139.273 32.8679 138.523 32.5658C137.226 32.0418 135.648 32.7687 134.255 33.4109C133.682 33.6751 133.141 33.9246 132.658 34.0706C131.524 34.4121 130.766 34.0721 129.621 33.5568C129.057 33.3029 128.418 33.0168 127.593 32.7453C125.79 32.1542 124.595 32.7263 123.634 33.1861C123.274 33.3583 122.935 33.5218 122.609 33.5992C121.843 33.7816 121.104 33.4868 119.987 33.0416C119.352 32.7891 118.634 32.5016 117.726 32.2272C116.499 31.8564 115.543 32.3731 114.7 32.8285C113.835 33.2956 113.017 33.7378 112.083 33.1394C109.219 31.3062 107.84 31.9878 105.752 33.0212C104.56 33.6108 103.519 33.1744 102.312 32.668C101.393 32.2826 100.351 31.8448 99.0966 31.8448C98.5921 31.8448 98.1051 32.1294 97.5421 32.4578C96.3927 33.1277 94.9624 33.9626 92.6284 32.6767C89.2737 30.8289 86.3416 32.6563 86.3124 32.6753L86.2451 32.5702C86.2744 32.5512 89.2679 30.683 92.6899 32.5687C94.9624 33.821 96.359 33.0066 97.4806 32.3512C98.0598 32.0126 98.5599 31.7207 99.0981 31.7207C100.378 31.7207 101.432 32.163 102.362 32.5527C103.539 33.046 104.557 33.4736 105.698 32.9088C107.824 31.8564 109.228 31.1617 112.151 33.0343C113.023 33.5933 113.773 33.1876 114.642 32.7176C115.508 32.2505 116.487 31.7207 117.764 32.1075C118.677 32.3833 119.398 32.6709 120.035 32.9248C121.13 33.3612 121.854 33.6502 122.581 33.478C122.893 33.4036 123.228 33.2445 123.58 33.0752C124.561 32.6052 125.781 32.0214 127.632 32.6286C128.464 32.9015 129.106 33.1905 129.674 33.4444C130.794 33.948 131.534 34.2808 132.623 33.9524C133.099 33.8093 133.635 33.5612 134.204 33.2999C135.62 32.6475 137.223 31.909 138.571 32.4534C139.328 32.7599 139.908 33.0912 140.419 33.3831C141.162 33.8079 141.699 34.1144 142.326 34.0852C142.794 34.0633 143.1 33.8064 143.425 33.5349C143.837 33.189 144.263 32.8329 145.049 32.9059L145.038 33.0299C144.304 32.9613 143.897 33.3014 143.505 33.6313C143.179 33.9042 142.843 34.1874 142.332 34.2107C142.304 34.2078 142.275 34.2093 142.246 34.2093Z" fill="#DAEBE8"/>
<path d="M148.255 38.9646C147.626 38.9646 147.066 38.645 146.366 38.2436C145.858 37.9532 145.282 37.6233 144.532 37.3212C143.235 36.7972 141.657 37.5241 140.266 38.1663C139.693 38.4304 139.152 38.68 138.669 38.826C137.534 39.1675 136.777 38.8274 135.632 38.3122C135.067 38.0583 134.428 37.7722 133.604 37.5007C131.802 36.9096 130.606 37.4817 129.645 37.9415C129.285 38.1137 128.946 38.2772 128.621 38.3545C127.856 38.537 127.116 38.2422 125.999 37.797C125.364 37.5445 124.646 37.2569 123.738 36.9825C122.511 36.6118 121.555 37.1285 120.711 37.5839C119.845 38.0509 119.026 38.4932 118.093 37.8948C115.23 36.0616 113.851 36.7432 111.763 37.7766C110.571 38.3662 109.53 37.9298 108.323 37.4233C107.403 37.038 106.362 36.6001 105.107 36.6001C104.603 36.6001 104.116 36.8848 103.553 37.2132C102.403 37.8831 100.973 38.718 98.6392 37.4321C95.2845 35.5843 92.3524 37.4117 92.3231 37.4306L92.2559 37.3255C92.2851 37.3066 95.2786 35.4383 98.7006 37.3241C100.973 38.5764 102.37 37.762 103.491 37.1066C104.071 36.768 104.571 36.4761 105.11 36.4761C106.39 36.4761 107.444 36.9183 108.374 37.308C109.552 37.8014 110.569 38.229 111.709 37.6642C113.835 36.6118 115.239 35.9171 118.162 37.7897C119.034 38.3472 119.784 37.9429 120.653 37.473C121.517 37.0059 122.498 36.4761 123.775 36.8629C124.687 37.1387 125.408 37.4263 126.046 37.6802C127.141 38.1166 127.865 38.4056 128.592 38.2334C128.903 38.159 129.238 37.9999 129.591 37.8306C130.572 37.3606 131.792 36.7767 133.643 37.3839C134.475 37.6569 135.117 37.9459 135.685 38.1998C136.805 38.7034 137.546 39.0362 138.636 38.7078C139.111 38.5647 139.648 38.3166 140.216 38.0553C141.631 37.4029 143.235 36.6629 144.582 37.2088C145.339 37.5153 145.918 37.8466 146.43 38.1385C147.173 38.5633 147.71 38.8698 148.337 38.8406C148.805 38.8187 149.111 38.5618 149.435 38.2903C149.848 37.9444 150.273 37.5883 151.06 37.6612L151.048 37.7853C150.314 37.7182 149.908 38.0568 149.516 38.3867C149.19 38.6596 148.853 38.9428 148.343 38.9661C148.314 38.9646 148.285 38.9646 148.255 38.9646Z" fill="#DAEBE8"/>
<path d="M159.739 48.4744C159.11 48.4744 158.55 48.1548 157.849 47.7534C157.342 47.4629 156.766 47.1331 156.015 46.8309C154.718 46.307 153.14 47.0338 151.75 47.676C151.176 47.9402 150.635 48.1898 150.153 48.3358C149.018 48.6773 148.26 48.3372 147.115 47.822C146.551 47.568 145.912 47.2819 145.087 47.0105C143.284 46.4193 142.089 46.9915 141.128 47.4513C140.768 47.6235 140.429 47.7869 140.103 47.8643C139.337 48.0468 138.6 47.7519 137.481 47.3068C136.846 47.0543 136.128 46.7667 135.22 46.4923C133.993 46.1216 133.037 46.6383 132.195 47.0937C131.329 47.5607 130.51 48.003 129.577 47.4045C126.713 45.5713 125.334 46.2529 123.246 47.2863C122.054 47.876 121.013 47.4396 119.807 46.9331C118.887 46.5478 117.846 46.1099 116.591 46.1099C116.086 46.1099 115.599 46.3945 115.036 46.7229C113.887 47.3929 112.457 48.2277 110.123 46.9419C106.768 45.0941 103.836 46.9214 103.807 46.9404L103.739 46.8353C103.769 46.8163 106.762 44.9481 110.184 46.8338C112.457 48.0862 113.853 47.2717 114.975 46.6164C115.554 46.2778 116.054 45.9858 116.594 45.9858C117.873 45.9858 118.928 46.4281 119.858 46.8178C121.035 47.3111 122.053 47.7388 123.192 47.1739C125.318 46.1216 126.722 45.4268 129.646 47.2995C130.517 47.8585 131.267 47.4527 132.136 46.9827C133 46.5157 133.982 45.9858 135.258 46.3726C136.171 46.6485 136.892 46.936 137.529 47.19C138.625 47.6264 139.349 47.9154 140.075 47.7432C140.387 47.6687 140.722 47.5096 141.074 47.3403C142.055 46.8703 143.275 46.2865 145.126 46.8937C145.959 47.1666 146.601 47.4556 147.168 47.7096C148.288 48.2131 149.028 48.5459 150.118 48.2175C150.593 48.0745 151.13 47.8264 151.698 47.5651C153.114 46.9127 154.717 46.1741 156.065 46.7185C156.823 47.0251 157.402 47.3564 157.914 47.6483C158.656 48.073 159.193 48.3795 159.821 48.3503C160.286 48.3284 160.691 48.0759 161.121 47.8074C161.679 47.4586 162.255 47.098 163.048 47.171L163.036 47.2951C162.286 47.2265 161.728 47.5753 161.186 47.9125C160.743 48.1898 160.324 48.4511 159.826 48.4744C159.796 48.4744 159.766 48.4744 159.739 48.4744Z" fill="#DAEBE8"/>
<path d="M165.527 53.2298C164.898 53.2298 164.338 52.9101 163.638 52.5087C163.13 52.2183 162.554 51.8884 161.804 51.5863C160.507 51.0623 158.929 51.7892 157.538 52.4314C156.965 52.6956 156.424 52.9452 155.941 53.0911C154.806 53.4327 154.049 53.0926 152.904 52.5773C152.339 52.3234 151.7 52.0373 150.875 51.7658C149.072 51.1747 147.878 51.7468 146.917 52.2066C146.557 52.3788 146.218 52.5423 145.893 52.6197C145.127 52.8021 144.388 52.5073 143.271 52.0621C142.636 51.8096 141.918 51.5221 141.01 51.2477C139.783 50.877 138.827 51.3936 137.984 51.849C137.119 52.3161 136.301 52.7583 135.367 52.1599C132.503 50.3267 131.124 51.0083 129.036 52.0417C127.844 52.6314 126.803 52.1949 125.597 51.6885C124.677 51.3031 123.636 50.8653 122.381 50.8653C121.876 50.8653 121.389 51.1499 120.826 51.4783C119.677 52.1482 118.247 52.9831 115.913 51.6972C112.558 49.8494 109.626 51.6768 109.597 51.6958L109.529 51.5907C109.559 51.5717 112.552 49.7035 115.974 51.5892C118.247 52.8415 119.643 52.0271 120.765 51.3717C121.344 51.0331 121.844 50.7412 122.384 50.7412C123.663 50.7412 124.718 51.1835 125.648 51.5732C126.825 52.0665 127.843 52.4927 128.982 51.9293C131.108 50.877 132.512 50.1822 135.436 52.0548C136.307 52.6138 137.057 52.2081 137.926 51.7381C138.79 51.271 139.772 50.7412 141.048 51.128C141.961 51.4039 142.682 51.6914 143.319 51.9454C144.415 52.3818 145.14 52.6708 145.865 52.4985C146.177 52.4241 146.51 52.265 146.864 52.0957C147.845 51.6257 149.065 51.0419 150.916 51.6491C151.749 51.922 152.391 52.211 152.958 52.465C154.078 52.9685 154.818 53.3013 155.908 52.9729C156.383 52.8298 156.92 52.5817 157.488 52.319C158.903 51.6666 160.507 50.9266 161.854 51.4725C162.611 51.779 163.19 52.1103 163.702 52.4022C164.445 52.8269 164.98 53.1334 165.609 53.1043C166.073 53.0824 166.519 52.8313 166.99 52.5642C167.611 52.2139 168.253 51.8505 169.047 51.9235L169.035 52.0475C168.282 51.9789 167.656 52.3307 167.052 52.6722C166.567 52.9466 166.109 53.205 165.615 53.2283C165.584 53.2298 165.556 53.2298 165.527 53.2298Z" fill="#DAEBE8"/>
<path d="M171.178 57.9856C170.549 57.9856 169.989 57.666 169.288 57.2646C168.781 56.9742 168.205 56.6443 167.454 56.3422C166.157 55.8182 164.579 56.545 163.187 57.1873C162.614 57.4514 162.073 57.701 161.59 57.847C160.455 58.1885 159.698 57.8484 158.553 57.3332C157.988 57.0792 157.349 56.7932 156.524 56.5217C154.721 55.9306 153.527 56.5027 152.566 56.9625C152.206 57.1347 151.867 57.2982 151.541 57.3755C150.774 57.558 150.037 57.2631 148.919 56.818C148.284 56.5655 147.566 56.2779 146.658 56.0035C145.431 55.6328 144.474 56.148 143.632 56.6049C142.766 57.0734 141.949 57.5142 141.014 56.9158C138.151 55.0825 136.772 55.7642 134.684 56.7975C133.492 57.3872 132.451 56.9508 131.244 56.4443C130.324 56.059 129.283 55.6211 128.028 55.6211C127.524 55.6211 127.037 55.9057 126.474 56.2341C125.324 56.9041 123.894 57.739 121.56 56.4531C118.205 54.6053 115.273 56.4326 115.244 56.4516L115.177 56.3465C115.206 56.3276 118.201 54.4593 121.622 56.3451C123.894 57.5974 125.291 56.7829 126.412 56.1276C126.991 55.789 127.492 55.4971 128.031 55.4971C129.311 55.4971 130.365 55.9393 131.295 56.329C132.472 56.8224 133.49 57.2486 134.629 56.6852C136.756 55.6328 138.16 54.9381 141.083 56.8107C141.955 57.3697 142.705 56.9639 143.574 56.494C144.438 56.0269 145.419 55.4971 146.696 55.8839C147.608 56.1597 148.329 56.4472 148.967 56.7012C150.062 57.1376 150.786 57.4266 151.513 57.2544C151.824 57.1799 152.159 57.0209 152.512 56.8515C153.493 56.3816 154.713 55.7977 156.564 56.4049C157.396 56.6779 158.038 56.9669 158.605 57.2208C159.726 57.7244 160.466 58.0571 161.555 57.7287C162.03 57.5857 162.567 57.3376 163.136 57.0763C164.551 56.4239 166.154 55.6839 167.503 56.2298C168.26 56.5363 168.839 56.8676 169.351 57.1595C170.094 57.5843 170.628 57.8908 171.258 57.8616C171.726 57.8397 172.114 57.4704 172.523 57.0792C173.042 56.583 173.579 56.0707 174.364 56.1437L174.352 56.2677C173.624 56.2006 173.108 56.6925 172.609 57.1697C172.182 57.5784 171.779 57.9637 171.264 57.9871C171.236 57.9856 171.207 57.9856 171.178 57.9856Z" fill="#DAEBE8"/>
<path d="M176.363 62.1785C175.734 62.1785 175.174 61.8589 174.474 61.4575C173.966 61.167 173.39 60.8372 172.64 60.535C171.341 60.011 169.765 60.7379 168.373 61.3801C167.799 61.6443 167.258 61.8939 166.776 62.0399C165.642 62.3814 164.885 62.0413 163.738 61.5261C163.174 61.2721 162.535 60.986 161.71 60.7146C159.907 60.1234 158.712 60.6956 157.751 61.1554C157.392 61.3276 157.051 61.4911 156.726 61.5684C155.96 61.7509 155.221 61.456 154.104 61.0109C153.469 60.7583 152.751 60.4708 151.843 60.1964C150.616 59.8257 149.66 60.3409 148.818 60.7978C147.952 61.2648 147.133 61.7071 146.2 61.1087C143.336 59.2754 141.957 59.957 139.869 60.9904C138.677 61.5801 137.636 61.1437 136.43 60.6372C135.51 60.2519 134.469 59.814 133.214 59.814C132.709 59.814 132.222 60.0986 131.659 60.427C130.51 61.097 129.08 61.9318 126.746 60.646C123.391 58.7981 120.459 60.6255 120.43 60.6445L120.362 60.5394C120.392 60.5204 123.385 58.6522 126.807 60.538C129.08 61.7903 130.476 60.9758 131.598 60.3205C132.177 59.9819 132.677 59.6899 133.217 59.6899C134.496 59.6899 135.551 60.1322 136.481 60.5219C137.658 61.0152 138.676 61.4414 139.815 60.878C141.941 59.8257 143.345 59.1309 146.269 61.0036C147.14 61.5626 147.89 61.1568 148.759 60.6868C149.623 60.2198 150.605 59.6899 151.881 60.0767C152.794 60.3526 153.515 60.6401 154.152 60.8941C155.248 61.3305 155.972 61.6195 156.698 61.4473C157.01 61.3728 157.345 61.2137 157.697 61.0444C158.678 60.5744 159.898 59.9906 161.749 60.5978C162.582 60.8707 163.224 61.1597 163.791 61.4137C164.911 61.9173 165.651 62.25 166.741 61.9216C167.216 61.7786 167.753 61.5305 168.321 61.2692C169.736 60.6168 171.34 59.8768 172.688 60.4227C173.446 60.7292 174.025 61.0605 174.537 61.3524C175.28 61.7771 175.816 62.0836 176.444 62.0545C176.91 62.0326 177.381 61.7246 177.881 61.3976C178.532 60.9729 179.205 60.5336 179.994 60.6066L179.983 60.7306C179.237 60.662 178.582 61.0897 177.95 61.5027C177.435 61.8384 176.95 62.1566 176.449 62.18C176.42 62.1771 176.391 62.1785 176.363 62.1785Z" fill="#DAEBE8"/>
<path d="M80.634 98.6344H64.1909C63.3207 98.6344 62.6056 97.9075 62.5734 96.9909L62.2956 81.6612C62.1961 76.1805 66.6199 71.6851 72.1112 71.6851C77.3641 71.6851 81.6636 75.8579 81.8098 81.0992L82.2515 96.969C82.231 97.8958 81.5129 98.6344 80.634 98.6344Z" fill="#364154"/>
<path d="M81.1066 95.6128C81.0876 96.4331 80.4514 97.087 79.6734 97.087H65.1183C64.3476 97.087 63.7158 96.4448 63.6866 95.6318L63.6559 93.93L63.5506 88.1034L63.4409 82.0623C63.3532 77.2122 67.268 73.2319 72.1304 73.2319C74.4542 73.2319 76.5688 74.1558 78.1175 75.6592C79.0812 76.5948 79.827 77.7537 80.2672 79.057C80.5333 79.8467 80.6898 80.6888 80.7132 81.5646L80.8346 85.9082L81.0583 93.9052L81.1066 95.6128Z" fill="#EAEAEA"/>
<g opacity="0.6">
<path opacity="0.6" d="M80.2681 79.0585L63.5516 88.1034L63.4419 82.0623C63.3541 77.2122 67.269 73.2319 72.1314 73.2319C74.4551 73.2319 76.5698 74.1558 78.1184 75.6592C79.0807 76.5948 79.8265 77.7551 80.2681 79.0585Z" fill="#D7E9FD"/>
</g>
<g opacity="0.6">
<path opacity="0.6" d="M81.0597 93.9046L74.6851 97.0865H65.1196C64.3489 97.0865 63.7172 96.4443 63.6879 95.6313L63.6572 93.9295L80.836 85.9077L81.0597 93.9046Z" fill="#D7E9FD"/>
</g>
<path d="M72.5455 72.2188L72.8146 97.7625L71.7324 98.1011L71.8275 72.2188H72.5455Z" fill="#364154"/>
<path d="M108.648 98.6344H92.2046C91.3344 98.6344 90.6193 97.9075 90.5871 96.9909L90.3093 81.6612C90.2098 76.1805 94.6336 71.6851 100.125 71.6851C105.378 71.6851 109.677 75.8579 109.823 81.0992L110.265 96.969C110.245 97.8958 109.527 98.6344 108.648 98.6344Z" fill="#364154"/>
<path d="M109.12 95.6128C109.101 96.4331 108.465 97.087 107.687 97.087H93.1314C92.3608 97.087 91.729 96.4448 91.7012 95.6318L91.6705 93.93L91.5652 88.1034L91.4555 82.0623C91.3678 77.2122 95.2826 73.2319 100.145 73.2319C102.469 73.2319 104.583 74.1558 106.132 75.6592C107.096 76.5948 107.842 77.7537 108.282 79.057C108.548 79.8467 108.704 80.6888 108.728 81.5646L108.849 85.9082L109.073 93.9052L109.12 95.6128Z" fill="#EAEAEA"/>
<g opacity="0.6">
<path opacity="0.6" d="M108.282 79.0585L91.5652 88.1034L91.4555 82.0623C91.3678 77.2122 95.2826 73.2319 100.145 73.2319C102.469 73.2319 104.583 74.1558 106.132 75.6592C107.094 76.5948 107.84 77.7551 108.282 79.0585Z" fill="#D7E9FD"/>
</g>
<g opacity="0.6">
<path opacity="0.6" d="M109.073 93.9046L102.698 97.0865H93.1328C92.3621 97.0865 91.7304 96.4443 91.7026 95.6313L91.6719 93.9295L108.851 85.9077L109.073 93.9046Z" fill="#D7E9FD"/>
</g>
<path d="M100.559 72.2188L100.828 97.7625L99.7461 98.1011L99.8412 72.2188H100.559Z" fill="#364154"/>
<path d="M88.9142 60.0214H80.7468C80.3139 60.0214 79.96 59.6608 79.9439 59.2055L79.8065 51.5909C79.7568 48.8689 81.9547 46.6357 84.6821 46.6357C87.291 46.6357 89.4261 48.7083 89.4992 51.3122L89.7185 59.1938C89.7083 59.6536 89.3515 60.0214 88.9142 60.0214Z" fill="#364154"/>
<path d="M89.15 58.5213C89.1412 58.9285 88.8254 59.2525 88.4378 59.2525H81.2078C80.8247 59.2525 80.5117 58.9329 80.4971 58.5301L80.4825 57.685L80.4299 54.7907L80.3757 51.7898C80.3319 49.3815 82.2768 47.4038 84.6927 47.4038C85.8465 47.4038 86.898 47.8621 87.6657 48.6094C88.1439 49.0735 88.5153 49.6501 88.7332 50.2981C88.8663 50.6907 88.9424 51.1082 88.9555 51.5431L89.0155 53.7004L89.1266 57.6718L89.15 58.5213Z" fill="#EAEAEA"/>
<g opacity="0.6">
<path opacity="0.6" d="M88.7334 50.2981L80.4299 54.7907L80.3757 51.7898C80.3319 49.3815 82.2768 47.4038 84.6927 47.4038C85.8466 47.4038 86.898 47.8621 87.6658 48.6094C88.144 49.075 88.514 49.6501 88.7334 50.2981Z" fill="#D7E9FD"/>
</g>
<g opacity="0.6">
<path opacity="0.6" d="M89.1262 57.6717L85.9601 59.2524H81.2087C80.8256 59.2524 80.5127 58.9327 80.498 58.5299L80.4834 57.6848L89.0165 53.7002L89.1262 57.6717Z" fill="#D7E9FD"/>
</g>
<path d="M84.8968 46.9009L85.0299 59.5888L84.4932 59.7567L84.5399 46.9009H84.8968Z" fill="#364154"/>
<path d="M49.9813 119.357L50.6218 114.294C50.6818 113.825 51.081 113.474 51.5549 113.474H128.341C128.825 113.474 129.23 113.84 129.277 114.32L129.772 119.383C129.826 119.935 129.392 120.412 128.836 120.412H50.9158C50.3484 120.412 49.9097 119.918 49.9813 119.357Z" fill="#657285"/>
<path d="M129.193 113.474H182.3L183.179 120.412H130.698L129.193 113.474Z" fill="#657285"/>
<path d="M142.301 125.087C142.301 125.087 139.568 122.219 140.508 120.585C141.449 118.952 143.035 124.094 143.035 124.094C143.035 124.094 142.212 118.014 143.917 117.909C145.621 117.803 143.917 124.094 143.917 124.094C143.917 124.094 144.549 122.627 145.166 122.537C145.783 122.446 145.606 123.78 144.505 125.087H142.301Z" fill="#EAEAEA"/>
<path d="M142.496 125.156C142.488 125.147 141.706 124.323 141.067 123.281C140.194 121.86 139.986 120.732 140.448 119.929C140.621 119.63 140.829 119.491 141.065 119.518C141.545 119.572 142.085 120.316 142.714 121.793C142.901 122.233 143.067 122.672 143.198 123.037C143.047 121.434 142.873 118.251 143.737 117.2C143.92 116.978 144.141 116.857 144.395 116.842C144.642 116.828 144.849 116.915 145.005 117.107C145.786 118.063 145.093 121.525 144.71 123.145C144.993 122.673 145.394 122.152 145.804 122.092C145.995 122.065 146.149 122.136 146.236 122.294C146.561 122.875 145.924 124.229 145.146 125.152L144.991 125.022C145.986 123.841 146.251 122.736 146.06 122.393C146.013 122.31 145.941 122.279 145.833 122.294C145.305 122.371 144.688 123.552 144.495 124L144.303 123.933C144.308 123.918 144.683 122.523 144.933 120.999C145.261 119.007 145.232 117.704 144.847 117.234C144.733 117.095 144.591 117.032 144.408 117.044C144.21 117.055 144.041 117.149 143.895 117.328C142.803 118.657 143.496 123.894 143.503 123.946L143.306 123.99C142.949 122.832 141.846 119.81 141.042 119.721C140.891 119.703 140.754 119.805 140.624 120.032C139.607 121.798 142.613 124.985 142.642 125.016L142.496 125.156Z" fill="#364154"/>
<path d="M34.6967 122.118C34.6967 122.118 31.2835 118.536 32.4578 116.496C33.6321 114.455 35.6137 120.879 35.6137 120.879C35.6137 120.879 34.5856 113.285 36.7149 113.152C38.8441 113.021 36.7149 120.879 36.7149 120.879C36.7149 120.879 37.5046 119.047 38.2752 118.933C39.0459 118.82 38.8251 120.488 37.449 122.118H34.6967Z" fill="#EAEAEA"/>
<path d="M34.9378 122.205C34.9276 122.194 33.9521 121.164 33.1522 119.862C32.0627 118.087 31.8024 116.679 32.3801 115.676C32.595 115.302 32.8539 115.13 33.1508 115.162C33.7503 115.229 34.423 116.159 35.2098 118.004C35.4452 118.556 35.6544 119.108 35.8182 119.564C35.7582 118.921 35.6953 118.07 35.6719 117.177C35.6076 114.656 35.8825 113.004 36.4894 112.267C36.7175 111.989 36.9939 111.839 37.3113 111.818C37.6213 111.8 37.8772 111.91 38.0732 112.148C39.0486 113.342 38.1814 117.665 37.7047 119.691C38.0586 119.103 38.5587 118.452 39.0705 118.376C39.3089 118.341 39.5019 118.43 39.6116 118.627C40.0167 119.353 39.2197 121.046 38.2487 122.196L38.0542 122.032C39.2987 120.558 39.6292 119.179 39.3893 118.75C39.3308 118.646 39.2416 118.607 39.1056 118.626C38.4461 118.722 37.6754 120.198 37.4341 120.758L37.1957 120.675C37.2001 120.658 37.6695 118.915 37.984 117.012C38.3934 114.523 38.3554 112.896 37.8757 112.309C37.7339 112.135 37.554 112.058 37.3273 112.071C37.0787 112.087 36.8696 112.202 36.6854 112.426C35.3209 114.085 36.1881 120.625 36.1969 120.691L35.9498 120.745C35.5038 119.3 34.1262 115.524 33.123 115.412C32.9328 115.39 32.7632 115.518 32.6009 115.8C31.3315 118.006 35.084 121.987 35.1221 122.027L34.9378 122.205Z" fill="#364154"/>
<path d="M20.984 130.729C20.984 130.729 18.0183 127.617 19.039 125.845C20.0597 124.073 21.781 129.653 21.781 129.653C21.781 129.653 20.8875 123.056 22.7374 122.94C24.5873 122.825 22.7374 129.653 22.7374 129.653C22.7374 129.653 23.4232 128.061 24.093 127.963C24.7628 127.865 24.5712 129.313 23.375 130.73H20.984V130.729Z" fill="#EAEAEA"/>
<path d="M21.1946 130.805C21.0542 130.659 17.7886 127.193 18.9732 125.135C19.1604 124.809 19.3856 124.66 19.6415 124.688C20.1621 124.746 20.7471 125.554 21.43 127.158C21.6333 127.635 21.8131 128.111 21.955 128.506C21.7912 126.766 21.6026 123.313 22.5414 122.173C22.7388 121.932 22.9801 121.801 23.2565 121.785C23.5271 121.769 23.7479 121.865 23.9175 122.072C24.7657 123.109 24.0126 126.866 23.5973 128.626C23.9044 128.115 24.3387 127.549 24.7833 127.483C24.991 127.452 25.1577 127.53 25.2542 127.701C25.6066 128.331 24.9135 129.801 24.0711 130.801L23.9029 130.659C24.9836 129.378 25.2703 128.179 25.0626 127.807C25.0114 127.717 24.9339 127.683 24.8169 127.699C24.2437 127.784 23.5739 129.065 23.3648 129.551L23.1571 129.48C23.1615 129.465 23.5695 127.95 23.8415 126.296C24.1969 124.133 24.1647 122.721 23.7479 122.211C23.6251 122.059 23.4671 121.992 23.2712 122.005C23.0562 122.018 22.8734 122.119 22.714 122.313C21.5295 123.754 22.2811 129.436 22.2884 129.494L22.0735 129.541C21.6859 128.286 20.4897 125.005 19.6181 124.907C19.4543 124.889 19.3051 124.999 19.1647 125.244C18.0606 127.16 21.3218 130.618 21.3554 130.653L21.1946 130.805Z" fill="#364154"/>
<path d="M50.7373 132.859C50.7373 132.859 47.9588 129.943 48.9152 128.283C49.8716 126.623 51.4846 131.851 51.4846 131.851C51.4846 131.851 50.6481 125.669 52.381 125.561C54.1139 125.453 52.381 131.851 52.381 131.851C52.381 131.851 53.023 130.359 53.6503 130.267C54.2777 130.175 54.0978 131.531 52.9777 132.859H50.7373Z" fill="#EAEAEA"/>
<path d="M50.9337 132.93C50.9264 132.921 50.1308 132.084 49.4801 131.024C48.5938 129.579 48.3818 128.433 48.8512 127.617C49.0267 127.314 49.2373 127.172 49.4786 127.2C49.9656 127.254 50.514 128.012 51.1545 129.513C51.3446 129.96 51.5142 130.407 51.6473 130.777C51.4938 129.149 51.3183 125.913 52.1957 124.844C52.3814 124.618 52.6067 124.497 52.8655 124.481C53.1185 124.465 53.3262 124.555 53.4856 124.749C54.2796 125.72 53.5748 129.24 53.1858 130.888C53.4739 130.41 53.8804 129.88 54.2972 129.818C54.4917 129.789 54.6482 129.862 54.7374 130.023C55.0679 130.614 54.4186 131.99 53.6289 132.927L53.4709 132.794C54.4829 131.595 54.752 130.471 54.5575 130.122C54.5107 130.037 54.4376 130.005 54.3279 130.021C53.7912 130.1 53.1638 131.3 52.9679 131.757L52.7734 131.69C52.7778 131.675 53.1594 130.256 53.4139 128.708C53.7473 126.682 53.7166 125.358 53.3262 124.879C53.2106 124.738 53.0644 124.675 52.8801 124.687C52.6783 124.7 52.5072 124.793 52.358 124.976C51.2481 126.326 51.953 131.649 51.9603 131.703L51.7599 131.747C51.3973 130.57 50.2756 127.496 49.4596 127.406C49.306 127.387 49.1671 127.492 49.0355 127.721C48.0016 129.518 51.0565 132.757 51.0872 132.789L50.9337 132.93Z" fill="#364154"/>
<path d="M200.425 129.253C200.425 129.253 196.966 125.624 198.157 123.557C199.347 121.49 201.355 127.997 201.355 127.997C201.355 127.997 200.314 120.302 202.471 120.168C204.628 120.033 202.471 127.997 202.471 127.997C202.471 127.997 203.271 126.14 204.051 126.025C204.832 125.91 204.609 127.6 203.215 129.252H200.425V129.253Z" fill="#EAEAEA"/>
<path d="M200.669 129.343C200.658 129.333 199.67 128.289 198.86 126.97C197.756 125.171 197.492 123.745 198.077 122.728C198.295 122.349 198.558 122.174 198.857 122.207C199.464 122.274 200.147 123.217 200.944 125.087C201.181 125.643 201.391 126.199 201.556 126.66C201.365 124.631 201.145 120.604 202.239 119.275C202.47 118.995 202.751 118.841 203.073 118.821C203.386 118.802 203.646 118.914 203.844 119.155C204.832 120.364 203.955 124.745 203.471 126.797C203.829 126.202 204.336 125.541 204.854 125.465C205.097 125.428 205.291 125.519 205.402 125.719C205.813 126.454 205.006 128.168 204.022 129.334L203.825 129.169C205.085 127.675 205.42 126.278 205.177 125.843C205.119 125.738 205.027 125.697 204.891 125.717C204.222 125.815 203.441 127.31 203.197 127.878L202.954 127.793C202.959 127.775 203.436 126.009 203.753 124.081C204.168 121.559 204.13 119.911 203.643 119.316C203.5 119.139 203.317 119.059 203.088 119.075C202.836 119.091 202.624 119.208 202.437 119.435C201.055 121.117 201.932 127.743 201.941 127.809L201.691 127.864C201.239 126.4 199.844 122.573 198.826 122.461C198.636 122.439 198.462 122.568 198.297 122.854C197.01 125.09 200.812 129.123 200.851 129.162L200.669 129.343Z" fill="#364154"/>
<path d="M151.568 42.8797C151.568 43.0665 151.419 43.1804 151.117 43.1804H114.195C114.019 43.1804 113.809 43.1424 113.581 43.0724C112.961 42.8841 112.211 42.471 111.677 41.9952C111.282 41.6449 111.083 41.3297 111.083 41.1107C111.083 40.9239 111.232 40.8101 111.533 40.8101H148.456C148.696 40.8101 149 40.8816 149.326 41.0056C149.888 41.2173 150.511 41.5822 150.974 41.9952C151.366 42.3455 151.568 42.6608 151.568 42.8797Z" fill="#131F2D"/>
<path d="M144.664 52.1001L144.751 52.1703L144.664 52.1001Z" fill="#CCD39C"/>
<path d="M155.157 9.27667L147.505 40.8105L146.931 43.1808H133.668L133.241 42.8349L130.748 40.8105L127.433 38.122L127.142 37.8855L127.762 35.3357L135.372 3.96387L155.157 9.27667Z" fill="#FCC789"/>
<path d="M154.671 8.40886L135.221 3.188C134.455 2.9822 133.686 3.42007 133.493 4.17028L125.882 33.8111L125.261 36.2223C125.394 36.4193 125.533 36.5813 125.669 36.6922L127.14 37.8862L127.431 38.1211L128.074 35.5903L135.559 6.19908C135.749 5.44886 136.52 5.00807 137.287 5.21533L152.903 9.40719C153.668 9.61299 154.144 10.3836 153.973 11.1382L147.227 40.8111L146.688 43.18H148.868L149.32 41.0052L155.743 10.1151C155.902 9.36633 155.427 8.61027 154.671 8.40886Z" fill="#657285"/>
<path d="M139.87 38.7712C144.049 38.4209 148.271 36.0695 147.52 29.6869C147.031 25.53 143.045 22.2694 138.837 22.1993C133.722 22.1147 131.014 25.422 131.096 31.485C131.154 35.655 134.645 39.209 139.87 38.7712Z" fill="#657285"/>
<path d="M139.262 43.1804H133.668L133.241 42.8344C133.447 41.9003 133.915 41.2464 134.629 40.9063C134.705 40.8699 134.784 40.8377 134.864 40.81C135.207 40.6889 135.599 40.6276 136.039 40.6349C136.378 40.6407 136.714 40.702 137.035 40.81C138.118 41.1749 139.018 42.0755 139.262 43.1804Z" fill="white"/>
<path d="M142.452 20.2558C144.027 20.1245 145.616 19.2385 145.334 16.8332C145.15 15.2671 143.649 14.0396 142.064 14.0133C140.137 13.9812 139.117 15.2277 139.148 17.5104C139.169 19.0824 140.483 20.4208 142.452 20.2558Z" fill="#657285"/>
<path d="M146.064 31.4749L145.381 31.3406C145.115 31.2895 144.921 31.0487 144.934 30.7816C144.96 30.2459 144.899 29.7935 144.801 29.4169C144.729 29.1469 144.457 28.9703 144.181 29.0141L144.008 29.0403C143.704 29.0885 143.518 29.3833 143.594 29.6811C143.701 30.1029 143.774 30.6692 143.657 31.3683C143.441 32.663 142.552 32.9928 141.851 32.8556C140.939 32.6761 141.003 31.7537 140.617 30.1671C140.169 28.2916 139.315 26.9955 137.784 26.5489C136.152 26.0716 134.832 26.8072 134.152 28.8477C134.076 29.0724 133.815 29.1819 133.576 29.1352L132.704 28.9644C132.411 28.9061 132.137 29.0943 132.088 29.3819L132.085 29.3979C132.037 29.6869 132.236 29.9672 132.527 30.0226L133.273 30.17C133.546 30.224 133.735 30.4707 133.72 30.7422C133.687 31.3844 133.766 32.031 133.934 32.5535C134.016 32.8075 134.273 32.9666 134.535 32.9301L134.716 32.9053C135.032 32.8615 135.229 32.552 135.137 32.2426C134.959 31.6471 134.886 30.948 135.004 30.2474C135.205 29.0549 136.108 28.6681 137.109 28.8652C138.074 29.0549 138.511 29.5439 138.828 30.8911C139.242 32.7433 139.767 34.5954 141.293 34.8961C142.623 35.1559 144.102 34.6115 144.497 32.644C144.545 32.409 144.831 32.3098 145.073 32.3565L145.892 32.517C146.092 32.5579 146.284 32.4805 146.399 32.3389C146.453 32.2718 146.493 32.1901 146.507 32.0996C146.554 31.8121 146.357 31.5318 146.064 31.4749Z" fill="#A3AEB7"/>
<path d="M138.782 43.1805H116.09L114.96 40.8102L101.039 11.6774L119.749 3.34326L137.65 40.8102L138.782 43.1805Z" fill="#FCC789"/>
<path d="M140.037 40.8108L120.739 3.62266C120.387 2.94396 119.54 2.65789 118.826 2.97461L100.432 11.1671C99.7085 11.4897 99.3868 12.3129 99.7114 13.0164L112.537 40.8094L113.579 43.0702C113.807 43.1403 114.018 43.1782 114.193 43.1782H116.465L115.365 40.8094L102.6 13.2908C102.274 12.5873 102.594 11.7612 103.319 11.4386L118.086 4.86036C118.809 4.5378 119.666 4.83555 120.011 5.5303L137.497 40.8094L138.671 43.1782H141.267L140.037 40.8108Z" fill="#657285"/>
<path d="M126.529 35.8551C129.551 32.952 131.341 28.4697 126.725 23.9889C123.718 21.0712 118.565 21.0493 115.255 23.6444C111.232 26.7985 111.22 31.0707 115.116 35.7237C117.795 38.9231 122.75 39.4836 126.529 35.8551Z" fill="#657285"/>
<path d="M129.83 43.1807H123.952C123.521 42.3268 123.473 41.5255 123.812 40.8118C124.001 40.4177 124.308 40.0499 124.733 39.7142C125.979 38.7378 127.921 38.7451 129.053 39.8441C129.387 40.1681 129.632 40.4922 129.802 40.8118C130.251 41.6554 130.175 42.4713 129.83 43.1807Z" fill="#657285"/>
<path d="M116.83 19.8632C117.968 18.77 118.643 17.0812 116.903 15.394C115.771 14.2949 113.829 14.2862 112.583 15.2641C111.068 16.4522 111.064 18.0621 112.53 19.8135C113.541 21.0191 115.407 21.2308 116.83 19.8632Z" fill="#657285"/>
<path d="M127.46 26.4993C127.315 26.2468 126.986 26.1534 126.723 26.2935L126.107 26.619C125.868 26.746 125.566 26.6832 125.407 26.4672C125.088 26.0337 124.756 25.7228 124.44 25.4908C124.214 25.3258 123.892 25.3609 123.706 25.5681L123.589 25.698C123.383 25.9272 123.424 26.2731 123.673 26.4555C124.022 26.7139 124.436 27.1094 124.787 27.7254C125.436 28.8653 124.955 29.6812 124.325 30.0169C123.504 30.4518 122.971 29.6958 121.668 28.7077C120.135 27.5342 118.654 27.0657 117.182 27.683C115.615 28.3413 115.055 29.741 115.817 31.7538C115.9 31.9771 115.768 32.2252 115.552 32.339L114.767 32.755C114.503 32.8937 114.408 33.2133 114.553 33.4673L114.562 33.4819C114.707 33.7359 115.037 33.8293 115.3 33.6891L115.973 33.333C116.219 33.2031 116.521 33.2746 116.682 33.495C117.061 34.0146 117.532 34.4671 117.993 34.7663C118.216 34.9123 118.518 34.8743 118.697 34.6802L118.822 34.5474C119.04 34.3138 118.996 33.9504 118.73 33.7694C118.216 33.4191 117.718 32.9229 117.365 32.3055C116.767 31.2546 117.225 30.3847 118.124 29.9089C118.993 29.4477 119.641 29.5542 120.739 30.3978C122.231 31.5742 123.81 32.6821 125.182 31.9537C126.378 31.3174 127.182 29.9643 126.245 28.1895C126.134 27.9779 126.293 27.7181 126.51 27.6042L127.247 27.2131C127.427 27.1182 127.527 26.9387 127.527 26.7533C127.529 26.6657 127.506 26.5796 127.46 26.4993Z" fill="#FCC789"/>
<path d="M107.291 87.4487C107.291 87.4487 104.268 96.3623 112.834 101.084C121.399 105.804 113.072 106.559 109.803 111.085C106.535 115.611 106.773 125.929 106.773 125.929H133.763C133.763 125.929 134.056 113.665 131.704 110.815C129.353 107.964 124.65 104.947 125.489 103.272C126.328 101.595 130.504 101.488 132.712 97.9079C135.4 93.5497 133.775 88.1844 133.775 88.1844L107.291 87.4487Z" fill="#D5D6DA"/>
<path d="M133.911 88.5192H105.983C105.47 88.5192 105.055 88.1046 105.055 87.5923V86.4465C105.055 85.9269 105.482 85.5095 106.002 85.5197L133.93 86.07C134.436 86.0802 134.839 86.4918 134.839 86.9968V87.5923C134.841 88.1032 134.424 88.5192 133.911 88.5192Z" fill="#131F2D"/>
<path d="M133.911 126.702H105.983C105.47 126.702 105.055 126.288 105.055 125.775V124.63C105.055 124.11 105.482 123.693 106.002 123.703L133.93 124.253C134.436 124.263 134.839 124.675 134.839 125.18V125.775C134.841 126.288 134.424 126.702 133.911 126.702Z" fill="#131F2D"/>
<path d="M112.389 97.7389C112.389 97.7389 113.733 100.086 115.861 100.924C117.989 101.761 120.242 103.396 120.283 105.24C120.305 106.204 120.515 112.574 119.484 116.303C119.138 117.56 113.563 122.045 114.572 122.632C115.58 123.218 126.245 124.392 126.75 122.632C127.254 120.871 121.837 119.53 121.375 115.716C121.092 113.374 120.998 106.687 121.459 104.61C121.729 103.395 124.806 100.839 126.786 100.335C128.766 99.8319 129.606 97.6527 129.186 97.066C128.766 96.4793 125.872 97.4849 120.517 97.4849C115.16 97.4864 111.213 95.1394 112.389 97.7389Z" fill="#F99013"/>
<path d="M170.96 82.0055L167.41 77.0591L169.184 79.5316L167.412 77.0576C165.834 78.0954 160.933 80.5576 157.272 79.498C154.42 78.6733 154.691 84.1291 157.207 84.8575C160.021 85.6719 163.213 85.4209 166.697 84.1131C169.159 83.1892 170.888 82.0522 170.96 82.0055Z" fill="#FFC3BD"/>
<path d="M172.395 128.3C172.395 128.3 172.365 129.537 171.527 129.885C170.689 130.234 168.26 130.548 169.168 131.343C169.689 131.799 172.142 131.506 172.835 131.506C173.529 131.506 174.179 131.806 174.694 131.343C175.26 130.834 174.694 128.3 174.694 128.3C174.694 128.3 174.096 128.611 173.559 128.597C172.783 128.576 172.395 128.3 172.395 128.3Z" fill="#131F2D"/>
<path d="M165.165 90.9922C165.165 90.9922 164.999 96.5706 166.781 107.274C168.07 115.001 169.589 122.786 170.335 126.518C170.601 127.853 171.727 128.83 173.061 128.882L173.777 128.912C175.219 128.97 176.389 127.734 176.284 126.264L174.475 101.012L174.029 92.7013L165.165 90.9922Z" fill="#364154"/>
<path d="M180.334 128.3C180.334 128.3 180.303 129.537 179.465 129.885C178.627 130.234 176.198 130.548 177.106 131.343C177.627 131.799 180.081 131.506 180.774 131.506C181.467 131.506 182.118 131.806 182.633 131.343C183.199 130.834 182.633 128.3 182.633 128.3C182.633 128.3 182.035 128.611 181.498 128.597C180.721 128.576 180.334 128.3 180.334 128.3Z" fill="#131F2D"/>
<path d="M173.104 90.9922C173.104 90.9922 172.937 96.5706 174.72 107.274C176.008 115.001 177.527 122.786 178.273 126.518C178.539 127.853 179.665 128.83 180.999 128.882L181.716 128.912C183.158 128.97 184.328 127.734 184.222 126.264L182.413 101.012L181.967 92.7013L173.104 90.9922Z" fill="#364154"/>
<path d="M182.843 97.1067C182.825 97.7795 178.748 98.0466 173.704 97.8905C168.66 97.7328 164.63 97.0366 164.648 96.3638C164.665 95.6909 168.723 95.2954 173.767 95.453C178.809 95.6106 182.86 96.4338 182.843 97.1067Z" fill="#131F2D"/>
<path d="M181.609 78.0508C181.609 78.0508 180.717 74.523 174.136 74.4866C164.647 74.4355 165.525 83.1374 164.646 96.3639C164.646 96.3639 173.994 95.0445 182.848 96.9419C182.848 96.9419 183.669 83.4424 181.609 78.0508Z" fill="#407BFF"/>
<path d="M184.038 77.5452L179.74 79.9185C179.74 79.9185 170.33 80.7709 167.832 80.3607C165.334 79.9506 164.648 78.1188 164.648 78.1188C164.648 78.1188 167.309 75.3705 171.832 74.6378C172.257 74.5677 172.697 74.5166 173.154 74.4874C173.921 74.4378 174.689 74.448 175.439 74.5327C181.171 75.1778 184.038 77.5452 184.038 77.5452Z" fill="#407BFF"/>
<path d="M175.042 73.6794L174.544 72.0797L174.4 71.6141L173.55 68.8745L173.439 71.5995L173.372 73.2342L173.35 73.7524C173.335 74.1041 173.12 74.1771 172.86 74.4836C172.754 74.6077 172.077 75.3579 172.845 75.6965C173.803 76.1183 175.591 75.479 176.273 74.6427C176.267 74.6398 175.201 74.1975 175.042 73.6794Z" fill="#FFC3BD"/>
<path d="M165.44 96.9082C165.44 96.9082 170.905 95.3041 182.224 97.5066L182.312 99.1311L165.72 99.7164L165.44 96.9082Z" fill="#364154"/>
<path d="M184.127 77.6449C184.491 78.1601 183.955 79.176 182.928 79.916C181.902 80.656 180.774 80.837 180.41 80.3232C180.046 79.808 180.582 78.7921 181.609 78.0521C182.636 77.3121 183.763 77.1297 184.127 77.6449Z" fill="#131F2D"/>
<path d="M187.061 97.4812C187.257 97.706 187.233 98.0504 187.008 98.2475L185.103 99.8866C184.878 100.082 183.864 100.656 183.668 100.43C183.472 100.205 184.082 99.4034 184.279 99.1787C184.734 98.6605 185.423 97.4491 185.888 96.9397C186.087 96.7208 186.863 97.2564 187.061 97.4812Z" fill="#FFC3BD"/>
<path d="M188.973 97.3999C188.973 97.3999 189.345 98.6011 189.326 100.41C189.32 100.96 185.671 101.128 185.504 100.534C185.338 99.9395 185.901 97.9866 185.901 97.9866L188.973 97.3999Z" fill="#FFC3BD"/>
<path d="M185.307 98.2686C184.911 93.9206 184.004 87.7058 181.926 82.7827C181.445 81.6427 181.245 81.2136 180.869 80.5904C180.566 80.0898 181.107 78.9878 181.961 78.4624C182.763 77.969 184.009 78.0508 184.206 78.2945C184.541 78.709 184.899 79.5045 185.457 80.767C187.393 85.153 188.552 90.819 189.022 98.1241L185.307 98.2686Z" fill="#FFC3BD"/>
<path d="M171.363 67.8472C171.363 67.8472 171.188 68.5098 171.363 69.3417C171.537 70.1737 172.383 68.1303 172.383 68.1303L171.363 67.8472Z" fill="#131F2D"/>
<path d="M176.109 70.2155C176.321 68.6082 175.41 67.1633 174.074 66.9882C172.738 66.8132 171.484 67.9742 171.273 69.5815C171.061 71.1888 171.972 72.6336 173.308 72.8087C174.644 72.9837 175.898 71.8227 176.109 70.2155Z" fill="#FFC3BD"/>
<path d="M176.159 69.3741L174.978 69.2515C174.72 69.2252 174.481 69.0851 174.341 68.8661C174.1 68.4881 173.809 68.294 172.707 68.3349C171.314 68.3874 170.392 67.5569 170.242 66.8286C170.088 66.0857 170.802 65.5821 171.502 65.9354C172.203 66.29 171.902 65.4201 172.576 65.3282C173.835 65.1559 174.07 66.1236 175.1 66.093C176.451 66.0521 178.871 67.0767 177.723 69.45L176.159 69.3741Z" fill="#131F2D"/>
<path d="M173.551 69.7747C173.538 69.7674 173.529 69.7528 173.528 69.7367C173.525 69.709 173.545 69.6857 173.573 69.6842C173.589 69.6827 173.958 69.6171 174.143 70.0082C174.155 70.033 174.146 70.0622 174.121 70.0739C174.097 70.0856 174.072 70.0724 174.056 70.052C173.883 69.8404 173.596 69.782 173.583 69.782C173.57 69.782 173.56 69.7805 173.551 69.7747Z" fill="#080435"/>
<path d="M173.765 70.4068C173.734 70.5207 173.642 70.5936 173.559 70.5717C173.477 70.5498 173.434 70.4389 173.465 70.3251C173.496 70.2112 173.588 70.1382 173.671 70.1601C173.755 70.182 173.796 70.2944 173.765 70.4068Z" fill="#080435"/>
<path d="M171.722 69.628C171.71 69.6266 171.7 69.6178 171.696 69.6032C171.687 69.5799 171.696 69.5492 171.715 69.5361C171.727 69.5288 171.98 69.3172 172.219 69.593C172.234 69.6105 172.235 69.6412 172.221 69.6616C172.206 69.682 172.184 69.6806 172.167 69.6689C171.984 69.5478 171.757 69.6149 171.748 69.6207C171.738 69.628 171.729 69.6295 171.722 69.628Z" fill="#080435"/>
<path d="M172.172 70.1339C172.186 70.2507 172.129 70.3543 172.044 70.3645C171.96 70.3747 171.879 70.2886 171.865 70.1719C171.85 70.0551 171.907 69.9515 171.992 69.9413C172.077 69.931 172.157 70.0171 172.172 70.1339Z" fill="#080435"/>
<path d="M177.722 69.4526C177.722 69.4526 176.907 71.2084 175.75 71.3369C175.75 71.3369 176.685 69.9985 174.715 69.184C174.715 69.184 176.524 68.8994 177.722 69.4526Z" fill="#131F2D"/>
<path d="M176.091 70.4217C175.844 70.5793 175.53 70.5267 175.39 70.3063C175.249 70.086 175.335 69.7794 175.583 69.6233C175.83 69.4656 176.144 69.5182 176.285 69.7386C176.426 69.9575 176.339 70.264 176.091 70.4217Z" fill="#FFC3BD"/>
<path d="M174.715 69.1836C174.715 69.1836 174.873 70.6578 174.572 70.9351C174.272 71.2139 172.287 71.3335 171.362 70.9759C171.346 71.9217 172.014 72.7581 172.95 72.9143C173.26 72.9668 173.579 72.9668 173.897 72.9113C174.545 72.7989 175.176 72.5304 175.443 71.9305C175.525 71.7481 175.288 70.6242 175.288 70.6242C175.288 70.6242 175.199 69.9645 175.584 69.6215C175.582 69.6229 175.139 69.2245 174.715 69.1836Z" fill="#131F2D"/>
<path d="M171.65 65.8211C171.645 65.8211 171.637 65.8211 171.63 65.8211L171.631 65.7554C171.637 65.7554 171.643 65.7554 171.649 65.7554C171.955 65.7554 171.981 65.5087 171.982 65.4971L172.048 65.5029C172.05 65.5073 172.016 65.8211 171.65 65.8211Z" fill="#131F2D"/>
<path d="M172.311 67.9459C172.307 67.9444 171.928 67.8335 171.545 67.6277C171.036 67.3533 170.753 67.0366 170.726 66.7111C170.707 66.4848 170.748 66.3316 170.848 66.2455C171.007 66.1083 171.283 66.1725 171.528 66.2294C171.564 66.2382 171.599 66.2455 171.633 66.2528L171.626 66.2849C171.592 66.2776 171.555 66.2688 171.52 66.2601C171.283 66.2046 171.016 66.1433 170.87 66.2688C170.777 66.3476 170.742 66.4907 170.758 66.7067C170.82 67.4686 172.304 67.9079 172.319 67.9123L172.311 67.9459Z" fill="white"/>
<path d="M175.233 66.4004C174.068 66.4004 173.502 65.7406 173.496 65.7333L173.522 65.7114C173.53 65.7202 174.227 66.5317 175.675 66.3361L175.679 66.3697C175.522 66.3901 175.372 66.4004 175.233 66.4004Z" fill="white"/>
<path d="M172.744 71.8757C172.345 71.8757 172.017 71.7312 171.997 71.7225C171.966 71.7093 171.953 71.6728 171.966 71.6422C171.979 71.6115 172.016 71.5984 172.046 71.6115C172.052 71.6144 172.712 71.9035 173.263 71.6466C173.293 71.6334 173.329 71.6451 173.344 71.6757C173.358 71.7064 173.345 71.7429 173.314 71.756C173.124 71.8451 172.927 71.8757 172.744 71.8757Z" fill="#FFC3BD"/>
<path d="M186.332 88.4789C186.189 88.4789 186.046 88.4118 185.924 88.2833C185.79 88.1418 185.695 87.9418 185.658 87.7185C185.621 87.4952 185.646 87.2748 185.728 87.0982C185.816 86.9099 185.956 86.7917 186.125 86.7639C186.293 86.7362 186.464 86.8033 186.607 86.9537C186.742 87.0952 186.837 87.2952 186.873 87.5185C186.951 87.99 186.742 88.4176 186.407 88.4731C186.382 88.476 186.357 88.4789 186.332 88.4789ZM186.198 86.9201C186.182 86.9201 186.166 86.9216 186.151 86.9245C186.037 86.9435 185.939 87.0296 185.876 87.1668C185.807 87.3142 185.787 87.501 185.819 87.6922C185.851 87.8834 185.93 88.0527 186.043 88.171C186.148 88.2804 186.268 88.3315 186.382 88.3125C186.625 88.2731 186.777 87.9214 186.715 87.5448C186.683 87.3536 186.604 87.1843 186.492 87.0661C186.4 86.9697 186.297 86.9201 186.198 86.9201Z" fill="#EC865C"/>
<path d="M166.287 80.0793C166.282 80.0793 166.277 80.0793 166.272 80.0778C166.243 80.0705 166.227 80.0399 166.234 80.0107C166.511 79.0094 167.439 77.76 167.449 77.7484C167.467 77.7235 167.502 77.7192 167.525 77.7367C167.549 77.7542 167.555 77.7878 167.537 77.8126C167.528 77.8243 166.611 79.059 166.339 80.0399C166.332 80.0647 166.31 80.0793 166.287 80.0793Z" fill="#131F2D"/>
<path d="M175.021 109.455C175.013 109.409 174.279 104.867 173.776 103.247C173.278 101.643 171.132 100.295 171.11 100.28L171.167 100.188C171.189 100.201 173.368 101.572 173.879 103.214C174.385 104.841 175.119 109.391 175.126 109.436L175.021 109.455Z" fill="#131F2D"/>
<path d="M186.302 98.7961C186.302 98.7961 185.372 98.2312 185.087 99.3449C184.625 101.155 185.22 105.411 186.08 100.762C186.097 100.67 185.751 103.592 186.396 103.404C187.041 103.216 187.231 100.61 187.231 100.61C187.231 100.61 187.111 103.391 187.664 103.017C188.216 102.643 188.506 100.828 188.506 100.828C188.506 100.828 188.186 103.154 188.876 102.801C189.347 102.56 189.313 100.632 189.334 99.9623C189.353 99.3288 188.95 99.1113 188.336 99.1361C188.336 99.1361 187.71 98.8063 187.314 98.9245C187.162 98.9698 187.017 98.8224 186.906 98.8048C186.695 98.7727 186.302 98.7961 186.302 98.7961Z" fill="#FFC3BD"/>
<path d="M147.743 79.75C147.743 79.75 143.918 83.2325 144.429 88.2622C144.894 92.8364 151.845 84.6965 151.845 84.6965L147.743 79.75Z" fill="#FFC3BD"/>
<path d="M153.223 127.889C153.223 127.889 153.191 129.153 152.328 129.509C151.465 129.865 148.962 130.188 149.898 131.001C150.434 131.468 152.963 131.166 153.676 131.166C154.39 131.166 155.061 131.474 155.591 131.001C156.174 130.48 155.591 127.889 155.591 127.889C155.591 127.889 154.975 128.207 154.421 128.193C153.621 128.172 153.223 127.889 153.223 127.889Z" fill="#131F2D"/>
<path d="M160.062 127.889C160.062 127.889 160.03 129.153 159.167 129.509C158.303 129.865 155.801 130.188 156.737 131.001C157.273 131.468 159.802 131.166 160.515 131.166C161.229 131.166 161.9 131.474 162.43 131.001C163.013 130.48 162.43 127.889 162.43 127.889C162.43 127.889 161.814 128.207 161.26 128.193C160.461 128.172 160.062 127.889 160.062 127.889Z" fill="#131F2D"/>
<path d="M146.804 93.2329C146.804 93.2329 146.644 98.5253 148.35 108.677C149.581 116.005 151.034 123.39 151.747 126.93C152.001 128.197 153.077 129.122 154.351 129.173L155.036 129.201C156.413 129.256 157.532 128.083 157.431 126.689L155.701 102.736L155.274 94.853L146.804 93.2329Z" fill="#407BFF"/>
<path d="M162.403 97.8888C162.324 98.5325 158.648 98.4551 154.147 97.8903C149.645 97.3254 146.14 96.3592 146.219 95.7155C146.298 95.0719 149.929 94.9931 154.432 95.5579C158.932 96.1228 162.481 97.2451 162.403 97.8888Z" fill="#131F2D"/>
<path d="M152.535 96.1589L158.32 126.656C158.563 127.934 159.609 128.92 160.921 129.108L161.492 129.19C162.842 129.384 164.03 128.32 163.949 126.988L162.256 98.8095C162.222 98.4723 162.003 98.1804 161.684 98.0476C159.961 97.3266 152.515 94.9256 152.535 96.1589Z" fill="#407BFF"/>
<path d="M162.281 80.6635C162.281 80.6635 159.62 76.7198 155.064 76.8818C150.509 77.0438 147.069 82.9726 146.217 95.716C146.217 95.716 153.677 94.0959 162.414 97.8761C162.416 97.8761 164.282 85.8566 162.281 80.6635Z" fill="#EAEAEA"/>
<path d="M164.921 82.4744L160.87 82.1139C160.87 82.1139 152.574 82.9356 150.372 82.5401C148.17 82.1445 147.348 79.9216 147.348 79.9216C147.348 79.9216 149.217 77.6228 153.908 76.9878C154.285 76.9368 154.66 76.9105 155.063 76.8813C155.739 76.8331 156.195 76.8463 156.861 76.8944C164.779 77.4797 164.921 82.4744 164.921 82.4744Z" fill="#EAEAEA"/>
<path d="M156.872 119.454L154.199 104.451C153.734 103.054 152.779 101.888 151.51 101.168L151.589 101.028C152.895 101.77 153.877 102.97 154.354 104.406L154.357 104.417L157.032 119.426L156.872 119.454Z" fill="#020202"/>
<path d="M164.906 82.6771C164.688 83.2273 163.558 82.9456 161.55 82.2027C159.542 81.4612 158.747 81.0949 158.965 80.5446C159.182 79.9944 160.269 79.9345 162.281 80.6629C163.758 81.1971 165.124 82.1254 164.906 82.6771Z" fill="#131F2D"/>
<path d="M158.782 97.1911C158.782 97.1911 149.797 95.4907 146.884 96.2934L148.28 98.3441L153.473 98.6346L158.782 97.1911Z" fill="#407BFF"/>
<path d="M151.698 99.0421C161.475 92.9981 163.832 82.8906 163.923 82.4732C163.923 82.4732 163.978 81.8602 162.291 81.2384C160.4 80.5422 159.568 80.8545 159.568 80.8545C159.266 81.3464 158.477 84.1692 156.959 87.0942C155.578 89.7549 154.882 92.6609 150.654 95.8238L151.698 99.0421Z" fill="#FFC3BD"/>
<path d="M148.289 87.1086L153.881 92.1397C153.429 93.0884 154.273 95.3114 152.354 94.6969C150.436 94.0824 145.007 92.4127 144.536 88.8265C144.147 85.8592 146.97 85.7921 148.289 87.1086Z" fill="#FFC3BD"/>
<path d="M153.361 92.0239C153.361 92.0239 156.206 92.6034 156.771 93.3886C157.335 94.1739 157.457 95.6014 157.002 95.1868C156.547 94.7738 156.114 94.0863 156.114 94.0863C156.114 94.0863 156.97 95.597 156.527 95.6422C156.084 95.6875 155.352 94.3651 155.352 94.3651C155.352 94.3651 156.225 96.2436 155.793 96.1516C155.36 96.0597 154.706 94.6278 154.706 94.6278C154.706 94.6278 155.447 96.4085 154.947 96.2903C154.447 96.172 154.343 94.8146 153.9 94.8599C153.457 94.9051 152.069 95.4729 151.793 94.2658L153.361 92.0239Z" fill="#FFC3BD"/>
<path d="M156.001 93.8981C155.99 93.8981 155.978 93.8923 155.971 93.882C155.968 93.8777 155.706 93.4792 155.424 93.4719C155.403 93.4719 155.389 93.4544 155.389 93.4354C155.389 93.4164 155.405 93.4004 155.424 93.4004C155.424 93.4004 155.424 93.4004 155.425 93.4004C155.746 93.4091 156.019 93.8266 156.031 93.8441C156.041 93.8602 156.037 93.882 156.02 93.8937C156.015 93.8966 156.009 93.8981 156.001 93.8981Z" fill="#EF6343"/>
<path d="M155.227 94.1682C155.213 94.1682 155.202 94.1624 155.196 94.1492C155.193 94.1449 154.96 93.7377 154.554 93.6267C154.535 93.6209 154.523 93.6019 154.529 93.583C154.535 93.564 154.554 93.5523 154.573 93.5582C155.009 93.6778 155.248 94.0982 155.259 94.1157C155.269 94.1332 155.262 94.1551 155.246 94.1638C155.238 94.1668 155.232 94.1682 155.227 94.1682Z" fill="#EF6343"/>
<path d="M154.613 94.5393C154.6 94.5393 154.588 94.5321 154.581 94.5204C154.578 94.516 154.307 94.0168 154.006 94.011C153.985 94.011 153.971 93.9949 153.971 93.9745C153.971 93.9555 153.988 93.9409 154.007 93.9395C154.35 93.9468 154.632 94.4649 154.644 94.4868C154.652 94.5043 154.646 94.5262 154.629 94.535C154.624 94.5379 154.619 94.5393 154.613 94.5393Z" fill="#EF6343"/>
<path d="M154.991 96.3358C154.975 96.3358 154.958 96.3343 154.939 96.3299C154.673 96.2672 154.519 95.8964 154.371 95.5389C154.232 95.2002 154.099 94.8791 153.903 94.901L153.843 94.9069C153.355 94.9579 152.211 95.0776 151.563 94.4763L151.612 94.4237C152.236 95.0032 153.356 94.885 153.836 94.8353L153.897 94.8295C154.147 94.8062 154.289 95.1477 154.439 95.5111C154.579 95.8527 154.725 96.2059 154.956 96.2599C155.012 96.273 155.037 96.2555 155.048 96.2409C155.19 96.0745 154.902 95.1959 154.672 94.6471L154.738 94.6179C154.744 94.6325 155.389 96.0336 155.799 96.1212C155.834 96.1285 155.847 96.1183 155.854 96.1095C155.977 95.9563 155.591 94.9696 155.319 94.3843L155.383 94.3522C155.584 94.7142 156.174 95.6469 156.522 95.6104C156.559 95.606 156.582 95.5914 156.598 95.5622C156.72 95.3287 156.268 94.434 156.084 94.107L156.145 94.0705C156.15 94.0778 156.581 94.758 157.027 95.1637C157.096 95.2265 157.147 95.2426 157.18 95.2148C157.341 95.0733 157.211 94.0647 156.743 93.4137C156.304 92.8036 154.592 92.3453 153.876 92.1775L153.892 92.1074C154.615 92.2767 156.348 92.7409 156.802 93.3714C157.242 93.9844 157.445 95.0762 157.229 95.2688C157.183 95.3082 157.104 95.3316 156.98 95.2177C156.768 95.0251 156.56 94.7711 156.398 94.5566C156.575 94.9288 156.762 95.4075 156.664 95.5958C156.638 95.6469 156.593 95.6761 156.533 95.6833C156.242 95.7096 155.853 95.2163 155.594 94.8295C155.793 95.3097 156.041 95.9957 155.913 96.1548C155.892 96.1796 155.854 96.2073 155.787 96.1927C155.525 96.1373 155.196 95.6337 154.964 95.2163C155.102 95.6337 155.233 96.1387 155.105 96.2891C155.082 96.311 155.048 96.3358 154.991 96.3358Z" fill="#EF6343"/>
<path d="M148.32 95.9071C148.958 95.8531 150.733 95.5247 151.371 95.2619C151.627 95.1569 152.602 97.7125 152.602 97.7125C152.602 97.7125 152.212 98.4817 151.349 99.4552C151.309 99.5165 151.26 99.5793 151.195 99.6406C151.118 99.715 151.017 99.8172 150.901 99.931C150.35 100.48 149.451 101.347 149.063 101.231C148.374 101.027 150.085 99.6887 150.085 99.6887C150.085 99.6887 148.724 100.708 148.114 100.604C147.629 100.522 148.714 99.3852 149.177 98.9239C149.173 98.9196 149.169 98.9152 149.164 98.9123C148.673 99.3224 147.455 100.28 147.019 100.054C146.525 99.7982 148.165 98.3956 148.464 98.1402C148.462 98.1387 148.461 98.1372 148.459 98.1343C145.331 100.346 146.864 98.038 148.272 96.8806C147.883 96.8149 147.096 96.5843 147.108 96.3464C147.121 96.0734 148.044 95.9304 148.32 95.9071Z" fill="#FFC3BD"/>
<path d="M147.513 86.6067C146.937 86.3294 145.559 86.4754 145.544 86.4768L145.537 86.4053C145.594 86.3995 146.95 86.2565 147.543 86.541L147.513 86.6067Z" fill="#EF6343"/>
<path d="M158.657 91.4237C158.598 91.4237 158.54 91.412 158.484 91.3886C158.369 91.3405 158.281 91.2456 158.228 91.1157C158.151 90.9245 158.161 90.6881 158.257 90.4633C158.423 90.0765 158.794 89.8605 159.084 89.9831C159.199 90.0313 159.287 90.1261 159.34 90.256C159.417 90.4472 159.406 90.6837 159.31 90.9085C159.176 91.2223 158.908 91.4237 158.657 91.4237ZM158.908 90.04C158.693 90.04 158.459 90.221 158.341 90.4998C158.256 90.6983 158.246 90.9172 158.313 91.0821C158.357 91.1887 158.429 91.266 158.521 91.3054C158.765 91.4091 159.082 91.2149 159.227 90.8734C159.312 90.6749 159.322 90.456 159.256 90.2911C159.212 90.1845 159.141 90.1072 159.049 90.0678C159.003 90.0488 158.957 90.04 158.908 90.04Z" fill="#EF6343"/>
<path d="M152.232 75.5384C152.208 75.5252 151.64 75.2158 151.582 74.7473C151.552 74.5065 151.665 74.2671 151.917 74.0394C152.031 73.9372 152.134 73.8438 152.23 73.7592C152.892 73.1695 153.114 72.971 153.146 72.377L153.202 72.3799C153.168 72.9958 152.923 73.2147 152.266 73.8C152.171 73.8847 152.067 73.9766 151.953 74.0803C151.715 74.2948 151.609 74.5181 151.636 74.74C151.69 75.1808 152.251 75.4858 152.257 75.4887L152.232 75.5384Z" fill="#131F2D"/>
<path d="M153.175 72.3789C153.175 72.3789 153.134 73.3349 152.258 74.1085C151.382 74.8821 151.866 75.7549 152.802 75.6206C153.738 75.4863 153.774 76.6043 155 76.327C156.225 76.0497 153.175 72.3789 153.175 72.3789Z" fill="#131F2D"/>
<path d="M156.135 76.2174L155.96 75.2337L155.895 74.8133L155.517 72.3408L155.06 74.6717L154.787 76.0715L154.709 76.4699C154.645 76.7954 154.337 76.9238 153.997 76.9764C153.997 76.9764 153.345 77.7003 154.006 78.1192C154.783 78.6111 156.925 77.5967 157.627 76.9676C157.625 76.9676 156.207 76.6801 156.135 76.2174Z" fill="#FFC3BD"/>
<path d="M155.973 75.1973C155.969 75.2104 155.964 75.2221 155.96 75.2338C155.701 75.9548 154.792 76.0759 154.792 76.0759L154.787 76.0701L155.061 74.6704C155.334 74.6499 155.714 74.6572 155.896 74.812C155.991 74.8951 156.03 75.0177 155.973 75.1973Z" fill="#131F2D"/>
<path d="M153.087 72.0694C153.487 70.6069 154.808 69.6932 156.036 70.0289C157.265 70.3646 157.935 71.8213 157.534 73.2852C157.133 74.7491 155.813 75.6614 154.584 75.3257C153.356 74.99 152.686 73.5319 153.087 72.0694Z" fill="#FFC3BD"/>
<path d="M157.125 73.6016C156.81 73.765 156.451 73.692 156.324 73.4395C156.197 73.187 156.35 72.8499 156.665 72.6864C156.981 72.5229 157.339 72.5959 157.466 72.8484C157.595 73.1009 157.441 73.4395 157.125 73.6016Z" fill="#FFC3BD"/>
<path d="M155.088 72.6446C155.075 72.6373 155.065 72.6227 155.062 72.6066C155.059 72.5789 155.078 72.5541 155.107 72.5512C155.125 72.5497 155.511 72.4738 155.723 72.8708C155.736 72.8956 155.727 72.9263 155.702 72.9394C155.678 72.9526 155.65 72.9394 155.631 72.9175C155.439 72.703 155.133 72.6504 155.119 72.6519C155.109 72.6519 155.097 72.6489 155.088 72.6446Z" fill="#080435"/>
<path d="M155.34 73.2898C155.312 73.4081 155.217 73.4854 155.129 73.4635C155.042 73.4416 154.992 73.3293 155.021 73.2125C155.05 73.0957 155.144 73.0169 155.232 73.0388C155.319 73.0607 155.369 73.1731 155.34 73.2898Z" fill="#080435"/>
<path d="M153.214 72.4057C153.198 72.4028 153.183 72.394 153.176 72.3794C153.161 72.3546 153.17 72.324 153.196 72.3108C153.211 72.3035 153.536 72.089 153.888 72.3809C153.91 72.3999 153.914 72.4305 153.895 72.4524C153.878 72.4743 153.847 72.4714 153.822 72.4583C153.563 72.3298 153.261 72.3926 153.248 72.3999C153.236 72.4057 153.224 72.4072 153.214 72.4057Z" fill="#080435"/>
<path d="M153.7 72.9125C153.72 73.0322 153.664 73.1402 153.575 73.1533C153.486 73.1664 153.397 73.0789 153.376 72.9592C153.356 72.8395 153.411 72.7315 153.501 72.7183C153.59 72.7067 153.679 72.7928 153.7 72.9125Z" fill="#080435"/>
<path d="M154.96 70.251C154.96 70.251 154.755 71.1836 155.901 71.6638C157.046 72.1455 157.734 72.8548 157.348 73.6371C156.962 74.4209 154.575 75.6119 155.8 76.6614C157.026 77.7108 157.016 75.9257 158.463 76.6292C159.911 77.3327 160.775 75.9053 160.038 74.4764C159.301 73.0475 160.555 70.1415 156.577 69.1986C152.599 68.2558 153.211 71.6872 153.211 71.6872C153.211 71.6872 154.685 71.2668 154.96 70.251Z" fill="#131F2D"/>
<path d="M156.16 76.9432C155.893 76.7447 155.758 76.5199 155.758 76.2762C155.761 75.6136 156.757 74.8896 157.635 74.2489C157.867 74.0796 158.086 73.9205 158.284 73.7658C158.819 73.3454 159.028 72.7484 158.843 72.1705C158.63 71.5122 157.956 71.0612 157.123 71.0218C156.299 70.9838 155.809 70.6817 155.543 70.4336C155.254 70.165 155.162 69.9096 155.157 69.8994L155.188 69.8877C155.189 69.8906 155.283 70.1475 155.567 70.4102C155.828 70.6525 156.313 70.9503 157.124 70.9882C157.971 71.0276 158.658 71.4874 158.873 72.1588C159.063 72.7514 158.85 73.3615 158.303 73.7906C158.104 73.9467 157.885 74.1058 157.654 74.2751C156.782 74.91 155.793 75.6296 155.79 76.2762C155.789 76.5127 155.916 76.7228 156.178 76.917L156.16 76.9432Z" fill="white"/>
<path d="M152.665 74.0761C152.364 73.8659 152.168 73.4295 152.142 72.9084C152.098 72.0604 152.516 71.2431 153.073 71.0884C153.281 71.0285 153.486 71.0665 153.666 71.1905C153.967 71.4007 154.163 71.8371 154.189 72.3567C154.233 73.2047 153.815 74.0221 153.258 74.1782C153.133 74.2133 153.009 74.2147 152.891 74.1826C152.813 74.1622 152.737 74.1257 152.665 74.0761ZM154.087 72.3625C154.062 71.8721 153.882 71.4649 153.607 71.2723C153.451 71.1657 153.278 71.1351 153.104 71.1832C152.589 71.3277 152.203 72.1013 152.246 72.9055C152.271 73.3944 152.45 73.8031 152.725 73.9958C152.88 74.1009 153.054 74.133 153.228 74.0848C153.743 73.9389 154.129 73.1668 154.087 72.3625Z" fill="#407BFF"/>
<g opacity="0.3">
<path opacity="0.3" d="M156.901 72.5557C156.871 73.3599 156.364 74.0941 155.767 74.1948C155.171 74.2955 154.708 73.7248 154.738 72.9192C154.767 72.1149 155.274 71.3808 155.871 71.2801C156.469 71.1794 156.93 71.7501 156.901 72.5557Z" fill="white"/>
</g>
<g opacity="0.3">
<path opacity="0.3" d="M154.194 72.4268C154.165 73.2354 153.701 73.9944 153.157 74.1214C152.615 74.2484 152.198 73.6966 152.227 72.888C152.256 72.0794 152.72 71.3205 153.264 71.1935C153.808 71.0665 154.223 71.6182 154.194 72.4268Z" fill="white"/>
</g>
<path d="M155.024 74.0033C154.726 73.7493 154.565 73.3173 154.581 72.8152C154.608 71.9541 155.165 71.1688 155.821 71.0623C156.086 71.02 156.335 71.09 156.542 71.2652C156.839 71.5191 157 71.9512 156.984 72.4518C156.958 73.3144 156.402 74.0996 155.744 74.2047C155.614 74.2266 155.486 74.2208 155.368 74.1887C155.244 74.1537 155.128 74.0909 155.024 74.0033ZM155.837 71.1601C155.226 71.2593 154.708 72.0037 154.682 72.8196C154.667 73.2852 154.82 73.6997 155.09 73.9303C155.273 74.0807 155.492 74.142 155.723 74.1084C156.335 74.0092 156.854 73.2662 156.879 72.4489C156.893 71.9862 156.741 71.5717 156.472 71.3411C156.38 71.2623 156.277 71.2083 156.168 71.1776C156.064 71.147 155.953 71.1426 155.837 71.1601Z" fill="#407BFF"/>
<path d="M154.011 72.6813C154.031 72.6871 154.055 72.6857 154.075 72.6769C154.087 72.6711 154.376 72.5558 154.768 72.744C154.815 72.7645 154.874 72.7484 154.897 72.7032C154.92 72.6579 154.9 72.601 154.853 72.5791C154.382 72.3427 154.012 72.4989 153.996 72.5047C153.949 72.5266 153.927 72.5806 153.951 72.6273C153.961 72.6565 153.984 72.6755 154.011 72.6813Z" fill="#407BFF"/>
<path d="M154.605 74.4171C154.226 74.4171 153.879 74.2594 153.86 74.2507C153.83 74.2361 153.817 74.2011 153.831 74.1704C153.846 74.1398 153.881 74.1266 153.912 74.1412C153.917 74.1441 154.498 74.4083 154.943 74.2405C154.973 74.2288 155.008 74.2448 155.022 74.2755C155.033 74.3061 155.017 74.3412 154.987 74.3543C154.861 74.3996 154.731 74.4171 154.605 74.4171Z" fill="#131F2D"/>
<path d="M148.452 77.8165C148.452 77.8165 147.462 78.358 147.963 79.2571C148.602 80.4029 151.449 81.9763 149.563 79.1958C149.516 79.1272 150.932 80.8539 151.218 80.327C151.505 79.8001 150.192 78.3711 150.192 78.3711C150.192 78.3711 151.837 80.0759 151.947 79.4906C152.056 78.9053 151.135 77.6997 151.135 77.6997C151.135 77.6997 152.448 79.1973 152.559 78.5142C152.671 77.8311 151.518 77.0648 151.104 76.6299C150.712 76.2183 150.32 76.3365 149.95 76.7423C149.95 76.7423 149.347 76.932 149.171 77.2575C149.104 77.383 148.918 77.3815 148.838 77.4414C148.684 77.5523 148.452 77.8165 148.452 77.8165Z" fill="#FFC3BD"/>
<path d="M149.967 80.8036C149.436 80.8036 148.29 79.9556 147.915 79.2827C147.901 79.2564 147.909 79.2229 147.936 79.2083C147.962 79.1937 147.996 79.2024 148.01 79.2287C148.392 79.9118 149.515 80.6941 149.967 80.6941C149.968 80.6941 149.97 80.6941 149.973 80.6941C150.05 80.6926 150.099 80.6693 150.123 80.6226C150.179 80.516 150.175 80.1935 149.518 79.2258C149.502 79.2024 149.506 79.1674 149.528 79.1499C149.569 79.1178 149.594 79.1455 149.645 79.2039C150.568 80.2548 150.935 80.3861 151.07 80.3701C151.115 80.3657 151.146 80.3423 151.169 80.3C151.39 79.8957 150.508 78.7967 150.15 78.407C150.129 78.3851 150.131 78.3515 150.153 78.3296C150.175 78.3092 150.208 78.3107 150.23 78.3311C150.723 78.8419 151.596 79.6257 151.84 79.5527C151.859 79.5469 151.883 79.5338 151.892 79.4783C151.995 78.9222 151.099 77.7414 151.09 77.7298C151.073 77.7064 151.076 77.6728 151.099 77.6539C151.122 77.6349 151.155 77.6378 151.175 77.6597C151.535 78.0698 152.193 78.6945 152.422 78.6288C152.439 78.6245 152.487 78.6113 152.504 78.5004C152.585 78.0071 151.932 77.4393 151.456 77.0233C151.298 76.8861 151.162 76.7664 151.062 76.6628C151.042 76.6409 151.042 76.6059 151.064 76.5855C151.086 76.565 151.121 76.565 151.141 76.5869C151.238 76.6876 151.378 76.8102 151.527 76.9401C152.051 77.397 152.702 77.9647 152.611 78.5164C152.586 78.6639 152.512 78.7149 152.452 78.7325C152.235 78.7938 151.848 78.4873 151.539 78.1953C151.789 78.6011 152.063 79.1455 151.997 79.4943C151.978 79.5994 151.916 79.6388 151.868 79.6534C151.804 79.6724 151.609 79.7308 150.846 79.0652C150.821 79.0433 150.796 79.0215 150.773 79.001C151.103 79.4593 151.431 80.0373 151.263 80.3482C151.222 80.4226 151.159 80.4664 151.078 80.4752C150.849 80.5 150.463 80.2329 149.93 79.6783C150.21 80.1657 150.306 80.4971 150.216 80.6693C150.185 80.7277 150.118 80.7977 149.968 80.8006C149.971 80.8036 149.968 80.8036 149.967 80.8036Z" fill="#EF6343"/>
<path d="M163.084 85.1448C163.079 85.1448 163.076 85.1448 163.072 85.1433C163.053 85.1375 163.043 85.1171 163.049 85.0981L163.778 82.8971C163.784 82.8781 163.805 82.8679 163.824 82.8737C163.843 82.8795 163.853 82.9 163.847 82.9189L163.117 85.12C163.111 85.136 163.098 85.1448 163.084 85.1448Z" fill="#EF6343"/>
<path d="M97.0586 136.22V134.705L120.002 134.568L119.97 136.22H97.0586Z" fill="#F99013"/>
<path d="M97.9579 134.663C100.046 132.986 104.808 131.51 113.003 132.517C118.339 133.174 121.127 135.166 119.587 136.902C117.715 139.011 112.266 139.76 104.24 139.062C98.7169 138.582 95.3475 136.76 97.9579 134.663Z" fill="#F99013"/>
<path d="M97.9579 133.205C100.046 131.528 104.808 130.052 113.003 131.059C118.339 131.716 121.127 133.708 119.587 135.444C117.715 137.553 112.266 138.302 104.24 137.604C98.7169 137.124 95.3475 135.302 97.9579 133.205Z" fill="#FCC789"/>
<path d="M109.442 137.507C108.062 137.507 106.545 137.437 104.903 137.294C101.422 136.992 99.0401 136.078 98.6847 134.912C98.5151 134.357 98.7783 133.795 99.4656 133.242C100.586 132.341 104.087 130.359 112.392 131.381C115.648 131.781 117.958 132.787 118.418 134.005C118.598 134.48 118.488 134.961 118.099 135.399C116.867 136.786 113.854 137.507 109.442 137.507ZM99.6835 133.513C99.1176 133.967 98.8938 134.404 99.0167 134.81C99.3252 135.821 101.646 136.659 104.931 136.945C111.71 137.535 116.293 136.903 117.836 135.166C118.137 134.827 118.222 134.477 118.089 134.128C117.68 133.048 115.426 132.105 112.346 131.727C109.174 131.337 106.386 131.355 104.055 131.781C101.686 132.214 100.371 132.962 99.6835 133.513Z" fill="#657285"/>
<path d="M106.472 136.251L106.63 136.031C106.687 135.951 106.541 135.87 106.292 135.844C105.709 135.781 105.163 135.686 104.764 135.581C104.569 135.53 104.527 135.443 104.66 135.374L104.752 135.327C104.913 135.246 105.264 135.227 105.504 135.287C105.966 135.402 106.56 135.501 107.227 135.549C108.366 135.63 109.056 135.425 109.267 135.13C109.47 134.846 109.202 134.671 108.126 134.431C106.639 134.109 105.191 133.755 105.513 133.304C105.793 132.912 106.846 132.569 108.749 132.683C108.976 132.696 109.176 132.629 109.227 132.557L109.4 132.315C109.461 132.229 109.735 132.175 110.008 132.194C110.283 132.213 110.455 132.299 110.394 132.385L110.249 132.586C110.194 132.665 110.333 132.745 110.574 132.772C111.062 132.826 111.44 132.893 111.738 132.963C111.951 133.013 112.003 133.107 111.858 133.177L111.766 133.221C111.606 133.299 111.273 133.316 111.036 133.262C110.704 133.185 110.227 133.102 109.559 133.053C108.325 132.966 107.689 133.172 107.541 133.379C107.348 133.649 108.195 133.735 109.457 134.021C110.953 134.355 111.777 134.736 111.586 135.205C111.381 135.705 110.22 135.983 108.142 135.939C107.911 135.935 107.713 135.993 107.664 136.064L107.48 136.323C107.418 136.409 107.145 136.463 106.871 136.444L106.855 136.443C106.582 136.424 106.409 136.337 106.472 136.251Z" fill="#657285"/>
<path d="M60.7705 133.095V132.079L76.168 131.987L76.146 133.095H60.7705Z" fill="#F99013"/>
<path d="M61.3751 132.05C62.7761 130.925 65.9729 129.934 71.4715 130.611C75.0529 131.052 76.9233 132.389 75.8894 133.553C74.6332 134.969 70.9772 135.471 65.5897 135.003C61.884 134.682 59.6232 133.459 61.3751 132.05Z" fill="#F99013"/>
<path d="M61.2716 131.713C62.6726 130.588 65.8694 129.597 71.368 130.274C74.9494 130.715 76.8198 132.052 75.7859 133.216C74.5297 134.632 70.8737 135.134 65.4862 134.666C61.7805 134.343 59.5197 133.12 61.2716 131.713Z" fill="#FCC789"/>
<path d="M69.0815 133.96C68.1558 133.96 67.1365 133.913 66.0354 133.817C63.6999 133.614 62.1015 133.001 61.8617 132.219C61.7476 131.846 61.9246 131.468 62.3867 131.098C63.1384 130.493 65.4884 129.164 71.0601 129.848C73.2449 130.117 74.7951 130.791 75.1051 131.61C75.225 131.928 75.1519 132.251 74.8916 132.546C74.0639 133.475 72.0429 133.96 69.0815 133.96ZM62.5329 131.28C62.1527 131.585 62.0036 131.878 62.0855 132.15C62.2931 132.829 63.8506 133.392 66.0544 133.583C70.6039 133.979 73.6807 133.554 74.7146 132.389C74.9165 132.162 74.9735 131.928 74.8843 131.693C74.6093 130.968 73.0973 130.336 71.0309 130.082C69.6065 129.905 64.7806 129.475 62.5329 131.28Z" fill="#657285"/>
<path d="M67.0879 133.117L67.1932 132.968C67.2312 132.914 67.1332 132.86 66.9665 132.843C66.5746 132.801 66.209 132.736 65.9399 132.666C65.8098 132.633 65.7805 132.573 65.8697 132.528L65.9311 132.497C66.0394 132.442 66.2748 132.43 66.4357 132.469C66.7457 132.547 67.1435 132.614 67.5924 132.644C68.3572 132.698 68.8194 132.561 68.9612 132.363C69.0972 132.172 68.9173 132.053 68.1964 131.893C67.1976 131.677 66.2266 131.439 66.443 131.137C66.6316 130.873 67.338 130.643 68.6146 130.719C68.7667 130.728 68.9012 130.683 68.9349 130.636L69.0504 130.474C69.0914 130.416 69.2742 130.379 69.4584 130.392C69.6427 130.405 69.7582 130.462 69.7173 130.521L69.6207 130.657C69.5827 130.709 69.6763 130.763 69.8386 130.781C70.1662 130.817 70.4192 130.862 70.6195 130.909C70.7629 130.943 70.798 131.005 70.7 131.054L70.6386 131.083C70.5318 131.135 70.3081 131.147 70.1487 131.11C69.9249 131.059 69.6061 131.002 69.1572 130.97C68.328 130.912 67.9024 131.051 67.803 131.189C67.6743 131.37 68.2417 131.429 69.0884 131.62C70.0931 131.845 70.6459 132.1 70.5172 132.414C70.3797 132.75 69.6003 132.936 68.2066 132.906C68.0516 132.903 67.92 132.942 67.8849 132.989L67.762 133.163C67.7211 133.221 67.5383 133.257 67.354 133.244L67.3438 133.243C67.1625 133.233 67.0469 133.174 67.0879 133.117Z" fill="#657285"/>
<path d="M75.9126 128.189L75.9023 126.487L101.689 126.196L101.662 128.053L75.9126 128.189Z" fill="#F99013"/>
<path d="M76.9127 126.434C79.2481 124.536 84.5917 122.85 93.8076 123.933C99.8093 124.64 102.955 126.863 101.235 128.821C99.1439 131.203 93.0267 132.078 84.0008 131.341C77.7915 130.834 73.9923 128.805 76.9127 126.434Z" fill="#F99013"/>
<path d="M76.9041 124.795C79.2395 122.898 84.5831 121.212 93.7991 122.295C99.8007 123.002 102.946 125.224 101.227 127.183C99.1353 129.564 93.0181 130.439 83.9923 129.702C77.7815 129.196 73.9837 127.167 76.9041 124.795Z" fill="#FCC789"/>
<path d="M89.5935 129.562C88.1077 129.562 86.4845 129.492 84.734 129.349C80.8206 129.029 78.1372 128.018 77.7306 126.71C77.5376 126.087 77.8286 125.453 78.5978 124.829C79.8511 123.811 83.7732 121.562 93.112 122.66C96.7738 123.09 99.3769 124.207 99.9019 125.573C100.107 126.104 99.9852 126.647 99.5524 127.141C98.1558 128.732 94.6855 129.562 89.5935 129.562ZM78.8464 125.131C78.2132 125.645 77.9646 126.137 78.1064 126.592C78.4589 127.727 81.0736 128.656 84.7662 128.956C92.3896 129.578 97.5357 128.841 99.2584 126.881C99.5948 126.498 99.6883 126.106 99.5363 125.713C99.0698 124.502 96.5296 123.455 93.0667 123.048C89.4999 122.629 86.3645 122.666 83.7483 123.159C81.0883 123.66 79.6142 124.508 78.8464 125.131Z" fill="#657285"/>
<path d="M75.9028 126.314L75.8926 124.612L101.677 124.321L101.651 126.178L75.9028 126.314Z" fill="#F99013"/>
<path d="M76.9029 124.559C79.2383 122.662 84.5819 120.976 93.7979 122.059C99.7996 122.766 102.945 124.989 101.225 126.947C99.1342 129.328 93.017 130.204 83.9911 129.467C77.7818 128.96 73.9825 126.931 76.9029 124.559Z" fill="#F99013"/>
<path d="M76.8943 122.92C79.2297 121.022 84.5733 119.337 93.7892 120.42C99.7909 121.126 102.936 123.349 101.217 125.308C99.1255 127.69 93.0084 128.564 83.9825 127.827C77.7717 127.32 73.9739 125.292 76.8943 122.92Z" fill="#FCC789"/>
<path d="M89.5838 127.687C88.098 127.687 86.4748 127.617 84.7243 127.474C80.8109 127.154 78.1274 126.142 77.7209 124.835C77.5278 124.211 77.8188 123.578 78.5881 122.953C79.8413 121.936 83.7635 119.685 93.1024 120.784C96.7642 121.215 99.3673 122.332 99.8923 123.698C100.097 124.229 99.9756 124.772 99.5428 125.265C98.1462 126.856 94.6759 127.687 89.5838 127.687ZM88.4212 120.884C86.7175 120.884 85.1528 121.016 83.7386 121.284C81.0785 121.784 79.6044 122.634 78.8367 123.257C78.2034 123.771 77.9549 124.263 78.0967 124.718C78.4492 125.853 81.0639 126.782 84.7579 127.082C92.3814 127.704 97.5276 126.967 99.2503 125.007C99.5866 124.624 99.6802 124.232 99.5281 123.839C99.0616 122.628 96.5214 121.581 93.0585 121.174C91.4177 120.98 89.869 120.884 88.4212 120.884Z" fill="#657285"/>
<path d="M78.3677 123.717L78.3574 122.015L104.144 121.725L104.117 123.58L78.3677 123.717Z" fill="#F99013"/>
<path d="M79.3677 121.962C81.7032 120.064 87.0467 118.379 96.2627 119.462C102.264 120.168 105.41 122.391 103.69 124.35C101.599 126.73 95.4818 127.606 86.4559 126.869C80.2466 126.362 76.4473 124.335 79.3677 121.962Z" fill="#F99013"/>
<path d="M79.3591 120.323C81.6946 118.425 87.0381 116.739 96.2541 117.822C102.256 118.529 105.401 120.752 103.682 122.711C101.59 125.093 95.4732 125.967 86.4473 125.23C80.2366 124.723 76.4387 122.696 79.3591 120.323Z" fill="#FCC789"/>
<path d="M92.0486 125.089C90.5628 125.089 88.9396 125.019 87.1891 124.876C83.2757 124.556 80.5923 123.545 80.1857 122.237C79.9927 121.614 80.2837 120.98 81.0529 120.356C82.3062 119.338 86.2283 117.089 95.5671 118.187C99.2289 118.617 101.832 119.734 102.357 121.1C102.562 121.631 102.44 122.174 102.007 122.668C100.611 124.26 97.1406 125.089 92.0486 125.089ZM81.3015 120.659C80.6683 121.173 80.4197 121.665 80.5616 122.12C80.914 123.256 83.5287 124.184 87.2213 124.485C94.8447 125.106 99.9908 124.369 101.714 122.409C102.05 122.027 102.143 121.634 101.991 121.242C101.525 120.03 98.9847 118.984 95.5218 118.576C91.955 118.158 88.8197 118.194 86.2034 118.686C83.5434 119.186 82.0693 120.036 81.3015 120.659Z" fill="#657285"/>
<path d="M76.1743 120.529L76.1641 118.828L101.95 118.537L101.924 120.394L76.1743 120.529Z" fill="#F99013"/>
<path d="M77.1744 118.775C79.5098 116.877 84.8534 115.192 94.0694 116.275C100.071 116.981 103.217 119.204 101.497 121.163C99.4056 123.543 93.2884 124.419 84.2626 123.682C78.0533 123.175 74.254 121.147 77.1744 118.775Z" fill="#F99013"/>
<path d="M77.1658 117.135C79.5012 115.238 84.8448 113.552 94.0608 114.635C100.062 115.341 103.208 117.564 101.488 119.523C99.397 121.905 93.2798 122.779 84.254 122.042C78.0432 121.536 74.2454 119.507 77.1658 117.135Z" fill="#FCC789"/>
<path d="M89.8552 121.903C88.3694 121.903 86.7462 121.833 84.9957 121.69C81.0824 121.37 78.3989 120.359 77.9923 119.051C77.7993 118.428 78.0904 117.794 78.8596 117.17C80.1128 116.152 84.0349 113.903 93.3737 115.001C97.0355 115.431 99.6386 116.548 100.164 117.914C100.368 118.445 100.247 118.988 99.8141 119.481C98.4175 121.072 94.9473 121.903 89.8552 121.903ZM79.1082 117.472C78.475 117.985 78.2263 118.477 78.3682 118.933C78.7206 120.068 81.3354 120.997 85.0279 121.297C92.6513 121.919 97.7974 121.182 99.5201 119.222C99.8565 118.839 99.9501 118.447 99.798 118.054C99.3315 116.843 96.7913 115.796 93.3284 115.389C89.7616 114.97 86.6263 115.006 84.0101 115.498C81.35 116 79.8759 116.848 79.1082 117.472Z" fill="#657285"/>
<path d="M86.7532 120.51L86.9287 120.26C86.993 120.17 86.8263 120.081 86.5485 120.051C85.8918 119.984 85.2791 119.881 84.8287 119.765C84.6108 119.71 84.5611 119.611 84.7117 119.533L84.8156 119.481C84.9969 119.387 85.3903 119.365 85.6594 119.431C86.1785 119.558 86.8468 119.666 87.5985 119.716C88.8781 119.799 89.6531 119.565 89.8885 119.233C90.1152 118.911 89.8125 118.716 88.6016 118.453C86.9272 118.099 85.2981 117.712 85.6579 117.202C85.9708 116.759 87.1524 116.368 89.2919 116.484C89.5478 116.499 89.7716 116.422 89.8286 116.341L90.0216 116.068C90.0903 115.97 90.396 115.908 90.7046 115.928C91.0131 115.949 91.2076 116.043 91.1389 116.141L90.978 116.369C90.9151 116.458 91.0716 116.547 91.3451 116.576C91.8935 116.633 92.319 116.708 92.6539 116.783C92.8952 116.839 92.9522 116.944 92.7899 117.024L92.6875 117.075C92.5091 117.163 92.1348 117.185 91.8686 117.125C91.4942 117.04 90.9575 116.948 90.2073 116.9C88.8195 116.81 88.1059 117.045 87.9406 117.278C87.7257 117.582 88.6777 117.675 90.0977 117.988C91.7809 118.354 92.7109 118.777 92.4974 119.306C92.2708 119.869 90.9678 120.189 88.6323 120.151C88.3735 120.146 88.1512 120.213 88.0957 120.294L87.8909 120.584C87.8222 120.682 87.5166 120.745 87.208 120.724L87.1905 120.723C86.879 120.702 86.6845 120.607 86.7532 120.51Z" fill="#657285"/>
<path d="M76.439 117.579L76.4287 115.877L102.214 115.587L102.187 117.443L76.439 117.579Z" fill="#F99013"/>
<path d="M77.439 115.824C79.7745 113.927 85.118 112.241 94.3341 113.324C100.336 114.03 103.481 116.253 101.762 118.212C99.6704 120.593 93.5532 121.468 84.5273 120.731C78.3179 120.225 74.5186 118.196 77.439 115.824Z" fill="#F99013"/>
<path d="M77.4304 114.186C79.7658 112.289 85.1094 110.603 94.3254 111.686C100.327 112.392 103.473 114.615 101.753 116.574C99.6616 118.956 93.5444 119.83 84.5186 119.093C78.3078 118.587 74.51 116.558 77.4304 114.186Z" fill="#FCC789"/>
<path d="M90.12 118.952C88.6342 118.952 87.0109 118.882 85.2604 118.739C81.3471 118.419 78.6635 117.408 78.257 116.099C78.064 115.476 78.355 114.844 79.1242 114.217C80.3775 113.2 84.2996 110.951 93.6385 112.049C97.3003 112.479 99.9034 113.596 100.428 114.962C100.633 115.493 100.512 116.036 100.079 116.529C98.6823 118.122 95.212 118.952 90.12 118.952ZM79.3728 114.522C78.7396 115.036 78.491 115.528 78.6328 115.983C78.9853 117.119 81.6001 118.047 85.2926 118.348C92.9161 118.97 98.0622 118.233 99.7849 116.272C100.121 115.89 100.215 115.497 100.063 115.105C99.5963 113.893 97.0561 112.847 93.5932 112.44C90.0264 112.021 86.891 112.057 84.2748 112.551C81.6147 113.05 80.1406 113.898 79.3728 114.522Z" fill="#657285"/>
<path d="M87.0179 117.558L87.1934 117.308C87.2577 117.218 87.091 117.128 86.8131 117.099C86.1565 117.032 85.5438 116.929 85.0934 116.813C84.8755 116.758 84.8257 116.658 84.9764 116.581L85.0802 116.529C85.2616 116.435 85.6549 116.413 85.924 116.479C86.4431 116.606 87.1114 116.714 87.8616 116.764C89.1412 116.847 89.9163 116.613 90.1518 116.28C90.3784 115.959 90.0757 115.764 88.8649 115.501C87.1904 115.146 85.5614 114.76 85.9211 114.25C86.234 113.807 87.4156 113.415 89.5551 113.532C89.811 113.547 90.0347 113.469 90.0918 113.389L90.2848 113.116C90.3536 113.018 90.6592 112.956 90.9677 112.976C91.2763 112.996 91.4708 113.091 91.4021 113.189L91.2412 113.417C91.1783 113.506 91.3348 113.595 91.6083 113.624C92.1567 113.681 92.5822 113.755 92.9171 113.831C93.1584 113.887 93.2154 113.992 93.0531 114.072L92.9507 114.123C92.7723 114.211 92.398 114.233 92.1318 114.173C91.7575 114.088 91.2208 113.996 90.4706 113.948C89.0828 113.858 88.3691 114.093 88.2039 114.326C87.9889 114.63 88.9409 114.723 90.3609 115.035C92.0441 115.402 92.9741 115.825 92.7606 116.353C92.534 116.917 91.231 117.236 88.8956 117.199C88.6367 117.194 88.4145 117.261 88.3589 117.342L88.1541 117.632C88.0854 117.73 87.7798 117.793 87.4712 117.772L87.4537 117.771C87.1436 117.75 86.9492 117.655 87.0179 117.558Z" fill="#657285"/>
<path d="M73.9458 113.887L73.9355 112.185L99.7219 111.895L99.6956 113.752L73.9458 113.887Z" fill="#F99013"/>
<path d="M74.9459 112.132C77.2813 110.235 82.6249 108.549 91.8409 109.632C97.8426 110.338 100.988 112.561 99.2684 114.52C97.1772 116.901 91.06 117.776 82.0341 117.039C75.8248 116.533 72.0255 114.504 74.9459 112.132Z" fill="#F99013"/>
<path d="M74.9373 110.494C77.2727 108.596 82.6163 106.91 91.8323 107.993C97.834 108.7 100.98 110.923 99.2598 112.881C97.1686 115.262 91.0514 116.138 82.0255 115.401C75.8147 114.894 72.0169 112.865 74.9373 110.494Z" fill="#FCC789"/>
<path d="M87.6268 115.26C86.141 115.26 84.5177 115.19 82.7672 115.047C78.8539 114.728 76.1704 113.716 75.7638 112.407C75.5708 111.784 75.8618 111.15 76.6311 110.526C77.8843 109.508 81.8065 107.259 91.1453 108.357C94.8071 108.787 97.4102 109.904 97.9352 111.27C98.1399 111.801 98.0185 112.344 97.5856 112.837C96.189 114.43 92.7188 115.26 87.6268 115.26ZM86.4642 108.457C84.7605 108.457 83.1957 108.59 81.7816 108.857C79.1215 109.358 77.6474 110.207 76.8797 110.831C76.2464 111.344 75.9978 111.836 76.1397 112.292C76.4921 113.427 79.1069 114.355 82.7994 114.656C90.4229 115.278 95.569 114.541 97.2917 112.581C97.6281 112.198 97.7216 111.806 97.5696 111.413C97.1031 110.201 94.5629 109.155 91.0999 108.748C89.4606 108.554 87.9134 108.457 86.4642 108.457Z" fill="#657285"/>
<path d="M78.3726 111.421L78.3623 109.719L104.149 109.429L104.122 111.285L78.3726 111.421Z" fill="#F99013"/>
<path d="M79.3726 109.666C81.708 107.769 87.0516 106.083 96.2676 107.166C102.269 107.873 105.415 110.096 103.695 112.054C101.604 114.435 95.4866 115.31 86.4608 114.573C80.2515 114.067 76.4522 112.038 79.3726 109.666Z" fill="#F99013"/>
<path d="M79.364 108.028C81.6994 106.13 87.043 104.445 96.259 105.528C102.261 106.234 105.406 108.457 103.686 110.416C101.595 112.796 95.478 113.672 86.4522 112.935C80.2414 112.428 76.4436 110.4 79.364 108.028Z" fill="#FCC789"/>
<path d="M92.0545 112.795C90.5687 112.795 88.9455 112.725 87.195 112.582C83.2816 112.262 80.5981 111.25 80.1916 109.943C79.9985 109.319 80.2896 108.686 81.0588 108.061C82.3121 107.044 86.2342 104.795 95.573 105.892C99.2349 106.323 101.838 107.439 102.363 108.806C102.568 109.337 102.446 109.88 102.013 110.373C100.615 111.964 97.1451 112.795 92.0545 112.795ZM81.3059 108.363C80.6727 108.877 80.4241 109.369 80.5659 109.824C80.9184 110.96 83.5331 111.888 87.2272 112.189C94.8506 112.811 99.9967 112.074 101.719 110.113C102.056 109.731 102.149 109.338 101.997 108.946C101.531 107.734 98.9906 106.688 95.5277 106.281C91.9609 105.862 88.8256 105.898 86.2093 106.391C83.5478 106.892 82.0737 107.74 81.3059 108.363Z" fill="#657285"/>
<path d="M88.9515 111.401L89.127 111.151C89.1913 111.061 89.0246 110.972 88.7467 110.943C88.0901 110.875 87.4774 110.772 87.027 110.656C86.8091 110.601 86.7593 110.502 86.91 110.424L87.0138 110.372C87.1952 110.278 87.5885 110.257 87.8576 110.322C88.3768 110.449 89.0451 110.557 89.7953 110.607C91.0749 110.69 91.85 110.457 92.0854 110.124C92.3121 109.803 92.0093 109.607 90.7985 109.344C89.124 108.99 87.495 108.603 87.8547 108.094C88.1677 107.65 89.3492 107.259 91.4887 107.375C91.7446 107.39 91.9684 107.313 92.0255 107.232L92.2185 106.959C92.2872 106.862 92.5929 106.799 92.9014 106.819C93.21 106.84 93.4045 106.935 93.3357 107.032L93.1749 107.26C93.112 107.349 93.2685 107.438 93.5419 107.467C94.0903 107.524 94.5159 107.599 94.8508 107.675C95.0921 107.73 95.1491 107.835 94.9868 107.915L94.8844 107.967C94.706 108.054 94.3316 108.076 94.0655 108.016C93.6911 107.931 93.1544 107.84 92.4042 107.791C91.0164 107.701 90.3027 107.936 90.1375 108.169C89.9225 108.473 90.8745 108.566 92.2945 108.879C93.9777 109.245 94.9078 109.668 94.6943 110.197C94.4676 110.76 93.1646 111.08 90.8292 111.042C90.5703 111.037 90.3481 111.105 90.2925 111.185L90.0878 111.475C90.019 111.573 89.7134 111.636 89.4048 111.615L89.3873 111.614C89.0773 111.594 88.8828 111.499 88.9515 111.401Z" fill="#657285"/>
<path d="M128.536 137.573C128.536 137.573 125.696 134.705 126.673 133.072C127.65 131.439 129.3 136.581 129.3 136.581C129.3 136.581 128.444 130.5 130.215 130.395C131.986 130.29 130.215 136.581 130.215 136.581C130.215 136.581 130.872 135.114 131.514 135.024C132.156 134.933 131.971 136.267 130.826 137.573H128.536Z" fill="#EAEAEA"/>
<path d="M128.74 137.646C128.605 137.511 125.476 134.314 126.612 132.415C126.792 132.115 127.007 131.978 127.253 132.005C127.743 132.061 128.317 132.827 128.962 134.284C129.16 134.727 129.334 135.172 129.47 135.539C129.313 133.949 129.132 130.782 130.012 129.708C130.205 129.473 130.441 129.346 130.711 129.33C130.975 129.314 131.192 129.409 131.356 129.61C132.147 130.591 131.429 134.033 131.035 135.642C131.33 135.17 131.748 134.641 132.175 134.58C132.378 134.551 132.539 134.627 132.629 134.793C132.884 135.263 132.526 136.458 131.488 137.644L131.331 137.508C132.352 136.343 132.636 135.24 132.446 134.892C132.397 134.803 132.32 134.77 132.203 134.786C131.653 134.863 131.011 136.044 130.811 136.492L130.616 136.422C130.621 136.409 131.008 135.024 131.268 133.509C131.609 131.526 131.583 130.223 131.194 129.741C131.074 129.593 130.92 129.525 130.723 129.537C130.508 129.55 130.328 129.65 130.172 129.841C129.059 131.198 129.772 136.384 129.781 136.436L129.579 136.482C129.209 135.327 128.064 132.307 127.228 132.213C127.067 132.194 126.924 132.296 126.788 132.523C125.733 134.287 128.854 137.471 128.885 137.503L128.74 137.646Z" fill="#364154"/>
<path d="M129.428 20.2282L129.325 20.2812L141.227 43.2169L141.329 43.1638L129.428 20.2282Z" fill="#131F2D"/>
<path d="M125.043 64.5899H122.248L81.2046 30.1209L46.622 64.5899H45.0967L81.2046 28.4365L125.043 64.5899Z" fill="#FCC789"/>
<path d="M107.939 69.4795H51.3604V69.5963H107.939V69.4795Z" fill="#657285"/>
<path d="M117.833 65.25H67.4355V65.3653H117.833V65.25Z" fill="#657285"/>
<path d="M75.0586 56.6836H59.0264V56.7989H75.0586V56.6836Z" fill="#657285"/>
<path d="M77.017 52.8481H62.3857V52.9635H77.017V52.8481Z" fill="#657285"/>
<path d="M96.989 43.1221H79.8906V43.2374H96.989V43.1221Z" fill="#657285"/>
<path d="M79.2732 104.781H51.46V104.898H79.2732V104.781Z" fill="#657285"/>
<path d="M68.4718 108.928H51.7158V109.045H68.4718V108.928Z" fill="#657285"/>
<path d="M58.2249 86.2295H51.7158V86.3462H58.2249V86.2295Z" fill="#657285"/>
<path d="M62.4469 90.5781H54.7285V90.6949H62.4469V90.5781Z" fill="#657285"/>
<path d="M131.085 95.2573C131.085 95.2573 132.247 92.7615 132.13 91.4975C132.015 90.2335 130.968 89.1257 130.387 89.911C129.806 90.6962 129.4 97.3211 131.085 95.2573Z" fill="#EAEAEA"/>
<path d="M131.011 113.473C131.011 113.473 129.579 111.087 127.978 109.537C126.377 107.987 125.738 106.072 124.691 106.247C123.644 106.422 126.666 111.097 127.131 112.328C127.596 113.558 128.737 116.502 129.882 116.655C131.027 116.805 131.925 115.479 131.011 113.473Z" fill="#EAEAEA"/>
</svg>
