<svg width="26" height="26" viewBox="0 0 26 26" fill="none" xmlns="http://www.w3.org/2000/svg">
<circle cx="13" cy="13" r="13" fill="#E9433F"/>
<path d="M19.5147 11.5869C19.6017 12.0472 19.6491 12.5285 19.6491 13.0307C19.6491 16.9593 16.9862 19.7527 12.9643 19.7527C12.0496 19.753 11.1439 19.5753 10.2988 19.2298C9.45376 18.8843 8.68592 18.3778 8.03917 17.7393C7.39242 17.1007 6.87945 16.3425 6.52956 15.5081C6.17967 14.6737 5.99972 13.7794 6 12.8763C5.99972 11.9733 6.17967 11.079 6.52956 10.2446C6.87945 9.41015 7.39242 8.652 8.03917 8.01342C8.68592 7.37484 9.45376 6.86834 10.2988 6.52287C11.1439 6.1774 12.0496 5.99972 12.9643 6C14.8447 6 16.416 6.68316 17.6215 7.79243L15.6583 9.73086V9.72597C14.9275 9.03861 14 8.68585 12.9643 8.68585C10.6664 8.68585 8.79873 10.6026 8.79873 12.8722C8.79873 15.141 10.6664 17.0619 12.9643 17.0619C15.0492 17.0619 16.4683 15.8849 16.7598 14.2685H12.9643V11.5869H19.5154H19.5147Z" fill="white"/>
</svg>
