<svg width="125" height="125" viewBox="0 0 125 125" fill="none" xmlns="http://www.w3.org/2000/svg">
<path d="M62.5002 53.7436C62.0705 53.7436 61.6508 53.7856 61.2432 53.8627L53.3642 38.9736C52.8493 38.0005 51.6429 37.629 50.67 38.1441C49.6969 38.6589 49.3255 39.8652 49.8405 40.8383L57.7182 55.7255C56.5304 56.9135 55.8359 58.4987 55.7525 60.1566C55.7212 60.7811 55.7806 61.4082 55.9043 61.962L49.151 65.808C48.1944 66.3529 47.8606 67.5701 48.4054 68.5267C48.773 69.1722 49.4464 69.5341 50.1395 69.5341C50.474 69.5341 50.8129 69.4497 51.1241 69.2724L57.8814 65.4241C59.0905 66.5588 60.7149 67.256 62.5 67.256C66.2253 67.256 69.2561 64.2251 69.2561 60.4998C69.2561 56.7745 66.2254 53.7436 62.5002 53.7436ZM62.5002 63.269C60.9696 63.269 59.7308 62.0202 59.7308 60.4998C59.7308 58.9538 60.9927 57.7305 62.5002 57.7305C64.027 57.7305 65.2693 58.9729 65.2693 60.4998C65.2692 62.0268 64.027 63.269 62.5002 63.269Z" fill="white"/>
<path d="M62.5 30C45.6554 30 32 43.6554 32 60.5C32 77.3446 45.6554 91 62.5 91C79.3447 91 93 77.3446 93 60.5C93 43.6554 79.3447 30 62.5 30ZM81.2476 79.2476C76.7128 83.7825 70.8245 86.4722 64.4935 86.9396L64.4936 83.8597C64.4936 82.7588 63.6012 81.8662 62.5002 81.8662C61.3994 81.8662 60.5067 82.7588 60.5067 83.8597L60.5066 86.9396C54.1757 86.472 48.2873 83.7825 43.7526 79.2476C39.2176 74.7127 36.528 68.8243 36.0605 62.4935H39.1402C40.2411 62.4935 41.1337 61.6009 41.1337 60.5C41.1337 59.3991 40.2411 58.5065 39.1402 58.5065H36.0605C36.528 52.1756 39.2176 46.2873 43.7524 41.7524C48.2873 37.2175 54.1757 34.5278 60.5066 34.0603V37.1401C60.5066 38.241 61.3991 39.1335 62.5 39.1335C63.601 39.1335 64.4935 38.241 64.4935 37.1401V34.0604C70.8243 34.5278 76.7126 37.2175 81.2475 41.7524C85.7824 46.2873 88.4721 52.1756 88.9395 58.5065H85.8597C84.7588 58.5065 83.8662 59.3991 83.8662 60.5C83.8662 61.6009 84.7588 62.4935 85.8597 62.4935H88.9395C88.4722 68.8243 85.7825 74.7127 81.2476 79.2476Z" fill="white"/>
<circle cx="62.5" cy="62.5" r="62" stroke="white"/>
</svg>
