<svg width="125" height="125" viewBox="0 0 125 125" fill="none" xmlns="http://www.w3.org/2000/svg">
<path d="M79.9601 36H45.4013C42.4224 36 40 38.4221 40 41.3995V84.6014C40 87.5779 42.4221 89.9997 45.4013 89.9997H79.9601C82.9384 89.9997 85.3605 87.5779 85.3605 84.6014V41.4013C85.362 38.4236 82.9402 36 79.9601 36ZM83.2016 84.6014C83.2016 86.3886 81.7477 87.8417 79.9601 87.8417H45.4013C43.6144 87.8417 42.1613 86.3886 42.1613 84.6014V41.4013C42.1613 39.6144 43.6144 38.1613 45.4013 38.1613H79.9601C81.7462 38.1613 83.1992 39.6144 83.1992 41.4013V84.6017H83.2016V84.6014Z" fill="white"/>
<path d="M74.0691 59.6104H51.2944C50.7462 59.6104 50.3036 60.0548 50.3036 60.6029C50.3036 61.1508 50.7462 61.5955 51.2944 61.5955H74.0688C74.6176 61.5955 75.0602 61.1511 75.0602 60.6029C75.0605 60.0551 74.6176 59.6104 74.0691 59.6104Z" fill="white"/>
<path d="M74.0691 64.1333H51.2944C50.7462 64.1333 50.3036 64.5786 50.3036 65.1268C50.3036 65.6749 50.7462 66.1181 51.2944 66.1181H74.0688C74.6176 66.1181 75.0602 65.6749 75.0602 65.1268C75.059 64.5756 74.6176 64.1333 74.0691 64.1333Z" fill="white"/>
<path d="M74.0691 68.6548H51.2944C50.7462 68.6548 50.3036 69.1001 50.3036 69.6476C50.3036 70.1958 50.7462 70.6396 51.2944 70.6396H74.0688C74.6176 70.6396 75.0602 70.1958 75.0602 69.6476C75.0605 69.1001 74.6176 68.6548 74.0691 68.6548Z" fill="white"/>
<path d="M74.0692 73.1772H62.6809C62.1336 73.1772 61.6889 73.6208 61.6889 74.1689C61.6889 74.7171 62.1336 75.1624 62.6809 75.1624H74.0689C74.6176 75.1624 75.0588 74.7171 75.0588 74.1689C75.0588 73.6208 74.6176 73.1772 74.0692 73.1772Z" fill="white"/>
<path d="M74.0692 82.1089H66.0967C65.5468 82.1089 65.1054 82.5527 65.1054 83.1009C65.1054 83.6484 65.5468 84.0922 66.0967 84.0922H74.0692C74.6179 84.0922 75.0591 83.6484 75.0591 83.1009C75.0591 82.5527 74.6176 82.1089 74.0692 82.1089Z" fill="white"/>
<path d="M63.787 55.2501C63.787 53.3729 61.6257 50.8408 58.7082 50.101C59.927 49.2813 60.767 47.6625 60.767 46.2046C60.767 44.1486 59.102 42.48 57.0441 42.48C54.9887 42.48 53.3213 44.1486 53.3213 46.2046C53.3213 47.661 54.1612 49.2798 55.3773 50.101C52.464 50.8405 50.3012 53.3744 50.3012 55.2501C50.3036 57.4683 63.787 57.4683 63.787 55.2501ZM56.744 51.1815H56.727L56.1106 50.4736C56.4119 50.5803 56.7192 50.6455 57.0444 50.6455C57.3702 50.6455 57.6778 50.5821 57.9786 50.475L57.3604 51.1812H57.3458L58.9366 55.0247L57.0444 56.9121L55.1544 55.0247L56.744 51.1815Z" fill="white"/>
<circle cx="62.5" cy="62.5" r="62" stroke="white"/>
</svg>
