<svg width="125" height="125" viewBox="0 0 125 125" fill="none" xmlns="http://www.w3.org/2000/svg">
<path d="M61.2865 39.4282C54.5322 39.4282 48.1821 42.0585 43.4061 46.8344C38.6303 51.6102 36 57.96 36 64.7142C36 71.4684 38.6303 77.8181 43.4061 82.5939C48.1819 87.3698 54.532 89.9999 61.2865 89.9999C61.8951 89.9999 62.3885 89.5065 62.3885 88.8978V40.5303C62.3885 39.9216 61.8953 39.4282 61.2865 39.4282ZM60.1844 87.7698C47.9671 87.1922 38.2041 77.0716 38.2041 64.7142C38.2041 52.3566 47.9671 42.236 60.1844 41.6584V87.7698Z" fill="white"/>
<path d="M67.4545 59.1648C67.6451 59.3033 67.8723 59.3753 68.1024 59.3753C68.2164 59.3753 68.3314 59.3575 68.4427 59.3214L88.5782 52.7789C88.8562 52.6885 89.087 52.4915 89.2196 52.231C89.3524 51.9706 89.3761 51.668 89.2857 51.3901C86.2466 42.0409 77.9316 36 68.1022 36C67.4936 36 67.0001 36.4934 67.0001 37.102V58.2731C67.0001 58.626 67.1691 58.9574 67.4545 59.1648ZM69.2042 38.2324C77.2116 38.645 83.9539 43.5432 86.822 51.0319L69.2042 56.7564V38.2324Z" fill="white"/>
<path d="M88.6347 59.7684C88.4466 59.1897 87.8249 58.873 87.2461 59.0611L66.703 65.7362C66.2491 65.8837 65.9415 66.3069 65.9415 66.7843V88.385C65.9415 88.9936 66.435 89.487 67.0435 89.487C78.2398 89.487 84.5199 82.4935 87.273 77.0904C90.0267 71.6869 90.5102 65.5351 88.6347 59.7684ZM85.3093 76.0896C82.8234 80.9682 77.2666 86.533 68.1457 87.2577V67.5849L86.8522 61.5067C88.1638 66.4019 87.6279 71.5397 85.3093 76.0896Z" fill="white"/>
<circle cx="62.5" cy="62.5" r="62" stroke="white"/>
</svg>
