<svg width="125" height="125" viewBox="0 0 125 125" fill="none" xmlns="http://www.w3.org/2000/svg">
<path d="M60.5338 84.3685C59.37 83.4395 58.3388 82.3561 57.4688 81.1484C57.1282 80.6757 56.4688 80.5684 55.9959 80.9092C55.5233 81.2497 55.4161 81.9092 55.7566 82.382C56.7389 83.7455 57.9032 84.9686 59.2172 86.0176C59.4116 86.1728 59.6439 86.2482 59.8747 86.2482C60.1847 86.2482 60.4917 86.1124 60.7 85.8513C61.0636 85.396 60.9891 84.7321 60.5338 84.3685Z" fill="white"/>
<path d="M78.7824 57.5849C80.0693 58.329 81.2497 59.247 82.2907 60.3135C82.4975 60.5253 82.7716 60.6316 83.0458 60.6316C83.3116 60.6316 83.5775 60.5319 83.7827 60.3316C84.1997 59.9245 84.2077 59.2565 83.8007 58.8395C82.6251 57.6352 81.2922 56.5985 79.8386 55.758C79.3339 55.4664 78.6888 55.6389 78.397 56.1433C78.1054 56.6478 78.278 57.2933 78.7824 57.5849Z" fill="white"/>
<path d="M86.5062 68.0417C86.6176 68.5312 87.0525 68.8629 87.5341 68.8629C87.6115 68.8629 87.6902 68.8543 87.7692 68.8364C88.3373 68.707 88.6931 68.1417 88.5639 67.5734C88.1909 65.934 87.5925 64.3535 86.7856 62.876C86.5064 62.3644 85.865 62.176 85.354 62.4556C84.8425 62.7348 84.6543 63.3759 84.9337 63.8872C85.6472 65.1941 86.1764 66.5919 86.5062 68.0417Z" fill="white"/>
<path d="M68.6422 87.7863C67.1641 87.6032 65.7207 87.2173 64.3516 86.6399C63.8143 86.4134 63.1958 86.665 62.9693 87.2019C62.7428 87.7388 62.9944 88.3577 63.5313 88.5842C65.0795 89.2372 66.7116 89.6734 68.3826 89.8805C68.4267 89.886 68.4705 89.8886 68.5137 89.8886C69.0385 89.8886 69.4933 89.4974 69.5594 88.9632C69.6313 88.3849 69.2205 87.858 68.6422 87.7863Z" fill="white"/>
<path d="M75.9503 55.1477C76.0934 54.5828 75.7516 54.0088 75.1869 53.8657C74.0449 53.5761 72.872 53.3989 71.6883 53.3335C71.1545 43.6854 63.1377 36 53.3587 36C43.2357 36 35 44.2357 35 54.3587C35 64.1555 42.7133 72.1842 52.386 72.6916C52.3577 72.8007 52.3455 72.9159 52.3543 73.0346C52.4786 74.7158 52.8328 76.3675 53.4069 77.9439C53.563 78.3724 53.9675 78.6383 54.3984 78.6383C54.5183 78.6383 54.6402 78.6177 54.7594 78.5744C55.3069 78.3748 55.5891 77.7694 55.3898 77.2219C54.882 75.8277 54.5688 74.3665 54.4588 72.879C54.4538 72.8124 54.4421 72.7479 54.4256 72.6856C63.6815 72.1526 71.1201 64.732 71.6821 55.4839L71.683 55.4848C71.6839 55.4717 71.6851 55.4586 71.6859 55.4456C72.6952 55.5084 73.6948 55.6642 74.6684 55.9111C75.2335 56.0545 75.8071 55.7124 75.9503 55.1477ZM54.4501 70.5709C54.9896 62.4796 61.4797 55.9896 69.571 55.45C69.0315 63.5413 62.5413 70.0314 54.4501 70.5709ZM52.3367 70.576L52.3355 70.5753C43.8505 70.046 37.1102 62.9747 37.1102 54.3587C37.1102 45.3992 44.3993 38.1102 53.3587 38.1102C61.9748 38.1102 69.046 44.8505 69.5754 53.3355L69.576 53.3366C60.3164 53.8797 52.8797 61.3163 52.3367 70.576Z" fill="white"/>
<path d="M87.9963 71.4672C87.4126 71.4374 86.9195 71.8876 86.891 72.4697C86.8183 73.9604 86.542 75.4292 86.0702 76.8351C85.8849 77.3876 86.1824 77.9857 86.7348 78.1711C86.8463 78.2084 86.9594 78.2262 87.0707 78.2262C87.5117 78.2262 87.9228 77.9475 88.0708 77.5065C88.6043 75.9169 88.9166 74.2568 88.9988 72.5724C89.0273 71.9906 88.5784 71.4957 87.9963 71.4672Z" fill="white"/>
<path d="M85.5583 80.5354C85.0769 80.2068 84.4206 80.3307 84.092 80.8118C83.2533 82.0404 82.2497 83.1492 81.1093 84.1077C80.6631 84.4826 80.6055 85.1481 80.9803 85.5942C81.189 85.8426 81.4877 85.9705 81.7885 85.9705C82.0282 85.9705 82.2691 85.8892 82.4669 85.723C83.7545 84.6409 84.8876 83.3889 85.8347 82.0016C86.1633 81.5204 86.0394 80.8639 85.5583 80.5354Z" fill="white"/>
<path d="M77.3488 86.4761C75.9937 87.0889 74.5602 87.5111 73.0877 87.7313C72.5114 87.8174 72.114 88.3546 72.2003 88.9309C72.2785 89.4543 72.7287 89.8299 73.2425 89.8299C73.2944 89.8299 73.347 89.8261 73.3999 89.8182C75.0647 89.5693 76.6859 89.0917 78.2182 88.3989C78.7491 88.1589 78.985 87.5337 78.7449 87.0028C78.5048 86.4719 77.8797 86.2365 77.3488 86.4761Z" fill="white"/>
<path d="M44.8943 43.6995C41.6237 46.2997 39.748 50.1848 39.748 54.3588C39.748 54.9414 40.2204 55.4138 40.8031 55.4138C41.3857 55.4138 41.8582 54.9415 41.8582 54.3588C41.8582 50.8319 43.4434 47.5488 46.2076 45.3513C46.6637 44.9886 46.7396 44.3249 46.3768 43.8688C46.0143 43.4126 45.3505 43.3368 44.8943 43.6995Z" fill="white"/>
<path d="M53.3588 40.748C52.0764 40.748 50.8067 40.9264 49.585 41.2782C49.025 41.4395 48.7018 42.0241 48.8631 42.5841C48.9961 43.0465 49.418 43.3475 49.8764 43.3475C49.973 43.3475 50.0714 43.3341 50.1691 43.306C51.2008 43.0089 52.2741 42.8582 53.3588 42.8582C53.9415 42.8582 54.4139 42.3858 54.4139 41.8031C54.4139 41.2205 53.9415 40.748 53.3588 40.748Z" fill="white"/>
<circle cx="62.5" cy="62.5" r="62" stroke="white"/>
</svg>
