<svg width="125" height="125" viewBox="0 0 125 125" fill="none" xmlns="http://www.w3.org/2000/svg">
<path d="M71.888 47.8989H47.4942C46.8397 47.8989 46.3043 48.4344 46.3043 49.0889C46.3043 49.7433 46.8397 50.2788 47.4942 50.2788H71.888C72.5424 50.2788 73.0779 49.7433 73.0779 49.0889C73.0779 48.4344 72.5424 47.8989 71.888 47.8989Z" fill="white"/>
<path d="M65.9383 62.1782H47.4942C46.8397 62.1782 46.3043 62.7137 46.3043 63.3682C46.3043 64.0226 46.8397 64.5581 47.4942 64.5581H65.9383C66.5927 64.5581 67.1282 64.0226 67.1282 63.3682C67.1282 62.7137 66.5927 62.1782 65.9383 62.1782Z" fill="white"/>
<path d="M70.698 55.0386H47.4942C46.8397 55.0386 46.3043 55.574 46.3043 56.2285C46.3043 56.883 46.8397 57.4185 47.4942 57.4185H70.698C71.3525 57.4185 71.888 56.883 71.888 56.2285C71.888 55.574 71.3525 55.0386 70.698 55.0386Z" fill="white"/>
<path d="M77.8372 55.0386H76.0523C75.3978 55.0386 74.8624 55.574 74.8624 56.2285C74.8624 56.883 75.3978 57.4185 76.0523 57.4185H77.8372C78.4917 57.4185 79.0272 56.883 79.0272 56.2285C79.0272 55.574 78.4917 55.0386 77.8372 55.0386Z" fill="white"/>
<path d="M83.7875 36H40.9497C37.6774 36 35 38.6774 35 41.9497V70.5083C35 73.7806 37.6774 76.458 40.9497 76.458H60.1672C60.9407 76.458 61.7141 76.6959 62.3686 77.2314L75.9339 87.7624C76.1719 87.9409 76.4099 88.0004 76.6479 88.0004C76.8264 88.0004 77.0049 87.9409 77.1834 87.8814C77.5998 87.7029 77.8378 87.2864 77.8378 86.8104V76.458H83.7875C87.0599 76.458 89.7372 73.7806 89.7372 70.5083V41.9497C89.7372 38.6774 87.0599 36 83.7875 36ZM87.3574 70.5083C87.3574 72.4717 85.7509 74.0781 83.7875 74.0781H77.8378V70.5083C77.8378 69.8538 77.3024 69.3183 76.6479 69.3183C75.9934 69.3183 75.458 69.8538 75.458 70.5083V84.3711L63.7965 75.3275C62.7256 74.4946 61.4762 74.0781 60.1672 74.0781H40.9497C38.9863 74.0781 37.3799 72.4717 37.3799 70.5083V41.9497C37.3799 39.9863 38.9863 38.3799 40.9497 38.3799H83.7875C85.7509 38.3799 87.3574 39.9863 87.3574 41.9497V70.5083Z" fill="white"/>
<circle cx="62.5" cy="62.5" r="62" stroke="white"/>
</svg>
