<svg width="125" height="125" viewBox="0 0 125 125" fill="none" xmlns="http://www.w3.org/2000/svg">
<path fill-rule="evenodd" clip-rule="evenodd" d="M124 62.5C124 96.4655 96.4656 124 62.5001 124C28.5345 124 1.00006 96.4655 1.00006 62.5C1.00006 28.5345 28.5345 1 62.5001 1C96.4656 1 124 28.5345 124 62.5ZM125 62.5C125 97.0178 97.0179 125 62.5001 125C27.9823 125 6.10352e-05 97.0178 6.10352e-05 62.5C6.10352e-05 27.9822 27.9823 0 62.5001 0C97.0179 0 125 27.9822 125 62.5ZM80.8125 55.1868C81.2601 55.1868 81.6893 55.009 82.0057 54.6925C82.3222 54.3761 82.5 53.9468 82.5 53.4993V48.4368C82.4999 48.09 82.3929 47.7516 82.1936 47.4678C81.9943 47.184 81.7124 46.9684 81.3862 46.8505L62.8237 40.1005C62.453 39.9665 62.047 39.9665 61.6763 40.1005L43.1137 46.8505C42.7876 46.9684 42.5057 47.184 42.3064 47.4678C42.1071 47.7516 42.0001 48.09 42 48.4368V53.4993C42 53.9468 42.1778 54.3761 42.4943 54.6925C42.8107 55.009 43.2399 55.1868 43.6875 55.1868H45.375V79.1243H42V80.4993H82.5V79.1243H79.125V55.1868H80.8125ZM43.6875 48.4368L62.25 41.4755L80.8125 48.4368V53.4993H43.6875V48.4368ZM86 83H38V85H86V83ZM77.5 55H47V79H77.5V55ZM65.7773 71.5469C65.7773 70.8828 65.5664 70.3359 65.1445 69.9062C64.7227 69.4688 64.0195 69.0781 63.0352 68.7344C62.0508 68.3828 61.2852 68.0586 60.7383 67.7617C58.918 66.7852 58.0078 65.3398 58.0078 63.4258C58.0078 62.1289 58.4023 61.0625 59.1914 60.2266C59.9805 59.3906 61.0508 58.8945 62.4023 58.7383V56.1836H64.2773V58.7617C65.6367 58.957 66.6875 59.5352 67.4297 60.4961C68.1719 61.4492 68.543 62.6914 68.543 64.2227H65.707C65.707 63.2383 65.4844 62.4648 65.0391 61.9023C64.6016 61.332 64.0039 61.0469 63.2461 61.0469C62.4961 61.0469 61.9102 61.25 61.4883 61.6562C61.0664 62.0625 60.8555 62.6445 60.8555 63.4023C60.8555 64.082 61.0625 64.6289 61.4766 65.043C61.8984 65.4492 62.6094 65.8359 63.6094 66.2031C64.6094 66.5703 65.3945 66.9102 65.9648 67.2227C66.5352 67.5352 67.0156 67.8945 67.4062 68.3008C67.7969 68.6992 68.0977 69.1602 68.3086 69.6836C68.5195 70.207 68.625 70.8203 68.625 71.5234C68.625 72.8438 68.2188 73.9141 67.4062 74.7344C66.6016 75.5547 65.4766 76.0391 64.0312 76.1875V78.4727H62.168V76.1992C60.6211 76.0273 59.4297 75.4727 58.5938 74.5352C57.7656 73.5977 57.3516 72.3555 57.3516 70.8086H60.1992C60.1992 71.793 60.4453 72.5547 60.9375 73.0938C61.4375 73.6328 62.1406 73.9023 63.0469 73.9023C63.9375 73.9023 64.6133 73.6875 65.0742 73.2578C65.543 72.8281 65.7773 72.2578 65.7773 71.5469Z" fill="white"/>
</svg>
