<svg width="125" height="125" viewBox="0 0 125 125" fill="none" xmlns="http://www.w3.org/2000/svg">
<path d="M73.9253 85.5647C73.9431 85.7232 73.9302 85.8804 73.8905 86.028C73.8567 86.1544 73.8035 86.2747 73.7344 86.382C73.5854 86.6143 73.3598 86.8009 73.0829 86.8946C73.0422 86.9085 73.0007 86.9256 72.9583 86.9354C72.8646 86.9568 72.7709 86.9781 72.6785 86.9781C72.666 86.9781 72.6535 86.9997 72.6409 86.9997H65.1191C64.4269 86.9997 63.8659 86.4387 63.8659 85.7466C63.8659 85.0544 64.4269 84.4934 65.1191 84.4934H71.0851L67.7748 70.8557C67.2664 68.7637 64.5788 66.9546 61.7379 66.7305C60.7699 68.2691 58.8038 69.2856 56.6292 69.2856C54.4545 69.2856 52.4886 68.2775 51.5207 66.7389C48.6799 66.9629 45.9922 68.7625 45.4837 70.8543L42.1734 84.4935H48.1394C48.8316 84.4935 49.3926 85.0545 49.3926 85.7467C49.3926 86.4389 48.8316 86.9999 48.1394 86.9999H40.6175C40.5124 86.9999 40.4057 86.9709 40.2988 86.9462C40.2572 86.9368 40.2162 86.9029 40.1763 86.8893C39.8999 86.7959 39.6836 86.6126 39.5345 86.3811C39.5342 86.3805 39.5429 86.3798 39.5429 86.3794V86.3787C39.4036 86.2701 39.4102 86.149 39.3763 86.0209C39.3376 85.8748 39.3204 85.7183 39.3378 85.5618C39.3447 85.497 39.3543 85.4296 39.3709 85.3682L43.0495 70.2235C43.8732 66.8354 47.8551 64.1645 52.1158 64.1645H52.2881C52.8233 64.1645 53.2995 64.5169 53.4733 65.0233C53.7683 65.8828 54.9471 66.7655 56.6293 66.7655C58.3116 66.7655 59.4904 65.887 59.7855 65.0273C59.9592 64.5211 60.4354 64.1645 60.9707 64.1645H61.1429C65.4042 64.1645 69.387 66.8354 70.2104 70.2236L73.8901 85.3766C73.9064 85.4373 73.9183 85.5007 73.9253 85.5647ZM55.4948 49.962C55.4948 49.2698 54.9338 48.7088 54.2416 48.7088H52.8492C52.1571 48.7088 51.5961 49.2698 51.5961 49.962C51.5961 50.6541 52.1571 51.2151 52.8492 51.2151H54.2416C54.9338 51.2151 55.4948 50.6541 55.4948 49.962ZM59.0171 51.2151H60.4097C61.1018 51.2151 61.6628 50.6541 61.6628 49.962C61.6628 49.2698 61.1018 48.7088 60.4097 48.7088H59.0171C58.325 48.7088 57.764 49.2698 57.764 49.962C57.764 50.6541 58.325 51.2151 59.0171 51.2151ZM46.7661 52.8298C47.1292 52.8894 47.4764 52.7873 47.7572 52.5493C48.0381 52.3112 48.1756 51.9616 48.1756 51.5935V49.195C48.1756 44.5817 51.9556 40.8287 56.5687 40.8287C56.7929 40.8287 57.0285 40.8374 57.2482 40.8548C56.0868 42.6577 54.4054 43.9607 52.5047 44.4923C51.8382 44.6788 51.4524 45.3703 51.6388 46.0368C51.8252 46.7033 52.5191 47.0934 53.1849 46.9059C55.9358 46.1366 58.3286 44.1674 59.8091 41.4707C62.8316 42.7332 64.9617 45.7202 64.9617 49.195C64.9617 52.7773 62.7088 55.8922 59.3924 57.0616C58.9979 56.7286 58.4889 56.5063 57.9336 56.5063H55.2578C54.0087 56.5063 52.9925 57.5546 52.9925 58.8037C52.9925 60.0528 54.0087 61.1012 55.2578 61.1012H57.9336C58.9467 61.1012 59.8066 60.422 60.0953 59.5027C63.3248 58.4109 65.7722 55.8869 66.8506 52.756C68.3063 52.4026 69.2007 51.4956 69.2007 50.3843V47.6066C69.2007 46.4533 68.2361 45.5259 66.6844 45.2027C65.0895 41.177 61.1695 38.3223 56.5829 38.3223C51.9902 38.3223 48.055 41.1843 46.4645 45.2185C44.9554 45.5553 43.9983 46.4715 43.9983 47.6065V50.3842C43.9986 51.5914 45.0878 52.5513 46.7661 52.8298ZM77.1168 44.6709C77.809 44.6709 78.37 44.1099 78.37 43.4177C78.37 42.7255 77.809 42.1645 77.1168 42.1645H77.0124C76.3202 42.1645 75.7592 42.7255 75.7592 43.4177C75.7592 44.1099 76.3202 44.6709 77.0124 44.6709H77.1168ZM81.4721 44.6709C82.1643 44.6709 82.7253 44.1099 82.7253 43.4177C82.7253 42.7255 82.1643 42.1645 81.4721 42.1645H81.3678C80.6757 42.1645 80.1147 42.7255 80.1147 43.4177C80.1147 44.1099 80.6757 44.6709 81.3678 44.6709H81.4721ZM84.3622 32H69.767C66.8047 32 64.3946 34.4321 64.3946 37.3944C64.3946 38.0866 64.9556 38.6586 65.6478 38.6586C66.3399 38.6586 66.9009 38.081 66.9009 37.3889C66.9009 35.8085 68.1867 34.5062 69.767 34.5062H84.3622C85.9426 34.5062 87.163 35.8361 87.163 37.4163V49.5117C87.163 51.0922 85.9424 52.3288 84.3622 52.3288H72.1483C71.7538 52.3288 71.3824 52.539 71.1456 52.8548L67.0226 58.3669C66.6075 58.9207 66.7199 59.7123 67.2737 60.1275C67.4991 60.2965 67.7628 60.3812 68.0244 60.3812C68.4055 60.3812 68.7819 60.185 69.0281 59.8565L72.775 54.8354H84.3622C87.3245 54.8354 89.6693 52.4743 89.6693 49.512V37.4164C89.6693 34.4541 87.3245 32 84.3622 32ZM72.7615 44.6709C73.4537 44.6709 74.0147 44.1099 74.0147 43.4177C74.0147 42.7255 73.4537 42.1645 72.7615 42.1645H72.6571C71.9649 42.1645 71.4039 42.7255 71.4039 43.4177C71.4039 44.1099 71.9649 44.6709 72.6571 44.6709H72.7615Z" fill="white"/>
<circle cx="62.5" cy="62.5" r="62" stroke="white"/>
</svg>
