<svg width="81" height="81" viewBox="0 0 81 81" fill="none" xmlns="http://www.w3.org/2000/svg">
<circle cx="40.5" cy="40.5" r="40" stroke="white"/>
<path d="M21.0665 36.1858H23.3665V46.1525H24.8998V36.1858H57.0998V46.1525H58.6331V36.1858H60.9331C61.3931 36.1858 61.6998 35.8791 61.6998 35.4191V32.5825C61.6998 32.3525 61.6231 32.1225 61.3931 31.9692L41.4598 17.1725C41.1531 16.9425 40.8465 16.9425 40.5398 17.1725L21.1431 31.5858H21.0665V31.6625L20.6065 31.9692C20.3765 32.1225 20.2998 32.3525 20.2998 32.5825V35.4191C20.2998 35.8791 20.6072 36.1858 21.0665 36.1858ZM40.9998 18.7058L60.1664 32.9658V34.6525H57.8664H24.1331H21.8331V33.1191H52.4998V31.5858H23.6731L40.9998 18.7058Z" fill="white"/>
<path d="M42.5335 23.9189H39.4668V25.4523H42.5335V23.9189Z" fill="white"/>
<path d="M44.8332 26.9858H37.1665V28.5192H44.8332V26.9858Z" fill="white"/>
<path d="M27.9664 37.7192H26.4331V39.2526H27.9664V37.7192Z" fill="white"/>
<path d="M31.0333 37.7192H29.5V39.2526H31.0333V37.7192Z" fill="white"/>
<path d="M34.0997 37.7192H32.5664V39.2526H34.0997V37.7192Z" fill="white"/>
<path d="M37.1666 37.7192H35.6333V39.2526H37.1666V37.7192Z" fill="white"/>
<path d="M40.2335 37.7192H38.7002V39.2526H40.2335V37.7192Z" fill="white"/>
<path d="M43.2999 37.7192H41.7666V39.2526H43.2999V37.7192Z" fill="white"/>
<path d="M46.3668 37.7192H44.8335V39.2526H46.3668V37.7192Z" fill="white"/>
<path d="M49.4332 37.7192H47.8999V39.2526H49.4332V37.7192Z" fill="white"/>
<path d="M52.5001 37.7192H50.9668V39.2526H52.5001V37.7192Z" fill="white"/>
<path d="M55.5665 37.7192H54.0332V39.2526H55.5665V37.7192Z" fill="white"/>
<path d="M60.9333 61.4856V51.8256L61.93 52.8222L63.0033 51.7489L60.7033 49.4489C60.3966 49.1422 59.9366 49.1422 59.63 49.4489L57.33 51.7489L58.4033 52.8222L59.4 51.8256V61.4856H51.7333V44.1589L52.73 45.1556L53.8033 44.0822L51.5033 41.7822C51.1966 41.4756 50.7366 41.4756 50.43 41.7822L48.13 44.0822L49.2033 45.1556L50.2 44.1589V61.4856H31.8V44.1589L32.7967 45.1556L33.87 44.0822L31.57 41.7822C31.2633 41.4756 30.8033 41.4756 30.4967 41.7822L28.1967 44.0822L29.27 45.1556L30.2667 44.1589V61.4856H22.6V51.8256L23.5967 52.8222L24.67 51.7489L22.37 49.4489C22.0633 49.1422 21.6033 49.1422 21.2967 49.4489L18.9967 51.7489L20.07 52.8222L21.0667 51.8256V61.4856H18V63.0189H64V61.4856H60.9333Z" fill="white"/>
<path d="M40.2332 44.6189H41.7666C43.0699 44.6189 44.0666 45.6156 44.0666 46.9189H45.5999C45.5999 44.7722 43.9132 43.0856 41.7666 43.0856V41.5522H40.2332V43.0856C38.0866 43.0856 36.3999 44.7722 36.3999 46.9189C36.3999 49.0656 38.0866 50.7522 40.2332 50.7522H41.7666C43.0699 50.7522 44.0666 51.7489 44.0666 53.0522C44.0666 54.3556 43.0699 55.3522 41.7666 55.3522H40.2332C38.9299 55.3522 37.9332 54.3556 37.9332 53.0522H36.3999C36.3999 55.1989 38.0866 56.8856 40.2332 56.8856V58.4189H41.7666V56.8856C43.9132 56.8856 45.5999 55.1989 45.5999 53.0522C45.5999 50.9056 43.9132 49.2189 41.7666 49.2189H40.2332C38.9299 49.2189 37.9332 48.2222 37.9332 46.9189C37.9332 45.6156 38.9299 44.6189 40.2332 44.6189Z" fill="white"/>
</svg>
