<svg width="81" height="81" viewBox="0 0 81 81" fill="none" xmlns="http://www.w3.org/2000/svg">
<circle cx="40.5" cy="40.5" r="40" stroke="white"/>
<path d="M64.3367 17.8296H17.6633C16.7462 17.8296 16 18.5759 16 19.4929V58.7969C16 59.7141 16.7462 60.4603 17.6633 60.4603H35.7858V63.4005C35.7858 63.9282 36.0502 64.0926 36.2079 64.1435C36.3656 64.1944 36.6762 64.2161 36.9852 63.7881L40.9413 58.307C40.971 58.2659 40.9951 58.2534 40.9989 58.2522C41.005 58.2534 41.0291 58.2659 41.0588 58.307L45.015 63.7882C45.2359 64.0939 45.4575 64.1702 45.6235 64.1702C45.6897 64.1702 45.7472 64.158 45.7922 64.1434C45.9498 64.0925 46.2142 63.9282 46.2142 63.4004V60.4602H64.3367C65.2538 60.4602 66 59.714 66 58.7968V19.4929C66 18.5759 65.2538 17.8296 64.3367 17.8296ZM37.2681 52.273C37.1574 52.273 37.0583 52.2582 36.9653 52.2281C36.4157 52.0496 36.037 51.3586 35.6359 50.6268C35.2841 49.9849 34.9203 49.3212 34.378 48.9267C33.8282 48.5265 33.0784 48.383 32.3533 48.2442C31.5402 48.0886 30.7723 47.9417 30.439 47.4836C30.1114 47.0334 30.207 46.263 30.3082 45.4474C30.3997 44.7103 30.4942 43.9482 30.2816 43.2932C30.0785 42.6673 29.5656 42.1233 29.0698 41.5972C28.5176 41.0113 27.9467 40.4056 27.9467 39.8104C27.9467 39.215 28.5177 38.6093 29.0699 38.0234C29.5657 37.4973 30.0785 36.9533 30.2816 36.3275C30.4942 35.6726 30.3997 34.9104 30.3082 34.1734C30.207 33.3578 30.1115 32.5874 30.4391 32.1372C30.7723 31.6792 31.5402 31.5322 32.3533 31.3765C33.0784 31.2377 33.8282 31.0942 34.3781 30.694C34.9202 30.2994 35.284 29.6357 35.6358 28.9939C36.0368 28.2623 36.4156 27.5712 36.9653 27.3927C37.0583 27.3625 37.1574 27.3478 37.2681 27.3478C37.7405 27.3478 38.3084 27.6137 38.9095 27.8951C39.5909 28.214 40.2955 28.5438 40.9998 28.5438C41.7042 28.5438 42.4088 28.214 43.0902 27.8951C43.6915 27.6137 44.2593 27.3478 44.7317 27.3478C44.8424 27.3478 44.9415 27.3626 45.0344 27.3927C45.5841 27.5712 45.9628 28.2622 46.3639 28.9939C46.7157 29.6358 47.0795 30.2995 47.6217 30.6941C48.1715 31.0942 48.9214 31.2378 49.6465 31.3766C50.4595 31.5322 51.2273 31.6792 51.5607 32.1373C51.8883 32.5874 51.7928 33.3579 51.6915 34.1735C51.6001 34.9104 51.5056 35.6726 51.7182 36.3275C51.9213 36.9533 52.4342 37.4974 52.93 38.0234C53.4822 38.6093 54.0532 39.2151 54.0532 39.8104C54.0532 40.4058 53.4821 41.0116 52.9299 41.5975C52.4342 42.1236 51.9214 42.6675 51.7182 43.2932C51.5056 43.9481 51.6001 44.7103 51.6917 45.4473C51.7929 46.263 51.8885 47.0334 51.5608 47.4836C51.2276 47.9417 50.4597 48.0886 49.6467 48.2442C48.9215 48.383 48.1716 48.5266 47.6218 48.9268C47.0796 49.3214 46.7158 49.985 46.364 50.6268C45.9629 51.3585 45.5841 52.0495 45.0345 52.2281C44.9415 52.2583 44.8424 52.273 44.7317 52.273C44.2593 52.273 43.6915 52.0071 43.0903 51.7258C42.4089 51.4068 41.7043 51.077 40.9998 51.077C40.2955 51.077 39.591 51.4068 38.9096 51.7258C38.3084 52.0071 37.7405 52.273 37.2681 52.273ZM46.2142 52.442C46.5751 52.0497 46.8542 51.543 47.1271 51.045C47.4329 50.4871 47.7491 49.9101 48.1339 49.6302C48.5265 49.3445 49.1791 49.2195 49.8104 49.0987C50.7535 48.9182 51.7289 48.7316 52.2645 47.9956C52.7943 47.2675 52.6728 46.2876 52.5552 45.3402C52.4754 44.6976 52.393 44.0329 52.5458 43.562C52.6887 43.1221 53.1135 42.6715 53.5632 42.1944C54.2319 41.485 54.9233 40.7513 54.9233 39.8105C54.9233 38.8699 54.2319 38.1363 53.5633 37.4267C53.1135 36.9496 52.6887 36.4989 52.5458 36.0589C52.3929 35.5878 52.4754 34.9233 52.5552 34.2807C52.6728 33.3333 52.7943 32.3536 52.2645 31.6255C51.7288 30.8895 50.7534 30.7028 49.8103 30.5223C49.179 30.4014 48.5264 30.2765 48.1339 29.9909C47.749 29.7108 47.4328 29.1339 47.1271 28.576C46.6621 27.7278 46.1814 26.8507 45.3033 26.5655C45.1247 26.5075 44.9325 26.4781 44.7319 26.4781C44.0659 26.4781 43.3825 26.798 42.7216 27.1073C42.1263 27.3859 41.5108 27.674 41.0001 27.674C40.4893 27.674 39.8738 27.3859 39.2786 27.1073C38.6176 26.798 37.9343 26.4781 37.2684 26.4781C37.0677 26.4781 36.8754 26.5075 36.6968 26.5655C35.8187 26.8505 35.3381 27.7277 34.873 28.5761C34.5673 29.1339 34.2511 29.7108 33.8663 29.9909C33.4738 30.2765 32.8211 30.4014 32.1899 30.5222C31.2467 30.7028 30.2714 30.8895 29.7358 31.6254C29.2059 32.3535 29.3274 33.3333 29.4451 34.2806C29.5248 34.9233 29.6073 35.5878 29.4543 36.0589C29.3114 36.4989 28.8867 36.9496 28.4369 37.4267C27.7683 38.1362 27.0769 38.8698 27.0769 39.8105C27.0769 40.7511 27.7682 41.4846 28.4368 42.1941C28.8866 42.6712 29.3114 43.1219 29.4543 43.562C29.6072 44.0331 29.5247 44.6976 29.4451 45.3403C29.3275 46.2877 29.2059 47.2674 29.7357 47.9955C30.2713 48.7316 31.2467 48.9183 32.1899 49.0987C32.8212 49.2196 33.4738 49.3444 33.8663 49.6301C34.2511 49.91 34.5674 50.487 34.8732 51.045C35.146 51.5428 35.4251 52.0497 35.7859 52.442V56.2457H16.8701V29.4802H25.2986C25.5388 29.4802 25.7336 29.2855 25.7336 29.0452C25.7336 28.8048 25.5388 28.6101 25.2986 28.6101H16.8701V24.668H65.1299V52.2551H55.0851C54.8448 52.2551 54.65 52.4498 54.65 52.6901C54.65 52.9304 54.8448 53.1251 55.0851 53.1251H65.1299V56.2457H46.2142V52.442ZM17.6633 18.6996H64.3367C64.774 18.6996 65.1299 19.0555 65.1299 19.4929V21.0342H33.4106C33.1704 21.0342 32.9756 21.2289 32.9756 21.4693C32.9756 21.7096 33.1704 21.9043 33.4106 21.9043H65.1299V23.7979H16.8701V19.4929C16.8701 19.0555 17.226 18.6996 17.6633 18.6996ZM17.6633 59.5902C17.226 59.5902 16.8701 59.2343 16.8701 58.7969V57.1158H35.7858V59.5902H17.6633ZM41.7642 57.7978C41.5736 57.5337 41.2951 57.3822 41 57.3822C40.705 57.3822 40.4263 57.5337 40.2357 57.7978L36.6558 62.7576V53.0401C36.6697 53.045 36.6827 53.0508 36.6967 53.0554C36.8753 53.1134 37.0676 53.1428 37.2682 53.1428C37.3639 53.1428 37.4599 53.1356 37.5561 53.1234V56.682C37.5561 56.9223 37.7509 57.117 37.9911 57.117C38.2313 57.117 38.4261 56.9223 38.4261 56.682V52.8885C38.7122 52.7785 38.9974 52.6453 39.2785 52.5137C39.8737 52.2351 40.4892 51.9471 41 51.9471C41.5108 51.9471 42.1263 52.2352 42.7215 52.5137C43.3825 52.8231 44.0658 53.1429 44.7318 53.1429C44.9324 53.1429 45.1246 53.1135 45.3032 53.0555C45.3172 53.0509 45.3303 53.0449 45.3441 53.0402V62.7577L41.7642 57.7978ZM64.3367 59.5902H46.2142V57.1158H65.1299V58.7969C65.1299 59.2343 64.774 59.5902 64.3367 59.5902Z" fill="white"/>
<path d="M19.8993 22.8251C20.76 22.8251 21.4602 22.1248 21.4602 21.2641C21.4602 20.4034 20.76 19.7031 19.8993 19.7031C19.0385 19.7031 18.3383 20.4034 18.3383 21.2641C18.3383 22.1248 19.0385 22.8251 19.8993 22.8251ZM19.8993 20.5732C20.2802 20.5732 20.5902 20.8831 20.5902 21.2641C20.5902 21.6451 20.2802 21.955 19.8993 21.955C19.5183 21.955 19.2083 21.6451 19.2083 21.2641C19.2083 20.8831 19.5183 20.5732 19.8993 20.5732Z" fill="white"/>
<path d="M24.2495 22.8251C25.1102 22.8251 25.8105 22.1248 25.8105 21.2641C25.8105 20.4034 25.1102 19.7031 24.2495 19.7031C23.3888 19.7031 22.6885 20.4034 22.6885 21.2641C22.6885 22.1248 23.3888 22.8251 24.2495 22.8251ZM24.2495 20.5732C24.6305 20.5732 24.9404 20.8831 24.9404 21.2641C24.9404 21.6451 24.6305 21.955 24.2495 21.955C23.8685 21.955 23.5586 21.6451 23.5586 21.2641C23.5586 20.8831 23.8685 20.5732 24.2495 20.5732Z" fill="white"/>
<path d="M28.5998 22.8251C29.4605 22.8251 30.1607 22.1248 30.1607 21.2641C30.1607 20.4034 29.4605 19.7031 28.5998 19.7031C27.739 19.7031 27.0388 20.4034 27.0388 21.2641C27.0388 22.1248 27.739 22.8251 28.5998 22.8251ZM28.5998 20.5732C28.9807 20.5732 29.2907 20.8831 29.2907 21.2641C29.2907 21.6451 28.9807 21.955 28.5998 21.955C28.2188 21.955 27.9088 21.6451 27.9088 21.2641C27.9088 20.8831 28.2188 20.5732 28.5998 20.5732Z" fill="white"/>
<path d="M50.5463 39.8104C50.5463 34.5466 46.2639 30.2642 40.9999 30.2642C35.736 30.2642 31.4536 34.5466 31.4536 39.8104C31.4536 45.0743 35.736 49.3568 40.9999 49.3568C46.2639 49.3568 50.5463 45.0742 50.5463 39.8104ZM32.3238 39.8104C32.3238 35.0264 36.2159 31.1342 41 31.1342C45.7842 31.1342 49.6763 35.0263 49.6763 39.8104C49.6763 44.5945 45.7842 48.4867 41 48.4867C36.2159 48.4867 32.3238 44.5945 32.3238 39.8104Z" fill="white"/>
<path d="M47.3949 39.8104C47.3949 36.2843 44.5262 33.4155 41 33.4155C37.4737 33.4155 34.605 36.2842 34.605 39.8104C34.605 43.3365 37.4737 46.2054 41 46.2055C44.5262 46.2054 47.3949 43.3366 47.3949 39.8104ZM36.4871 42.9916H39.9358C40.1761 42.9916 40.3709 42.7969 40.3709 42.5566C40.3709 42.3163 40.1761 42.1216 39.9358 42.1216H35.9836C35.6862 41.4788 35.5089 40.7699 35.4804 40.0232H41.7782C42.0184 40.0232 42.2132 39.8285 42.2132 39.5882C42.2132 39.3478 42.0184 39.1532 41.7782 39.1532H35.5154C35.8416 36.4157 38.1759 34.2856 40.9999 34.2856C42.6596 34.2856 44.1496 35.0223 45.1633 36.1847H41.0618C40.8215 36.1847 40.6268 36.3794 40.6268 36.6198C40.6268 36.8601 40.8215 37.0548 41.0618 37.0548H45.7854C46.2548 37.8666 46.5248 38.8073 46.5248 39.8104C46.5248 42.8569 44.0464 45.3354 40.9999 45.3354C39.1374 45.3352 37.4884 44.4079 36.4871 42.9916Z" fill="white"/>
</svg>
