<svg width="81" height="81" viewBox="0 0 81 81" fill="none" xmlns="http://www.w3.org/2000/svg">
<circle cx="40.5" cy="40.5" r="40" stroke="white"/>
<path d="M21.8635 53.1572H20.2949V54.7258H21.8635V53.1572Z" fill="white"/>
<path d="M25.7844 53.1572H24.2158V54.7258H25.7844V53.1572Z" fill="white"/>
<path d="M21.8635 44.5303H20.2949V46.0989H21.8635V44.5303Z" fill="white"/>
<path d="M25.7844 44.5303H24.2158V46.0989H25.7844V44.5303Z" fill="white"/>
<path d="M41.4709 41.3936H39.9023V46.0993H41.4709V41.3936Z" fill="white"/>
<path d="M36.7649 41.3936H35.1963V46.0993H36.7649V41.3936Z" fill="white"/>
<path d="M32.0588 42.1772H30.4902V46.0988H32.0588V42.1772Z" fill="white"/>
<path d="M50.8821 42.1772H49.3135V46.0988H50.8821V42.1772Z" fill="white"/>
<path d="M46.176 41.3936H44.6074V46.0993H46.176V41.3936Z" fill="white"/>
<path d="M63.4308 38.256V36.6874H61.8622V38.256H53.2349V35.903H54.8034V33.8089L52.4505 32.8403V31.1972H50.8819V32.1941L47.7447 30.9024V25.7072H49.3133V24.1386H47.7448V21.0014H47.5111C46.9777 19.792 45.6139 18.1866 43.039 17.9097V14.727H41.4704V12.374H39.9019V14.727H38.3333V17.9097C35.7584 18.1866 34.3944 19.792 33.8612 21.0014H33.6275V24.1386H32.0589V25.7072H33.6275V30.9024L30.4903 32.1941V31.1972H28.9217V32.8403L26.5687 33.8089V35.903H28.1373V38.256H19.5102V36.6874H17.9416V38.256H16.373V61.0007H64.9996V38.256H63.4308ZM28.1375 59.432H17.9416V57.8634H28.1376V59.432H28.1375ZM28.1375 56.2948H17.9416V51.589H28.1376V56.2948H28.1375ZM28.1375 50.0204H25.7846V47.6674H24.216V50.0204H21.8631V47.6674H20.2945V50.0204H17.9416V42.9616H28.1376V50.0204H28.1375ZM28.1375 41.3932H17.9416V39.8246H28.1376V41.3932H28.1375ZM45.6996 21.0014H44.4736C44.3756 20.5928 44.2297 20.1559 44.0282 19.7395C44.8447 20.0515 45.3716 20.5495 45.6996 21.0014ZM39.902 16.2956H41.4706V17.8642H39.902V16.2956ZM39.902 19.4328H41.4706C42.1897 19.4328 42.6094 20.2987 42.8321 21.0014H38.5372C38.7577 20.2985 39.1757 19.4328 39.902 19.4328ZM37.3434 19.741C37.1418 20.1566 36.9959 20.5928 36.8987 21.0014H35.6736C36.0017 20.5511 36.5286 20.053 37.3434 19.741ZM35.1962 22.57H46.1764V24.1386H35.1962V22.57ZM46.1764 25.7072V30.2569L45.392 29.9338V25.7072H46.1764ZM43.8234 25.7072V29.2874L40.6862 27.9958L37.549 29.2874V25.7072H43.8234ZM35.1962 25.7072H35.9806V29.9338L35.1962 30.2569V25.7072ZM31.2746 59.432H29.706V57.8634H31.2746V59.432ZM35.1962 59.432H32.8432V57.8634H35.1961V59.432H35.1962ZM39.902 59.432H36.7648V57.8634H39.902V59.432ZM44.6078 59.432H41.4706V57.8634H44.6078V59.432ZM48.5292 59.432H46.1762V57.8634H48.5292V59.432ZM51.6664 59.432H50.0978V57.8634H51.6664V59.432ZM51.6664 56.2948H50.0978V53.9418H48.5292V56.2948H46.1762V53.1576H44.6076V56.2948H41.4704V53.1576H39.9019V56.2948H36.7647V53.1576H35.1961V56.2948H32.8432V53.9418H31.2746V56.2948H29.706V50.8046H32.8432V52.3732H34.4118V50.8046H37.549V52.3732H39.1176V50.8046H42.2548V52.3732H43.8234V50.8046H46.9606V52.3732H48.5292V50.8046H51.6664V56.2948ZM29.706 49.2362V39.0402H32.8432V49.2362H29.706ZM34.4118 49.2362V39.0402H37.549V49.2362H34.4118ZM39.1176 49.2362V39.0402H42.2548V49.2362H39.1176ZM43.8234 49.2362V39.0402H46.9606V49.2362H43.8234ZM51.6664 49.2362H48.5292V39.0402H51.6664V49.2362ZM51.6664 37.4716H29.706V35.903H51.6664V37.4716ZM36.9162 34.3344L40.6864 32.8262L44.4564 34.3344H36.9162ZM51.6664 34.3344H48.6805L40.6861 31.1368L32.6917 34.3344H29.706H29.4127L40.6862 29.6929L51.9597 34.3344H51.6664ZM53.235 39.8246H63.431V41.3932H53.235V39.8246ZM53.235 42.9616H63.431V50.0204H61.0782V47.6674H59.5096V50.0204H57.1566V47.6674H55.588V50.0204H53.235V42.9616ZM63.4312 59.432H53.2352V57.8634H63.4312V59.432ZM63.4312 56.2948H53.2352V51.589H63.4312V56.2948Z" fill="white"/>
<path d="M61.0784 53.1572H59.5098V54.7258H61.0784V53.1572Z" fill="white"/>
<path d="M57.1565 53.1572H55.5879V54.7258H57.1565V53.1572Z" fill="white"/>
<path d="M61.0784 44.5303H59.5098V46.0989H61.0784V44.5303Z" fill="white"/>
<path d="M57.1565 44.5303H55.5879V46.0989H57.1565V44.5303Z" fill="white"/>
</svg>
