<svg width="81" height="81" viewBox="0 0 81 81" fill="none" xmlns="http://www.w3.org/2000/svg">
<circle cx="40.5" cy="40.5" r="40" stroke="white"/>
<path d="M53.2795 25.2584V21.7498C53.2795 19.6005 51.5309 17.8516 49.3813 17.8516H33.3983C31.2485 17.8516 29.5 19.6005 29.5 21.7498V25.2584H32.6188V21.7498C32.6188 21.3201 32.9685 20.9703 33.3983 20.9703H49.3812C49.8112 20.9703 50.1607 21.3202 50.1607 21.7498V25.2584H53.2795Z" fill="white"/>
<path d="M18 60.1485H64V28.1821H18V60.1485ZM21.5086 31.6907H60.4918V56.6398H21.5086V31.6907Z" fill="white"/>
<path d="M53.6694 36.9531H27.9404V38.9023H53.6694V36.9531Z" fill="white"/>
<path d="M53.6694 43.3853H27.9404V45.3344H53.6694V43.3853Z" fill="white"/>
<path d="M53.6694 49.8179H27.9404V51.767H53.6694V49.8179Z" fill="white"/>
</svg>
