<svg width="81" height="81" viewBox="0 0 81 81" fill="none" xmlns="http://www.w3.org/2000/svg">
<circle cx="40.5" cy="40.5" r="40" stroke="white"/>
<path d="M33.4751 70.9571L33.4256 70.9054L33.4211 66.1489L33.4166 61.3924L30.7144 61.3969C29.7634 61.4007 28.8123 61.3977 27.8614 61.3879C27.7601 61.3924 27.6926 61.3879 27.6836 61.3721C27.6746 61.3564 27.5711 61.3564 27.3259 61.3721C27.1672 61.384 27.0079 61.3878 26.8489 61.3834C26.3179 61.3728 25.7869 61.3683 25.2559 61.3699C24.4459 61.3699 23.8024 61.3609 23.8091 61.3519C23.8249 61.3249 23.7281 61.3114 23.6876 61.3361C23.6651 61.3496 23.6561 61.3496 23.6651 61.3361C23.6719 61.3249 23.6426 61.3136 23.5999 61.3136C23.4829 61.3046 23.2916 61.3316 23.3029 61.3519C23.3096 61.3609 23.2849 61.3699 23.2511 61.3699C23.2129 61.3699 23.1926 61.3609 23.1994 61.3474C23.2151 61.3249 23.1611 61.3226 22.8079 61.3249C22.6211 61.3294 22.5379 61.3249 22.5379 61.3091C22.5379 61.2956 22.5154 61.2866 22.4839 61.2911C22.4527 61.2937 22.4213 61.2899 22.3916 61.2799C22.361 61.2706 22.3287 61.2683 22.2971 61.2731C22.2634 61.2776 22.2409 61.2731 22.2476 61.2641C22.2544 61.2551 22.2431 61.2484 22.2206 61.2529C22.2004 61.2574 22.1846 61.2484 22.1846 61.2304C22.1846 61.1921 22.1329 61.1696 22.0114 61.1561C21.6403 61.1093 21.2753 61.0233 20.9224 60.8996C20.6506 60.7928 20.3886 60.6625 20.1394 60.5104C20.0731 60.4616 20.0004 60.4222 19.9234 60.3934C19.8416 60.3076 19.7511 60.2307 19.6534 60.1639C19.4428 59.9788 19.2451 59.7796 19.0616 59.5676C19.0242 59.5151 18.9812 59.4668 18.9334 59.4236C18.8921 59.3871 18.8564 59.3446 18.8276 59.2976C18.8041 59.2544 18.7762 59.2137 18.7444 59.1761C18.7196 59.1491 18.7039 59.1176 18.7084 59.1086C18.7151 59.0996 18.7084 59.0929 18.6971 59.0929C18.6859 59.0929 18.6814 59.0794 18.6881 59.0659C18.6916 59.058 18.6922 59.0491 18.6897 59.0408C18.6872 59.0326 18.6819 59.0255 18.6746 59.0209C18.6566 59.0096 18.6544 59.0141 18.6656 59.0321C18.6769 59.0501 18.6746 59.0546 18.6589 59.0434C18.6454 59.0344 18.6364 59.0119 18.6364 58.9894C18.6364 58.9669 18.6251 58.9511 18.6139 58.9511C18.5981 58.9511 18.5936 58.9444 18.6004 58.9376C18.6071 58.9309 18.5914 58.8971 18.5644 58.8656C18.5374 58.8341 18.5194 58.7936 18.5261 58.7756C18.5329 58.7599 18.5284 58.7464 18.5171 58.7464C18.4991 58.7464 18.4721 58.6946 18.4631 58.6451C18.4495 58.6174 18.4345 58.5903 18.4181 58.5641C18.3754 58.4989 18.3641 58.4584 18.3686 58.4156C18.3709 58.4066 18.3619 58.3999 18.3529 58.3999C18.3439 58.3999 18.3169 58.3594 18.2921 58.3099C18.2696 58.2581 18.2426 58.2176 18.2314 58.2176C18.2224 58.2176 18.2089 58.1659 18.2021 58.1006C18.1929 58.0099 18.1786 57.9197 18.1594 57.8306C18.1437 57.7249 18.1241 57.6199 18.1009 57.5156C18.0847 57.44 18.0741 57.3633 18.0694 57.2861C18.0473 57.0498 18.0405 56.8123 18.0491 56.5751C18.0536 56.5121 18.0491 56.4919 18.0289 56.4986C17.9929 56.5121 18.0041 20.7911 18.0401 20.6966C18.0556 20.6536 18.067 20.6091 18.0739 20.5639C18.0874 20.4694 18.0919 20.4581 18.1549 20.2691C18.1826 20.1504 18.2265 20.0361 18.2854 19.9294C18.3007 19.9094 18.3114 19.8864 18.3169 19.8619C18.3584 19.7322 18.4216 19.6105 18.5036 19.5019C18.5126 19.5109 18.5149 19.5064 18.5059 19.4929C18.4991 19.4794 18.5126 19.4479 18.5351 19.4164C18.5576 19.3871 18.5711 19.3624 18.5621 19.3624C18.5531 19.3624 18.5621 19.3466 18.5779 19.3286C18.7345 19.0803 18.9106 18.8449 19.1044 18.6244C19.2709 18.4331 19.6106 18.1159 19.7321 18.0394C19.7879 18.0068 19.8407 17.9691 19.8896 17.9269C19.8943 17.9194 19.9005 17.9132 19.9079 17.9085C19.9153 17.9038 19.9237 17.9009 19.9324 17.8999C19.9459 17.8999 19.9549 17.8909 19.9549 17.8774C19.9549 17.8684 19.9706 17.8594 19.9864 17.8594C20.0021 17.8594 20.0201 17.8504 20.0201 17.8414C20.0201 17.8324 20.0494 17.8076 20.0876 17.7896C20.3377 17.6419 20.5978 17.5118 20.8661 17.4004C21.0266 17.3361 21.1912 17.2827 21.3589 17.2406C21.3791 17.2311 21.4002 17.2235 21.4219 17.2181C21.4513 17.2114 21.4806 17.2039 21.5096 17.1956C21.5884 17.1718 21.6703 17.1597 21.7526 17.1596C21.7616 17.1641 21.7684 17.1596 21.7684 17.1506C21.7684 17.1416 21.7796 17.1326 21.7931 17.1281C21.8381 17.1281 22.0406 17.1011 22.0924 17.0899C22.2139 17.0629 24.9116 17.0584 40.4321 17.0494C49.4614 17.0449 56.8774 17.0359 56.9111 17.0314C56.9651 17.0224 57.5951 16.9999 57.6401 17.0021L57.7729 17.0134C58.4186 17.0696 58.4501 17.0741 58.8079 17.1911C59.3729 17.3637 59.8998 17.6424 60.3604 18.0124C60.3941 18.0371 60.4954 18.1249 60.5809 18.2104C61.0084 18.6221 61.2739 18.9821 61.5169 19.4816C61.6316 19.7179 61.7689 20.0666 61.7914 20.1746C61.7981 20.2061 61.8094 20.2309 61.8184 20.2241C61.8319 20.2151 61.9084 20.5346 61.9309 20.6921L61.9511 20.8249C61.9714 20.9261 62.0006 21.4774 61.9871 21.4999C61.9742 21.5681 61.9674 21.6374 61.9669 21.7069C61.963 21.809 61.957 21.911 61.9489 22.0129C61.9331 22.1659 61.9331 22.2514 61.9601 23.8331C61.9826 25.1314 61.9916 32.6014 61.9714 32.6194C61.9567 33.6153 61.9575 34.6114 61.9736 35.6074C61.9804 35.6186 61.9804 38.6989 61.9736 42.4541L61.9511 53.2834C61.9466 57.0634 61.9421 57.4054 61.8926 57.5921L61.8386 57.8171C61.7756 58.0916 61.7779 58.0916 61.7576 58.1029C61.7486 58.1096 61.7464 58.1254 61.7531 58.1434C61.7599 58.1591 61.7531 58.1726 61.7419 58.1726C61.6643 58.2762 61.6056 58.3928 61.5686 58.5169C61.5418 58.605 61.5016 58.6885 61.4494 58.7644C61.4404 58.7711 61.4314 58.7846 61.4336 58.7959C61.4157 58.8703 61.3836 58.9406 61.3391 59.0029C61.2517 59.1843 61.138 59.3519 61.0016 59.5001C60.9881 59.4934 60.9859 59.4934 60.9926 59.5024C61.0151 59.5271 60.9701 59.5969 60.9409 59.5811C60.9274 59.5744 60.9229 59.5744 60.9319 59.5834C60.9656 59.6216 60.5201 60.1166 60.4751 60.0896C60.4616 60.0806 60.4571 60.0829 60.4661 60.0919C60.4819 60.1099 60.3244 60.2854 60.2929 60.2854C60.2839 60.2854 60.2546 60.3034 60.2299 60.3281C60.1466 60.4069 60.0341 60.4924 60.0341 60.4766C60.0341 60.4676 60.0206 60.4811 60.0026 60.5036C59.9846 60.5284 59.9576 60.5486 59.9419 60.5486C59.699 60.7185 59.436 60.8576 59.1589 60.9626C59.1409 60.9626 59.1251 60.9671 59.1184 60.9739C59.0959 61.0031 58.9924 61.0369 58.9699 61.0234C58.9564 61.0166 58.9541 61.0166 58.9631 61.0279C58.9811 61.0504 58.7156 61.1449 58.6886 61.1269C58.6796 61.1201 58.6706 61.1269 58.6706 61.1359C58.6706 61.1471 58.6549 61.1584 58.6369 61.1584C58.5796 61.1663 58.5232 61.1791 58.4681 61.1966C58.3876 61.2199 58.3057 61.238 58.2229 61.2506L58.0204 61.2799C57.9709 61.2866 57.9304 61.3024 57.9349 61.3159C57.9349 61.3294 57.9236 61.3339 57.9034 61.3294C57.8369 61.3291 57.7706 61.3351 57.7054 61.3474C57.5749 61.3699 57.0101 61.3766 54.8906 61.3834C51.3806 61.3946 49.4411 61.3946 49.0541 61.3834C48.1519 61.3751 47.2496 61.3728 46.3474 61.3766L43.9534 61.3811L43.8679 61.5094C43.528 61.9922 43.1495 62.4467 42.7361 62.8684C41.8924 63.7301 41.0711 64.4411 40.2094 65.0486C39.8921 65.2736 39.5276 65.5189 39.1631 65.7529C38.7964 65.9891 38.6884 66.0746 38.0561 66.6191L37.1516 67.3976C37.0391 67.4921 36.8929 67.6226 36.8254 67.6834C36.7579 67.7464 36.4834 67.9849 36.2134 68.2166C35.7251 68.6374 35.7251 68.6396 35.1469 69.3146C33.8014 70.8896 33.8081 70.8806 33.7159 70.9549C33.6371 71.0156 33.5426 71.0134 33.4796 70.9481L33.4751 70.9571ZM34.7059 68.6036C35.003 68.2337 35.3395 67.8973 35.7094 67.6001C38.1979 65.4514 38.2541 65.4019 38.5691 65.2016C39.5143 64.6147 40.4085 63.9494 41.2421 63.2126C41.7379 62.7624 42.2109 62.2878 42.6596 61.7906C42.8632 61.5446 43.0554 61.2893 43.2356 61.0256C43.2356 61.0121 43.3571 60.8186 43.5056 60.5936C44.2549 59.4664 44.6216 58.7216 44.8826 57.7946L44.9726 57.4909C45.0401 57.2749 45.1301 56.9374 45.2404 56.4626L45.3349 56.0576L45.3461 44.7019L45.3574 33.3484L44.8601 33.9266L44.3629 34.5071L42.9904 35.6861C42.4697 36.1309 41.9521 36.5794 41.4379 37.0316C41.2448 37.1899 41.0419 37.3357 40.8304 37.4681C40.4593 37.7077 40.0939 37.956 39.7346 38.2129C39.3949 38.4514 38.8571 38.8721 38.5309 39.1579C37.9594 39.6596 37.1584 40.4516 36.8906 40.7779C36.3065 41.4924 35.7869 42.2574 35.3381 43.0639C34.9196 43.8109 34.6721 44.4904 34.3819 45.6964C34.328 45.9253 34.2702 46.1533 34.2086 46.3804C34.1749 46.4951 34.1726 46.6054 34.1794 48.7271C34.1839 49.9511 34.1951 51.7961 34.2064 52.8244C34.2176 53.8751 34.2176 56.4649 34.2064 58.7306L34.1906 65.9891C34.1906 69.0446 34.1906 69.2089 34.2244 69.1661C34.2469 69.1436 34.4606 68.8894 34.7059 68.6036V68.6036ZM32.3119 51.8456L33.4121 51.8321L33.4054 49.0781L33.3986 46.3264L33.4436 46.1599C33.4984 45.9664 33.5472 45.7713 33.5899 45.5749C33.6056 45.5006 33.7901 44.7964 33.8374 44.6411C34.0466 43.9301 34.2784 43.3474 34.5461 42.8524C35.0929 41.8426 35.7453 40.8938 36.4924 40.0219C36.9154 39.5561 37.8334 38.6944 38.3711 38.2511C38.8954 37.8236 39.6221 37.3016 40.3286 36.8471C40.6054 36.6671 40.7966 36.5254 41.0486 36.3071C41.6105 35.8203 42.1738 35.335 42.7384 34.8514C42.9724 34.6489 43.3076 34.3631 43.4809 34.2101C43.7801 33.9559 43.8566 33.8726 44.5609 33.0514C45.3934 32.0794 45.8051 31.6181 45.8614 31.5889C45.9581 31.5349 46.0639 31.5776 46.1044 31.6834C46.1156 31.7149 46.1224 35.7446 46.1224 41.7836V51.8321L47.9674 51.8456C48.9821 51.8524 50.4221 51.8591 51.1669 51.8591H52.5214L52.5124 44.9516C52.5124 42.4818 52.5056 40.0121 52.4921 37.5424C52.5056 36.7234 52.5079 27.2599 52.4944 26.7649L52.4809 26.2834L52.0624 26.2766C51.8329 26.2766 46.1561 26.2721 39.4511 26.2766L27.2561 26.2811V51.8366L28.2574 51.8411C29.6096 51.8545 30.9619 51.8545 32.3141 51.8411L32.3119 51.8456Z" fill="white"/>
</svg>
