<svg width="26" height="30" viewBox="0 0 26 30" fill="none" xmlns="http://www.w3.org/2000/svg">
<path d="M8.58904 14.6076C8.32026 14.2327 8.08114 13.8368 7.87303 13.4562C7.29833 12.4052 7.80078 10.8945 8.81843 10.2627C10.0383 9.50528 11.2228 8.60523 11.3236 7.48973C11.5249 5.2283 7.549 0.500716 6.7868 0.457764C4.70078 0.47924 0.883097 3.88104 0.43068 4.90902C-0.410266 7.03443 0.0064926 9.01237 1.45215 11.8758C3.29302 16.1353 10.1305 24.2152 14.0418 26.7516C16.63 28.6658 18.5207 29.4174 20.7783 28.9636C21.828 28.7717 25.6189 25.7744 25.9986 23.7478C26.0914 22.9961 21.6846 18.013 19.4054 17.8154C18.2768 17.7149 17.1777 18.7171 16.2141 19.78C15.4109 20.6659 13.9116 20.7898 13.0669 19.9433C12.8684 19.7444 12.6616 19.5281 12.452 19.2958C11.0034 17.829 9.65731 16.1059 8.58904 14.6076Z" fill="white"/>
</svg>
