<svg width="71" height="71" viewBox="0 0 71 71" fill="none" xmlns="http://www.w3.org/2000/svg">
<path d="M35.5 0C15.9253 0 0 15.7245 0 35.0523C0 54.3801 15.9253 70.1046 35.5 70.1046C55.0747 70.1046 71 54.3801 71 35.0523C71 15.7245 55.0747 0 35.5 0ZM53.9162 36.0174L27.8829 53.5436C27.6829 53.6779 27.4498 53.7469 27.2167 53.7469C27.0273 53.7469 26.8368 53.7025 26.6641 53.6113C26.2759 53.4092 26.0333 53.0119 26.0333 52.5785V17.5262C26.0333 17.0927 26.2759 16.6954 26.6641 16.4933C27.0522 16.29 27.5208 16.318 27.8841 16.561L53.9174 34.0872C54.2393 34.3045 54.4333 34.6656 54.4333 35.0523C54.4333 35.4391 54.2393 35.8001 53.9162 36.0174Z" fill="#10406C"/>
</svg>
