<svg width="226" height="167" viewBox="0 0 226 167" fill="none" xmlns="http://www.w3.org/2000/svg">
<path d="M203.255 155.613H188.301V155.726H203.255V155.613Z" fill="#EBEBEB"/>
<path d="M149.671 156.841H145.748V156.954H149.671V156.841Z" fill="#EBEBEB"/>
<path d="M187.85 151.423H179.186V151.536H187.85V151.423Z" fill="#EBEBEB"/>
<path d="M43.3113 152.182H23.811V152.295H43.3113V152.182Z" fill="#EBEBEB"/>
<path d="M50.192 152.182H47.334V152.295H50.192V152.182Z" fill="#EBEBEB"/>
<path d="M101.78 154.087H59.4839V154.2H101.78V154.087Z" fill="#EBEBEB"/>
<path d="M107.763 128.212H20.5785C19.8948 128.212 19.2391 127.94 18.7556 127.457C18.2721 126.973 18.0005 126.317 18.0005 125.634V3.08332C18.0064 2.40349 18.2807 1.75354 18.7635 1.27493C19.2464 0.796321 19.8987 0.527806 20.5785 0.527832H107.763C108.102 0.527832 108.437 0.594515 108.75 0.724074C109.062 0.853634 109.347 1.04353 109.586 1.28293C109.825 1.52232 110.015 1.80653 110.145 2.11931C110.274 2.4321 110.341 2.76733 110.341 3.10589V125.634C110.341 125.972 110.274 126.307 110.145 126.62C110.015 126.933 109.825 127.217 109.586 127.457C109.347 127.696 109.062 127.886 108.75 128.015C108.437 128.145 108.102 128.212 107.763 128.212ZM20.5785 0.618132C19.9251 0.619326 19.2988 0.879432 18.8367 1.34149C18.3747 1.80354 18.1146 2.42987 18.1134 3.08332V125.634C18.1146 126.287 18.3747 126.913 18.8367 127.375C19.2988 127.838 19.9251 128.098 20.5785 128.099H107.763C108.416 128.098 109.043 127.838 109.505 127.375C109.967 126.913 110.227 126.287 110.228 125.634V3.08332C110.227 2.42987 109.967 1.80354 109.505 1.34149C109.043 0.879432 108.416 0.619326 107.763 0.618132H20.5785Z" fill="#EBEBEB"/>
<path d="M205.422 128.212H118.238C117.554 128.212 116.898 127.94 116.415 127.457C115.931 126.973 115.66 126.317 115.66 125.634V3.08332C115.666 2.40349 115.94 1.75354 116.423 1.27493C116.906 0.796321 117.558 0.527806 118.238 0.527832H205.422C206.106 0.527832 206.762 0.799448 207.245 1.28293C207.729 1.76641 208 2.42215 208 3.10589V125.634C208 126.317 207.729 126.973 207.245 127.457C206.762 127.94 206.106 128.212 205.422 128.212ZM118.238 0.618132C117.584 0.619326 116.958 0.879432 116.496 1.34149C116.034 1.80354 115.774 2.42987 115.773 3.08332V125.634C115.774 126.287 116.034 126.913 116.496 127.375C116.958 127.838 117.584 128.098 118.238 128.099H205.422C206.076 128.098 206.702 127.838 207.164 127.375C207.626 126.913 207.886 126.287 207.887 125.634V3.08332C207.886 2.42987 207.626 1.80354 207.164 1.34149C206.702 0.879432 206.076 0.619326 205.422 0.618132H118.238Z" fill="#EBEBEB"/>
<path d="M225.875 148.349H0.125488V148.462H225.875V148.349Z" fill="#EBEBEB"/>
<path d="M186.238 87.062H177.745V95.5547H186.238V87.062Z" fill="#F5F5F5"/>
<path d="M191.462 87.062H186.242V95.5547H191.462V87.062Z" fill="#EBEBEB"/>
<path d="M188.328 87.062V90.2767L188.464 90.1503L188.703 90.3038L188.911 90.1503L189.177 90.3038L189.461 90.1503L189.642 90.3038L189.85 90.1909V87.062H188.328Z" fill="#E0E0E0"/>
<path opacity="0.7" d="M188.328 87.062V90.2767L188.464 90.1503L188.703 90.3038L188.911 90.1503L189.177 90.3038L189.461 90.1503L189.642 90.3038L189.85 90.1909V87.062H188.328Z" fill="#E0E0E0"/>
<path d="M186.622 97.1216H175.51V108.233H186.622V97.1216Z" fill="#F5F5F5"/>
<path d="M193.448 97.1216H186.622V108.233H193.448V97.1216Z" fill="#E6E6E6"/>
<path d="M184.5 100.246H173.388L175.51 97.1216H186.622L184.5 100.246Z" fill="#E6E6E6"/>
<path d="M188.635 100.246H195.457L193.448 97.1216H186.622L188.635 100.246Z" fill="#F5F5F5"/>
<path d="M45.9617 98.2773C49.3629 98.2773 52.1201 95.5201 52.1201 92.1189C52.1201 88.7177 49.3629 85.9604 45.9617 85.9604C42.5605 85.9604 39.8032 88.7177 39.8032 92.1189C39.8032 95.5201 42.5605 98.2773 45.9617 98.2773Z" fill="#E0E0E0"/>
<path d="M45.0046 98.2773C48.4059 98.2773 51.1631 95.5201 51.1631 92.1189C51.1631 88.7177 48.4059 85.9604 45.0046 85.9604C41.6034 85.9604 38.8462 88.7177 38.8462 92.1189C38.8462 95.5201 41.6034 98.2773 45.0046 98.2773Z" fill="#EBEBEB"/>
<path opacity="0.2" d="M48.3537 95.4672C50.2033 93.6176 50.2033 90.6188 48.3537 88.7691C46.5041 86.9195 43.5053 86.9195 41.6557 88.7691C39.806 90.6188 39.806 93.6176 41.6557 95.4672C43.5053 97.3168 46.5041 97.3168 48.3537 95.4672Z" fill="white"/>
<path d="M40.9906 92.1189C40.9907 90.9262 41.4416 89.7777 42.253 88.9035C43.0644 88.0293 44.1762 87.4941 45.3656 87.4053C45.2437 87.4053 45.1263 87.4053 45.0044 87.4053C43.7471 87.4053 42.5413 87.9047 41.6522 88.7938C40.7631 89.6829 40.2637 90.8887 40.2637 92.146C40.2637 93.4033 40.7631 94.6092 41.6522 95.4982C42.5413 96.3873 43.7471 96.8868 45.0044 96.8868C45.1263 96.8868 45.2437 96.8868 45.3656 96.8868C44.1672 96.7962 43.0482 96.2531 42.2357 95.3676C41.4231 94.4821 40.978 93.3206 40.9906 92.1189Z" fill="#E0E0E0"/>
<path d="M46.752 93.8348C46.4118 94.1327 45.9839 94.3118 45.5329 94.345V95.1306H44.8241V94.363C44.4864 94.3474 44.1523 94.2867 43.8308 94.1824C43.5588 94.0987 43.3025 93.9705 43.0723 93.8032L43.4606 92.9408C43.6533 93.0806 43.8645 93.1931 44.0881 93.2749C44.3253 93.3619 44.5726 93.418 44.8241 93.442V92.2681C44.5356 92.2014 44.2532 92.1107 43.9798 91.9972C43.7546 91.9042 43.556 91.7568 43.4019 91.5683C43.2391 91.3499 43.1577 91.0817 43.1716 90.8097C43.1692 90.6224 43.2056 90.4366 43.2787 90.2641C43.3517 90.0915 43.4598 89.936 43.596 89.8074C43.9358 89.5032 44.3688 89.3233 44.8241 89.2972V88.5161H45.5284V89.2837C46.0334 89.3075 46.5248 89.4548 46.9597 89.7126L46.6075 90.5795C46.2771 90.3839 45.9096 90.2594 45.5284 90.2137V91.4102C45.8138 91.4694 46.0934 91.5541 46.3637 91.6631C46.5857 91.7593 46.7821 91.9062 46.9371 92.092C47.0985 92.3093 47.1798 92.5756 47.1674 92.846C47.1691 93.0304 47.1331 93.2132 47.0617 93.3832C46.9903 93.5533 46.8849 93.7069 46.752 93.8348ZM44.4448 91.04C44.5585 91.1297 44.689 91.1957 44.8286 91.2341V90.2318C44.6807 90.2598 44.5441 90.3304 44.4358 90.435C44.3529 90.5209 44.3075 90.6362 44.3094 90.7555C44.308 90.8103 44.3195 90.8646 44.343 90.914C44.3666 90.9634 44.4014 91.0066 44.4448 91.04ZM45.9122 93.2298C45.9533 93.1911 45.9859 93.1441 46.0077 93.092C46.0294 93.0399 46.04 92.9837 46.0386 92.9273C46.0404 92.8727 46.03 92.8185 46.0082 92.7685C45.9863 92.7185 45.9535 92.674 45.9122 92.6383C45.7986 92.5512 45.6701 92.4854 45.5329 92.4441V93.4149C45.6751 93.3928 45.8073 93.3283 45.9122 93.2298Z" fill="#E0E0E0"/>
<path d="M126.414 42.7207C129.816 42.7207 132.573 39.9635 132.573 36.5623C132.573 33.161 129.816 30.4038 126.414 30.4038C123.013 30.4038 120.256 33.161 120.256 36.5623C120.256 39.9635 123.013 42.7207 126.414 42.7207Z" fill="#E0E0E0"/>
<path d="M125.452 42.7207C128.854 42.7207 131.611 39.9635 131.611 36.5623C131.611 33.161 128.854 30.4038 125.452 30.4038C122.051 30.4038 119.294 33.161 119.294 36.5623C119.294 39.9635 122.051 42.7207 125.452 42.7207Z" fill="#EBEBEB"/>
<path opacity="0.2" d="M128.803 39.914C130.653 38.0644 130.653 35.0655 128.803 33.2159C126.954 31.3663 123.955 31.3663 122.105 33.2159C120.256 35.0655 120.256 38.0643 122.105 39.914C123.955 41.7636 126.954 41.7636 128.803 39.914Z" fill="white"/>
<path d="M121.439 36.5619C121.44 35.3691 121.891 34.2205 122.702 33.3458C123.513 32.4711 124.624 31.9347 125.814 31.8438C125.696 31.8438 125.575 31.8438 125.453 31.8438C124.195 31.8438 122.99 32.3432 122.1 33.2323C121.211 34.1213 120.712 35.3272 120.712 36.5845C120.712 37.8418 121.211 39.0476 122.1 39.9367C122.99 40.8258 124.195 41.3252 125.453 41.3252C125.575 41.3252 125.696 41.3252 125.814 41.3252C124.616 41.2358 123.497 40.6936 122.684 39.8089C121.872 38.9241 121.426 37.7632 121.439 36.5619Z" fill="#E0E0E0"/>
<path d="M127.2 38.2732C126.862 38.5747 126.432 38.7543 125.981 38.7834V39.5736H125.281V38.806C124.943 38.7893 124.609 38.727 124.287 38.6209C124.014 38.538 123.756 38.4098 123.524 38.2416L123.913 37.3838C124.106 37.5212 124.317 37.6321 124.54 37.7134C124.779 37.8023 125.028 37.86 125.281 37.885V36.7065C124.99 36.6432 124.706 36.554 124.432 36.4402C124.207 36.3387 124.01 36.1837 123.859 35.9887C123.693 35.7732 123.61 35.5059 123.624 35.2347C123.624 35.0445 123.665 34.8566 123.742 34.6832C123.82 34.5097 123.934 34.3546 124.075 34.2278C124.416 33.9254 124.848 33.7458 125.303 33.7176V32.9365H126.003V33.7041C126.508 33.7294 126.999 33.8765 127.434 34.133L127.082 34.9999C126.752 34.8043 126.384 34.6798 126.003 34.6342V35.8306C126.288 35.8933 126.568 35.9793 126.838 36.088C127.063 36.1799 127.26 36.3275 127.412 36.5169C127.576 36.7315 127.659 36.9968 127.647 37.2664C127.647 37.4562 127.607 37.6439 127.53 37.8173C127.453 37.9908 127.341 38.1461 127.2 38.2732ZM124.892 35.483C125.007 35.5727 125.139 35.6373 125.281 35.6726V34.6748C125.132 34.7004 124.993 34.7695 124.883 34.8735C124.801 34.9594 124.755 35.0747 124.757 35.194C124.756 35.2493 124.768 35.3042 124.791 35.3543C124.815 35.4044 124.849 35.4484 124.892 35.483ZM126.364 37.6727C126.443 37.5913 126.488 37.4834 126.491 37.3702C126.492 37.3154 126.48 37.261 126.458 37.211C126.435 37.1611 126.402 37.1167 126.36 37.0813C126.247 36.9916 126.118 36.9241 125.981 36.8826V37.8533C126.123 37.8297 126.256 37.7672 126.364 37.6727Z" fill="#E0E0E0"/>
<path d="M83.1563 103.402C85.6024 103.402 87.5855 101.419 87.5855 98.9727C87.5855 96.5265 85.6024 94.5435 83.1563 94.5435C80.7101 94.5435 78.7271 96.5265 78.7271 98.9727C78.7271 101.419 80.7101 103.402 83.1563 103.402Z" fill="#E0E0E0"/>
<path d="M82.4653 103.402C84.9115 103.402 86.8945 101.419 86.8945 98.9727C86.8945 96.5265 84.9115 94.5435 82.4653 94.5435C80.0192 94.5435 78.0361 96.5265 78.0361 98.9727C78.0361 101.419 80.0192 103.402 82.4653 103.402Z" fill="#F5F5F5"/>
<path opacity="0.2" d="M82.4653 102.377C84.3455 102.377 85.8696 100.853 85.8696 98.9727C85.8696 97.0925 84.3455 95.5684 82.4653 95.5684C80.5852 95.5684 79.061 97.0925 79.061 98.9727C79.061 100.853 80.5852 102.377 82.4653 102.377Z" fill="white"/>
<path d="M79.5893 98.9548C79.5904 98.0945 79.9168 97.2665 80.503 96.6367C81.0891 96.007 81.8917 95.6222 82.7498 95.5596C82.664 95.5596 82.5782 95.5596 82.4879 95.5596C81.6059 95.5917 80.7707 95.9646 80.1581 96.6C79.5455 97.2353 79.2031 98.0835 79.2031 98.9661C79.2031 99.8487 79.5455 100.697 80.1581 101.332C80.7707 101.968 81.6059 102.341 82.4879 102.373C82.5751 102.377 82.6625 102.377 82.7498 102.373C81.8875 102.311 81.081 101.923 80.494 101.288C79.9071 100.654 79.5836 99.8194 79.5893 98.9548Z" fill="#E0E0E0"/>
<path d="M83.7249 100.205C83.4782 100.418 83.1695 100.546 82.8445 100.571V101.14H82.3388V100.584C82.0961 100.574 81.8561 100.53 81.6254 100.453C81.4297 100.394 81.2451 100.302 81.0791 100.183L81.359 99.564C81.4977 99.6643 81.6497 99.7448 81.8105 99.8033C81.9803 99.8669 82.1581 99.9064 82.3388 99.9207V99.0764C82.1319 99.0292 81.9295 98.9643 81.7338 98.8823C81.5711 98.8176 81.4279 98.7118 81.3184 98.5753C81.2006 98.4183 81.1415 98.225 81.1513 98.029C81.1494 97.8938 81.1757 97.7597 81.2286 97.6353C81.2814 97.5109 81.3597 97.399 81.4584 97.3066C81.7089 97.0854 82.0275 96.9563 82.3614 96.9408V96.3765H82.867V96.9318C83.2302 96.9482 83.5837 97.0536 83.8965 97.2388L83.6436 97.8619C83.4061 97.7208 83.1415 97.6316 82.867 97.6V98.4579C83.0721 98.5024 83.273 98.5643 83.4675 98.643C83.6298 98.7105 83.7727 98.8176 83.8829 98.9545C83.9987 99.1091 84.0577 99.2988 84.05 99.4918C84.0478 99.6267 84.0178 99.7597 83.9619 99.8824C83.9059 100.005 83.8253 100.115 83.7249 100.205ZM82.0634 98.196C82.1448 98.2598 82.2386 98.3059 82.3388 98.3314V97.6C82.2329 97.6186 82.1353 97.669 82.0589 97.7445C81.9984 97.8059 81.9643 97.8886 81.964 97.9748C81.9603 98.0171 81.9675 98.0596 81.9849 98.0983C82.0023 98.1371 82.0293 98.1707 82.0634 98.196ZM83.1199 99.7717C83.1778 99.7126 83.2102 99.6332 83.2102 99.5505C83.2107 99.5117 83.2025 99.4732 83.1861 99.438C83.1696 99.4029 83.1455 99.3718 83.1154 99.3473C83.036 99.281 82.9438 99.2318 82.8445 99.2028V99.9027C82.9466 99.8854 83.042 99.84 83.1199 99.7717Z" fill="#E0E0E0"/>
<path d="M97.926 21.2931C99.6557 19.5633 99.6557 16.7589 97.926 15.0292C96.1963 13.2995 93.3919 13.2995 91.6622 15.0292C89.9325 16.7589 89.9325 19.5633 91.6622 21.2931C93.3919 23.0228 96.1963 23.0228 97.926 21.2931Z" fill="#E0E0E0"/>
<path d="M97.2346 21.2979C98.9643 19.5682 98.9643 16.7638 97.2346 15.0341C95.5049 13.3044 92.7005 13.3044 90.9708 15.0341C89.2411 16.7638 89.2411 19.5682 90.9708 21.2979C92.7005 23.0276 95.5049 23.0276 97.2346 21.2979Z" fill="#F5F5F5"/>
<path opacity="0.2" d="M94.105 21.5674C95.9851 21.5674 97.5093 20.0432 97.5093 18.1631C97.5093 16.2829 95.9851 14.7588 94.105 14.7588C92.2248 14.7588 90.7007 16.2829 90.7007 18.1631C90.7007 20.0432 92.2248 21.5674 94.105 21.5674Z" fill="white"/>
<path d="M91.2156 18.1637C91.2168 17.3038 91.5434 16.4763 92.1296 15.8473C92.7159 15.2183 93.5185 14.8345 94.3761 14.7729C94.2904 14.7684 94.2045 14.7684 94.1188 14.7729C93.2367 14.805 92.4016 15.178 91.7889 15.8133C91.1763 16.4487 90.834 17.2969 90.834 18.1795C90.834 19.0621 91.1763 19.9103 91.7889 20.5456C92.4016 21.1809 93.2367 21.5539 94.1188 21.586C94.2045 21.586 94.2903 21.586 94.3761 21.586C93.5138 21.522 92.7079 21.1331 92.1213 20.4978C91.5346 19.8626 91.211 19.0283 91.2156 18.1637Z" fill="#E0E0E0"/>
<path d="M95.36 19.396C95.1172 19.6124 94.8088 19.7412 94.4841 19.7617V20.3306H93.9784V19.7797C93.736 19.7667 93.4963 19.7227 93.2651 19.6488C93.0691 19.5876 92.8845 19.4946 92.7188 19.3734L92.9987 18.7548C93.1366 18.8563 93.2888 18.9369 93.4502 18.9941C93.6221 19.0565 93.801 19.0975 93.9829 19.116V18.2672C93.7757 18.2235 93.5731 18.16 93.3779 18.0776C93.2159 18.0096 93.0732 17.9026 92.9626 17.7661C92.844 17.6094 92.7849 17.4159 92.7955 17.2197C92.7933 17.0856 92.8191 16.9526 92.8712 16.829C92.9233 16.7054 93.0005 16.594 93.098 16.5019C93.3479 16.279 93.6666 16.1484 94.001 16.1316V15.5718H94.4886V16.1226C94.8517 16.139 95.2053 16.2444 95.518 16.4296L95.2652 17.0527C95.0275 16.9104 94.7632 16.8182 94.4886 16.7818V17.6442C94.6942 17.6865 94.8953 17.7485 95.0891 17.8293C95.2505 17.8963 95.3931 18.0017 95.5045 18.1363C95.6203 18.2908 95.6793 18.4806 95.6715 18.6736C95.6735 18.8091 95.6467 18.9436 95.593 19.0681C95.5393 19.1926 95.4599 19.3043 95.36 19.396ZM93.6985 17.3868C93.783 17.4494 93.8777 17.4968 93.9784 17.5268V16.8044C93.8723 16.826 93.774 16.8759 93.694 16.9489C93.6363 17.0117 93.6041 17.0938 93.6037 17.1791C93.6024 17.2187 93.6104 17.258 93.6268 17.294C93.6432 17.3301 93.6678 17.3618 93.6985 17.3868ZM94.7595 18.9625C94.7885 18.9344 94.8114 18.9007 94.8269 18.8634C94.8424 18.8262 94.8502 18.7862 94.8498 18.7458C94.8511 18.7062 94.8431 18.6669 94.8267 18.6309C94.8103 18.5949 94.7857 18.5631 94.755 18.5381C94.6751 18.4736 94.583 18.426 94.4841 18.3982V19.0935C94.5866 19.0771 94.6822 19.0316 94.7595 18.9625Z" fill="#E0E0E0"/>
<path d="M55.8313 120.297L49.6548 118.369L56.5492 118.735C55.0367 116.102 54.3639 114.807 53.1629 112.287C54.8877 114.251 55.7861 115.249 57.6779 117.254C58.1659 114.33 58.883 111.45 59.8225 108.639C59.368 111.141 59.1713 113.683 59.2356 116.224L59.362 116.251C61.4084 113.934 63.627 111.774 65.999 109.79C63.7328 112.219 61.7179 114.871 59.9851 117.705C62.5526 116.736 65.1397 115.813 67.7463 114.938C65.1367 116.364 62.5857 117.836 60.0393 119.38L66.4235 121.417L59.8225 121.015C61.2132 122.645 61.9356 123.466 63.4345 125.114C61.5789 123.891 60.6623 123.281 58.8518 122.062C59.0511 123.76 59.3526 125.444 59.7548 127.105C58.8518 125.047 58.4545 124.022 57.7592 122.004C56.4634 128.203 56.802 134.194 58.0527 140.375L56.4995 140.095C55.5856 134.042 55.8323 127.87 57.2264 121.909C55.6642 123.521 54.9328 124.338 53.5783 125.972C54.3623 124.451 55.2383 122.98 56.2015 121.566C53.9756 122.053 52.8785 122.302 50.6977 122.798C52.6979 121.796 53.7228 121.29 55.8313 120.297Z" fill="#EBEBEB"/>
<path d="M53.6415 122.433L59.3484 119.408L52.6436 121.078C53.6369 118.211 54.0613 116.811 54.7657 114.111C53.4383 116.369 52.743 117.511 51.2666 119.85C50.2361 117.061 48.9876 114.357 47.5327 111.764C48.4466 114.136 49.1153 116.596 49.5283 119.105L49.4064 119.15C46.9609 117.246 44.3755 115.528 41.6722 114.012C44.3492 115.978 46.8223 118.208 49.0542 120.667C46.3452 120.195 43.6362 119.772 40.9272 119.399C43.7581 120.302 46.5394 121.281 49.3296 122.324L43.4331 125.516L49.8443 123.891C48.7833 125.751 48.228 126.69 47.0631 128.591C48.6614 127.042 49.447 126.27 50.9957 124.74C51.118 126.444 51.1361 128.154 51.0498 129.86C51.551 127.67 51.7497 126.591 52.0567 124.473C54.4858 130.343 55.2804 136.289 55.2172 142.578L56.6891 142.014C56.4558 135.896 55.0615 129.877 52.5804 124.279C54.418 125.575 55.2894 126.243 56.9284 127.611C55.8734 126.265 54.738 124.983 53.5286 123.774C55.7861 123.837 56.9329 123.873 59.1633 123.954C57.0141 123.336 55.8944 123.024 53.6415 122.433Z" fill="#F0F0F0"/>
<path d="M59.2223 125.832L55.064 123.629L59.9492 124.825C59.2223 122.74 58.9153 121.719 58.4005 119.751C59.3668 121.39 59.8769 122.225 60.9515 123.931C61.6995 121.907 62.6053 119.945 63.6605 118.062C62.9949 119.791 62.5077 121.584 62.2067 123.412L62.297 123.448C64.0794 122.059 65.9646 120.806 67.9362 119.701C65.9826 121.134 64.1781 122.76 62.5498 124.555C64.5244 124.208 66.5034 123.9 68.487 123.629C66.4237 124.297 64.3965 124.983 62.3647 125.76L66.6585 128.085L61.9809 126.893C62.753 128.248 63.1593 128.934 64.0082 130.32C62.8478 129.191 62.2744 128.627 61.1411 127.512C61.0521 128.755 61.04 130.002 61.105 131.246C60.7393 129.647 60.5903 128.862 60.3691 127.318C58.5992 131.584 58.0213 135.932 58.08 140.515L57.0054 140.104C57.1726 135.644 58.1902 131.256 60.0034 127.178C58.6489 128.121 58.0258 128.609 56.8429 129.607C57.612 128.625 58.4398 127.69 59.3216 126.808C57.6646 126.857 56.8429 126.884 55.213 126.943C56.7751 126.496 57.5788 126.261 59.2223 125.832Z" fill="#F5F5F5"/>
<path d="M61.1229 148.34H51.0951L50.1108 132.361H62.1072L61.1229 148.34Z" fill="#EBEBEB"/>
<path d="M62.8838 133.183H49.235L48.9912 131.056H63.1276L62.8838 133.183Z" fill="#F5F5F5"/>
<path d="M169.112 148.294H187.832V114.274H169.112V148.294Z" fill="#F0F0F0"/>
<path d="M163.816 148.294H169.112V114.274H163.816V148.294Z" fill="#E6E6E6"/>
<path d="M170.914 125.986H185.886V117.015H170.914V125.986Z" fill="#FAFAFA"/>
<path d="M170.914 135.937H185.886V126.966H170.914V135.937Z" fill="#FAFAFA"/>
<path d="M170.914 145.883H185.886V136.912H170.914V145.883Z" fill="#FAFAFA"/>
<path d="M177.641 119.01C177.641 119.207 177.7 119.4 177.809 119.564C177.919 119.728 178.075 119.856 178.257 119.932C178.439 120.007 178.64 120.027 178.834 119.989C179.027 119.95 179.205 119.855 179.344 119.716C179.484 119.576 179.579 119.398 179.618 119.205C179.656 119.011 179.636 118.811 179.561 118.628C179.485 118.446 179.357 118.29 179.193 118.18C179.029 118.071 178.836 118.012 178.639 118.012C178.374 118.012 178.12 118.117 177.933 118.304C177.746 118.492 177.641 118.745 177.641 119.01Z" fill="#E0E0E0"/>
<path d="M178.161 119.01C178.161 119.207 178.219 119.4 178.329 119.564C178.438 119.728 178.594 119.856 178.777 119.932C178.959 120.007 179.16 120.027 179.353 119.989C179.547 119.95 179.724 119.855 179.864 119.716C180.004 119.576 180.099 119.398 180.137 119.205C180.176 119.011 180.156 118.811 180.08 118.628C180.005 118.446 179.877 118.29 179.713 118.18C179.549 118.071 179.356 118.012 179.158 118.012C178.894 118.012 178.64 118.117 178.453 118.304C178.266 118.492 178.161 118.745 178.161 119.01Z" fill="#F0F0F0"/>
<path d="M177.641 128.925C177.641 129.122 177.7 129.315 177.809 129.479C177.919 129.644 178.075 129.771 178.257 129.847C178.439 129.922 178.64 129.942 178.834 129.904C179.027 129.865 179.205 129.77 179.344 129.631C179.484 129.491 179.579 129.313 179.618 129.12C179.656 128.926 179.636 128.726 179.561 128.543C179.485 128.361 179.357 128.205 179.193 128.095C179.029 127.986 178.836 127.927 178.639 127.927C178.374 127.927 178.12 128.032 177.933 128.219C177.746 128.407 177.641 128.66 177.641 128.925Z" fill="#E0E0E0"/>
<path d="M178.161 128.925C178.161 129.122 178.219 129.315 178.329 129.479C178.438 129.644 178.594 129.771 178.777 129.847C178.959 129.922 179.16 129.942 179.353 129.904C179.547 129.865 179.724 129.77 179.864 129.631C180.004 129.491 180.099 129.313 180.137 129.12C180.176 128.926 180.156 128.726 180.08 128.543C180.005 128.361 179.877 128.205 179.713 128.095C179.549 127.986 179.356 127.927 179.158 127.927C178.894 127.927 178.64 128.032 178.453 128.219C178.266 128.407 178.161 128.66 178.161 128.925Z" fill="#F0F0F0"/>
<path d="M177.641 138.836C177.641 139.033 177.7 139.226 177.809 139.39C177.919 139.554 178.075 139.682 178.257 139.758C178.439 139.833 178.64 139.853 178.834 139.814C179.027 139.776 179.205 139.681 179.344 139.541C179.484 139.402 179.579 139.224 179.618 139.03C179.656 138.837 179.636 138.636 179.561 138.454C179.485 138.272 179.357 138.116 179.193 138.006C179.029 137.896 178.836 137.838 178.639 137.838C178.374 137.838 178.12 137.943 177.933 138.13C177.746 138.317 177.641 138.571 177.641 138.836Z" fill="#E0E0E0"/>
<path d="M178.161 138.836C178.161 139.033 178.219 139.226 178.329 139.39C178.438 139.554 178.594 139.682 178.777 139.758C178.959 139.833 179.16 139.853 179.353 139.814C179.547 139.776 179.724 139.681 179.864 139.541C180.004 139.402 180.099 139.224 180.137 139.03C180.176 138.837 180.156 138.636 180.08 138.454C180.005 138.272 179.877 138.116 179.713 138.006C179.549 137.896 179.356 137.838 179.158 137.838C178.894 137.838 178.64 137.943 178.453 138.13C178.266 138.317 178.161 138.571 178.161 138.836Z" fill="#F0F0F0"/>
<path d="M72.013 27.9657C70.7308 28.4894 66.4732 27.8573 66.4732 27.8573L66.0217 28.0515C64.7691 28.5838 63.4132 28.8285 62.0536 28.7676C60.694 28.7066 59.3654 28.3416 58.1656 27.6993C58.1656 27.6993 54.6665 27.8393 53.5332 27.609C51.804 27.2614 49.2259 25.8933 49.8715 21.577C50.5172 17.2607 56.9917 20.9945 56.9917 20.9945C56.9917 20.9945 55.1225 14.9219 61.4299 16.755C63.2087 17.2462 64.8032 18.2508 66.0142 19.6433C67.2252 21.0357 67.9989 22.7542 68.2385 24.584C68.2385 24.584 78.0631 25.487 72.013 27.9657Z" fill="#F5F5F5"/>
<path d="M54.8605 33.5818C53.9575 33.943 51.0273 33.5096 51.0273 33.5096L50.7112 33.645C49.8468 34.0102 48.9116 34.1774 47.9741 34.1344C47.0367 34.0914 46.1207 33.8394 45.2933 33.3967C44.2246 33.4517 43.1533 33.4306 42.0876 33.3335C40.8911 33.0942 39.1077 32.146 39.5547 29.1616C40.0017 26.1772 44.4806 28.7598 44.4806 28.7598C44.4806 28.7598 43.1893 24.5563 47.5507 25.8251C48.7823 26.1643 49.8864 26.8593 50.7249 27.823C51.5633 28.7867 52.0988 29.9764 52.2644 31.243C52.2644 31.243 59.0504 31.8661 54.8605 33.5818Z" fill="#F0F0F0"/>
<path d="M119.895 45.827C118.612 46.3507 114.355 45.7231 114.355 45.7231L113.903 45.9173C112.65 46.4489 111.294 46.6929 109.935 46.6312C108.575 46.5694 107.247 46.2036 106.047 45.5606C106.047 45.5606 102.548 45.7006 101.415 45.4703C99.6856 45.1226 97.1121 43.7546 97.7532 39.4428C98.3943 35.131 104.873 38.8558 104.873 38.8558C104.873 38.8558 103.004 32.7832 109.312 34.6208C111.09 35.1106 112.685 36.1143 113.896 37.506C115.107 38.8978 115.881 40.6159 116.12 42.4453C116.12 42.4453 125.945 43.3483 119.895 45.827Z" fill="#F5F5F5"/>
<path d="M175.095 27.9292C174.903 26.475 174.287 25.1095 173.323 24.0037C172.36 22.8979 171.091 22.1008 169.677 21.712C167.216 20.9941 166.322 21.7978 166.065 22.7956C164.464 20.8328 162.288 19.4212 159.843 18.7592C151.64 16.3753 154.087 24.2675 154.087 24.2675C154.087 24.2675 145.666 19.4184 144.831 25.0305C143.996 30.6427 147.314 32.4171 149.572 32.8686C151.048 33.1666 155.595 32.986 155.595 32.986C157.155 33.8208 158.882 34.2948 160.65 34.3729C162.418 34.451 164.18 34.1314 165.808 33.4375L166.408 33.1846C166.408 33.1846 171.944 34.0063 173.61 33.3246C176.246 32.241 176.562 31.3922 175.817 30.742C176.579 30.8341 177.352 30.7882 178.098 30.6066C182.906 28.6471 175.095 27.9292 175.095 27.9292Z" fill="#F5F5F5"/>
<path d="M110.824 167C159.171 167 198.365 164.712 198.365 161.889C198.365 159.066 159.171 156.778 110.824 156.778C62.4762 156.778 23.2827 159.066 23.2827 161.889C23.2827 164.712 62.4762 167 110.824 167Z" fill="#F5F5F5"/>
<path d="M152.511 42.5174C147.832 36.9595 142.033 32.4512 135.493 29.2872C128.953 26.1232 121.82 24.3745 114.558 24.1555C107.296 23.9365 100.07 25.252 93.3508 28.0161C86.632 30.7803 80.572 34.9308 75.5667 40.1967C75.4447 40.327 75.2762 40.404 75.0978 40.4107C74.9194 40.4175 74.7455 40.3535 74.614 40.2328C74.5483 40.1715 74.4953 40.0979 74.4581 40.0161C74.4209 39.9344 74.4003 39.846 74.3973 39.7562C74.3944 39.6665 74.4092 39.577 74.441 39.4929C74.4728 39.4089 74.5208 39.332 74.5824 39.2666C79.7185 33.8622 85.9371 29.6023 92.8318 26.765C99.7266 23.9278 107.142 22.5772 114.595 22.8013C122.047 23.0254 129.368 24.8193 136.08 28.0658C142.792 31.3122 148.743 35.9382 153.545 41.6415L152.511 42.5174Z" fill="#263238"/>
<path d="M153.708 42.6032H149.491C149.311 42.6032 149.139 42.5319 149.012 42.4049C148.885 42.2779 148.813 42.1056 148.813 41.926C148.813 41.7464 148.885 41.5741 149.012 41.4471C149.139 41.3201 149.311 41.2487 149.491 41.2487H152.353V38.3862C152.353 38.2066 152.425 38.0344 152.552 37.9073C152.679 37.7803 152.851 37.709 153.03 37.709C153.21 37.7102 153.381 37.7819 153.508 37.9087C153.635 38.0354 153.707 38.207 153.708 38.3862V42.6032Z" fill="#263238"/>
<path d="M142.799 119.602L142.036 118.482C147.984 114.437 153.021 109.194 156.825 103.089C160.63 96.9841 163.117 90.1521 164.128 83.0304C164.153 82.8541 164.245 82.6944 164.386 82.5856C164.527 82.4767 164.705 82.4273 164.882 82.4479C165.062 82.4716 165.225 82.5656 165.336 82.7095C165.447 82.8534 165.496 83.0353 165.473 83.2155C164.435 90.5248 161.882 97.5368 157.978 103.802C154.073 110.068 148.903 115.449 142.799 119.602Z" fill="#263238"/>
<path d="M145.224 120.722L141.12 119.773L142.068 115.665C142.087 115.578 142.124 115.497 142.175 115.425C142.227 115.352 142.292 115.291 142.367 115.244C142.442 115.197 142.526 115.165 142.613 115.151C142.7 115.136 142.79 115.139 142.876 115.159C142.963 115.179 143.045 115.215 143.118 115.267C143.191 115.319 143.252 115.384 143.3 115.459C143.347 115.535 143.379 115.619 143.394 115.707C143.409 115.795 143.406 115.885 143.386 115.972L142.741 118.758L145.531 119.399C145.706 119.439 145.857 119.548 145.952 119.7C146.047 119.853 146.077 120.037 146.036 120.211C145.996 120.386 145.887 120.538 145.735 120.634C145.583 120.729 145.399 120.761 145.224 120.722Z" fill="#263238"/>
<path d="M73.7831 111.425C66.9491 103.933 62.4203 94.6291 60.7393 84.6286L62.0712 84.4028C63.709 94.1482 68.1236 103.214 74.7854 110.513C74.9051 110.645 74.9683 110.819 74.9615 110.997C74.9548 111.175 74.8786 111.343 74.7493 111.466C74.6833 111.527 74.6059 111.574 74.5215 111.605C74.4372 111.636 74.3475 111.65 74.2577 111.646C74.1679 111.643 74.0797 111.621 73.9983 111.583C73.9168 111.545 73.8437 111.491 73.7831 111.425Z" fill="#263238"/>
<path d="M58.7618 86.9175C58.6163 86.8117 58.5185 86.6527 58.4897 86.4751C58.461 86.2975 58.5036 86.1157 58.6083 85.9694L61.087 82.5605L64.4958 85.0393C64.5679 85.0912 64.6289 85.1569 64.6754 85.2326C64.722 85.3082 64.7531 85.3923 64.7669 85.4801C64.7808 85.5678 64.7771 85.6574 64.7561 85.7437C64.7352 85.83 64.6974 85.9113 64.6448 85.9829C64.5929 86.055 64.5272 86.116 64.4515 86.1625C64.3759 86.209 64.2918 86.2401 64.204 86.254C64.1163 86.2678 64.0267 86.2642 63.9404 86.2432C63.8541 86.2223 63.7728 86.1844 63.7012 86.1319L61.385 84.4523L59.7235 86.764C59.6714 86.8385 59.6049 86.9017 59.5279 86.9499C59.4509 86.9982 59.3649 87.0304 59.2752 87.0447C59.1855 87.059 59.0938 87.0552 59.0056 87.0333C58.9174 87.0115 58.8345 86.9721 58.7618 86.9175Z" fill="#263238"/>
<path d="M178.811 55.358H175.199L175.65 40.4585H178.359L178.811 55.358Z" fill="#263238"/>
<path opacity="0.7" d="M178.811 55.358H175.199L175.65 40.4585H178.359L178.811 55.358Z" fill="white"/>
<path d="M178.581 47.795L178.54 46.3276H175.474L175.429 47.795H178.581Z" fill="#F99013"/>
<path d="M175.52 44.8604H178.495L178.45 43.3931H175.56L175.52 44.8604Z" fill="#F99013"/>
<path d="M178.671 50.7301L178.626 49.2627H175.384L175.339 50.7301H178.671Z" fill="#F99013"/>
<path d="M178.761 53.6646L178.716 52.1973H175.294L175.253 53.6646H178.761Z" fill="#F99013"/>
<path d="M178.405 41.9259L178.36 40.4585H175.651L175.605 41.9259H178.405Z" fill="#F99013"/>
<path d="M184.834 55.358H181.222L181.673 40.4585H184.382L184.834 55.358Z" fill="#263238"/>
<path opacity="0.7" d="M184.834 55.358H181.222L181.673 40.4585H184.382L184.834 55.358Z" fill="white"/>
<path d="M184.604 47.795L184.559 46.3276H181.493L181.448 47.795H184.604Z" fill="#F99013"/>
<path d="M181.538 44.8604H184.513L184.468 43.3931H181.583L181.538 44.8604Z" fill="#F99013"/>
<path d="M184.689 50.7301L184.649 49.2627H181.402L181.362 50.7301H184.689Z" fill="#F99013"/>
<path d="M184.78 53.6646L184.734 52.1973H181.317L181.271 53.6646H184.78Z" fill="#F99013"/>
<path d="M184.423 41.9259L184.383 40.4585H181.674L181.628 41.9259H184.423Z" fill="#F99013"/>
<path d="M133.512 80.1905H188.898V56.7532L161.203 43.0908L133.512 56.7532V80.1905Z" fill="#F99013"/>
<path opacity="0.5" d="M133.512 80.1905H188.898V56.7532L161.203 43.0908L133.512 56.7532V80.1905Z" fill="white"/>
<path d="M172.192 61.6382H150.217V80.1858H172.192V61.6382Z" fill="#263238"/>
<path d="M154.132 61.6382H150.217V80.1858H154.132V61.6382Z" fill="#263238"/>
<path opacity="0.5" d="M154.132 61.6382H150.217V80.1858H154.132V61.6382Z" fill="white"/>
<path d="M159.622 67.21H156.312V71.3186H159.622V67.21Z" fill="#263238"/>
<path opacity="0.6" d="M159.622 67.21H156.312V71.3186H159.622V67.21Z" fill="white"/>
<path d="M161.654 67.21H159.622V71.3186H161.654V67.21Z" fill="#263238"/>
<path opacity="0.4" d="M161.654 67.21H159.622V71.3186H161.654V67.21Z" fill="white"/>
<path d="M160.435 67.21V68.4606L160.489 68.4155L160.58 68.4742L160.661 68.4155L160.769 68.4742L160.878 68.4155L160.945 68.4742L161.027 68.429V67.21H160.435Z" fill="#F99013"/>
<path opacity="0.7" d="M160.435 67.21V68.4606L160.489 68.4155L160.58 68.4742L160.661 68.4155L160.769 68.4742L160.878 68.4155L160.945 68.4742L161.027 68.429V67.21H160.435Z" fill="#F99013"/>
<path d="M165.546 67.21H162.236V71.3186H165.546V67.21Z" fill="#263238"/>
<path opacity="0.6" d="M165.546 67.21H162.236V71.3186H165.546V67.21Z" fill="white"/>
<path d="M167.582 67.21H165.55V71.3186H167.582V67.21Z" fill="#263238"/>
<path opacity="0.4" d="M167.582 67.21H165.55V71.3186H167.582V67.21Z" fill="white"/>
<path d="M166.363 67.21V68.4606L166.413 68.4155L166.508 68.4742L166.589 68.4155L166.693 68.4742L166.806 68.4155L166.873 68.4742L166.955 68.429V67.21H166.363Z" fill="#F99013"/>
<path opacity="0.7" d="M166.363 67.21V68.4606L166.413 68.4155L166.508 68.4742L166.589 68.4155L166.693 68.4742L166.806 68.4155L166.873 68.4742L166.955 68.429V67.21H166.363Z" fill="#F99013"/>
<path d="M188.514 57.5749L161.202 44.0977L133.891 57.5749C133.785 57.6275 133.669 57.6585 133.551 57.6663C133.432 57.6741 133.313 57.6585 133.201 57.6203C133.089 57.5821 132.985 57.5222 132.896 57.4439C132.807 57.3656 132.734 57.2705 132.681 57.164C132.629 57.0576 132.598 56.9419 132.59 56.8235C132.582 56.705 132.598 56.5862 132.636 56.4739C132.674 56.3615 132.734 56.2577 132.812 56.1685C132.891 56.0793 132.986 56.0064 133.092 55.954L161.202 42.0659L189.304 55.954C189.41 56.0064 189.505 56.0793 189.584 56.1685C189.662 56.2577 189.722 56.3615 189.76 56.4739C189.798 56.5862 189.814 56.705 189.806 56.8235C189.798 56.9419 189.767 57.0576 189.715 57.164C189.609 57.3768 189.423 57.5392 189.198 57.6161C188.974 57.693 188.728 57.6782 188.514 57.5749Z" fill="#263238"/>
<g opacity="0.5">
<path opacity="0.5" d="M188.514 57.5749L161.202 44.0977L133.891 57.5749C133.785 57.6275 133.669 57.6585 133.551 57.6663C133.432 57.6741 133.313 57.6585 133.201 57.6203C133.089 57.5821 132.985 57.5222 132.896 57.4439C132.807 57.3656 132.734 57.2705 132.681 57.164C132.629 57.0576 132.598 56.9419 132.59 56.8235C132.582 56.705 132.598 56.5862 132.636 56.4739C132.674 56.3615 132.734 56.2577 132.812 56.1685C132.891 56.0793 132.986 56.0064 133.092 55.954L161.202 42.0659L189.304 55.954C189.41 56.0064 189.505 56.0793 189.584 56.1685C189.662 56.2577 189.722 56.3615 189.76 56.4739C189.798 56.5862 189.814 56.705 189.806 56.8235C189.798 56.9419 189.767 57.0576 189.715 57.164C189.609 57.3768 189.423 57.5392 189.198 57.6161C188.974 57.693 188.728 57.6782 188.514 57.5749Z" fill="white"/>
</g>
<path d="M172.192 61.6382H168.277V80.1858H172.192V61.6382Z" fill="#263238"/>
<path opacity="0.5" d="M172.192 61.6382H168.277V80.1858H172.192V61.6382Z" fill="white"/>
<path d="M168.277 74.0952H155.333V80.1905H168.277V74.0952Z" fill="#263238"/>
<path opacity="0.4" d="M168.277 74.0952H155.333V80.1905H168.277V74.0952Z" fill="white"/>
<path d="M147.662 72.1353H145.472V80.1855H147.662V72.1353Z" fill="#F99013"/>
<path d="M155.333 74.9172C154.854 74.9172 154.395 74.7269 154.056 74.3882C153.717 74.0495 153.527 73.5902 153.527 73.1112C153.527 72.6322 153.717 72.1728 154.056 71.8341C154.395 71.4955 154.854 71.3052 155.333 71.3052H168.277V74.9172H155.333Z" fill="#F99013"/>
<path d="M156.313 73.115C156.313 73.3088 156.255 73.4982 156.147 73.6593C156.04 73.8204 155.887 73.946 155.708 74.0202C155.529 74.0943 155.332 74.1137 155.142 74.0759C154.952 74.0381 154.777 73.9448 154.64 73.8078C154.503 73.6708 154.41 73.4962 154.372 73.3061C154.334 73.1161 154.353 72.9191 154.428 72.7401C154.502 72.561 154.627 72.408 154.788 72.3004C154.95 72.1927 155.139 72.1353 155.333 72.1353C155.593 72.1353 155.842 72.2385 156.026 72.4222C156.209 72.606 156.313 72.8552 156.313 73.115Z" fill="#263238"/>
<path d="M146.723 72.1353H137.273V80.1855H146.723V72.1353Z" fill="#F99013"/>
<path opacity="0.3" d="M146.723 72.1353H137.273V80.1855H146.723V72.1353Z" fill="white"/>
<path opacity="0.8" d="M143.892 75.7387H142.298L142.93 73.7656L140.108 76.5875H141.702L141.07 78.5605L143.892 75.7387Z" fill="white"/>
<path d="M66.2294 107.294C71.2215 107.294 75.2684 103.247 75.2684 98.2548C75.2684 93.2627 71.2215 89.2158 66.2294 89.2158C61.2373 89.2158 57.1904 93.2627 57.1904 98.2548C57.1904 103.247 61.2373 107.294 66.2294 107.294Z" fill="#F99013"/>
<path d="M64.8251 107.294C69.8172 107.294 73.8642 103.247 73.8642 98.2548C73.8642 93.2627 69.8172 89.2158 64.8251 89.2158C59.833 89.2158 55.7861 93.2627 55.7861 98.2548C55.7861 103.247 59.833 107.294 64.8251 107.294Z" fill="#F99013"/>
<path opacity="0.3" d="M64.8251 107.294C69.8172 107.294 73.8642 103.247 73.8642 98.2548C73.8642 93.2627 69.8172 89.2158 64.8251 89.2158C59.833 89.2158 55.7861 93.2627 55.7861 98.2548C55.7861 103.247 59.833 107.294 64.8251 107.294Z" fill="white"/>
<path opacity="0.2" d="M64.825 105.203C68.6626 105.203 71.7736 102.092 71.7736 98.2547C71.7736 94.4171 68.6626 91.3062 64.825 91.3062C60.9874 91.3062 57.8765 94.4171 57.8765 98.2547C57.8765 102.092 60.9874 105.203 64.825 105.203Z" fill="white"/>
<path opacity="0.1" d="M58.9285 98.2547C58.9292 96.5042 59.591 94.8185 60.7815 93.5351C61.9719 92.2517 63.6032 91.4653 65.3488 91.3332C65.1772 91.3332 65.0011 91.3062 64.825 91.3062C62.9822 91.3062 61.2148 92.0382 59.9117 93.3413C58.6085 94.6445 57.8765 96.4119 57.8765 98.2547C57.8765 100.098 58.6085 101.865 59.9117 103.168C61.2148 104.471 62.9822 105.203 64.825 105.203C65.0011 105.203 65.1772 105.203 65.3488 105.176C63.6028 105.045 61.9709 104.259 60.7803 102.975C59.5896 101.692 58.9281 100.006 58.9285 98.2547Z" fill="black"/>
<g opacity="0.1">
<path opacity="0.1" d="M68.0896 100.761C67.5872 101.204 66.952 101.467 66.2836 101.51V102.666H65.2497V101.542C64.7551 101.518 64.266 101.427 63.7959 101.271C63.3948 101.152 63.0174 100.964 62.6807 100.716L63.245 99.456C63.5232 99.6566 63.8269 99.819 64.148 99.9392C64.4969 100.069 64.8612 100.152 65.2316 100.187V98.4628C64.809 98.3667 64.3952 98.2353 63.9945 98.07C63.6631 97.9315 63.3714 97.7127 63.1457 97.4333C62.9058 97.1144 62.7859 96.7212 62.8071 96.3227C62.8042 96.0477 62.858 95.775 62.9652 95.5218C63.0724 95.2685 63.2307 95.0401 63.4302 94.8508C63.9304 94.405 64.5671 94.1424 65.2361 94.1058V92.959H66.2701V94.0832C67.0097 94.1189 67.7291 94.336 68.365 94.7153L67.8503 95.984C67.3662 95.6981 66.8282 95.5152 66.2701 95.4467V97.2031C66.688 97.2922 67.0974 97.4176 67.4936 97.5778C67.8214 97.7161 68.1099 97.9332 68.3334 98.2099C68.5747 98.5249 68.6963 98.9153 68.6766 99.3116C68.6837 99.5805 68.6353 99.8481 68.5343 100.097C68.4333 100.347 68.2819 100.573 68.0896 100.761ZM64.6898 96.6974C64.8598 96.8263 65.0529 96.9213 65.2587 96.9773V95.51C65.0453 95.547 64.8475 95.6459 64.6898 95.7944C64.5742 95.9167 64.5082 96.0776 64.5047 96.2459C64.4974 96.3305 64.5103 96.4156 64.5425 96.4941C64.5747 96.5726 64.6252 96.6423 64.6898 96.6974ZM66.848 99.9075C66.9098 99.85 66.9586 99.78 66.9913 99.7022C67.024 99.6243 67.0398 99.5404 67.0376 99.456C67.0396 99.3752 67.0231 99.295 66.9895 99.2215C66.9559 99.1479 66.9059 99.083 66.8435 99.0316C66.6794 98.902 66.4926 98.804 66.2927 98.7427V100.169C66.5051 100.134 66.7018 100.034 66.857 99.885L66.848 99.9075Z" fill="black"/>
</g>
<path d="M67.3987 100.76C66.8968 101.204 66.2613 101.468 65.5927 101.51V102.666H64.5588V101.541C64.0642 101.517 63.5752 101.426 63.1049 101.271C62.7043 101.15 62.3271 100.963 61.9897 100.715L62.5586 99.4556C62.836 99.6573 63.1399 99.8199 63.4616 99.9387C63.8105 100.068 64.1748 100.152 64.5452 100.187V98.4623C64.1228 98.3655 63.709 98.2342 63.3081 98.0695C62.9775 97.9297 62.686 97.7112 62.4593 97.4329C62.2194 97.1139 62.0995 96.7207 62.1207 96.3222C62.1178 96.0472 62.1716 95.7745 62.2788 95.5213C62.386 95.268 62.5443 95.0396 62.7437 94.8503C63.2444 94.4052 63.8809 94.1426 64.5497 94.1053V92.9585H65.5927V94.0827C66.3338 94.1177 67.0549 94.3348 67.6922 94.7148L67.173 95.9835C66.6888 95.6976 66.1508 95.5147 65.5927 95.4463V97.2026C66.0107 97.2917 66.4201 97.4171 66.8163 97.5773C67.1447 97.7166 67.4345 97.9335 67.6606 98.2094C67.8985 98.5259 68.0182 98.9156 67.9992 99.3111C68.0054 99.5811 67.9553 99.8495 67.8519 100.099C67.7485 100.349 67.5941 100.574 67.3987 100.76ZM64.0125 96.6653C64.1813 96.7933 64.3728 96.8882 64.5768 96.9452V95.4779C64.3596 95.5168 64.1586 95.6189 63.9989 95.7713C63.8833 95.8936 63.8173 96.0546 63.8138 96.2228C63.8031 96.311 63.8144 96.4004 63.8467 96.4832C63.879 96.5659 63.9313 96.6393 63.9989 96.6969L64.0125 96.6653ZM66.1706 99.8755C66.2311 99.8172 66.2788 99.7469 66.3107 99.6692C66.3426 99.5915 66.3579 99.5079 66.3557 99.424C66.3576 99.3436 66.3416 99.2638 66.3088 99.1904C66.276 99.117 66.2272 99.0518 66.1661 98.9996C66.0003 98.8699 65.8121 98.7719 65.6108 98.7106V100.137C65.8127 100.105 66.0019 100.018 66.1571 99.8845L66.1706 99.8755Z" fill="white"/>
<path d="M119.041 29.8432C122.571 26.3133 122.571 20.5901 119.041 17.0601C115.511 13.5302 109.788 13.5302 106.258 17.0601C102.728 20.5901 102.728 26.3133 106.258 29.8432C109.788 33.3732 115.511 33.3732 119.041 29.8432Z" fill="#F99013"/>
<path d="M120.033 25.5268C121.18 20.6682 118.171 15.7999 113.312 14.6531C108.454 13.5064 103.585 16.5155 102.439 21.3741C101.292 26.2327 104.301 31.101 109.16 32.2477C114.018 33.3945 118.887 30.3854 120.033 25.5268Z" fill="#F99013"/>
<path opacity="0.3" d="M120.033 25.5268C121.18 20.6682 118.171 15.7999 113.312 14.6531C108.454 13.5064 103.585 16.5155 102.439 21.3741C101.292 26.2327 104.301 31.101 109.16 32.2477C114.018 33.3945 118.887 30.3854 120.033 25.5268Z" fill="white"/>
<path opacity="0.2" d="M111.239 30.4035C115.077 30.4035 118.188 27.2925 118.188 23.4549C118.188 19.6173 115.077 16.5063 111.239 16.5063C107.402 16.5063 104.291 19.6173 104.291 23.4549C104.291 27.2925 107.402 30.4035 111.239 30.4035Z" fill="white"/>
<path opacity="0.1" d="M105.347 23.4549C105.348 21.7044 106.01 20.0187 107.2 18.7353C108.391 17.4519 110.022 16.6655 111.767 16.5334C111.591 16.5334 111.42 16.5063 111.239 16.5063C109.396 16.5063 107.629 17.2384 106.326 18.5415C105.023 19.8446 104.291 21.612 104.291 23.4549C104.291 25.2978 105.023 27.0652 106.326 28.3683C107.629 29.6714 109.396 30.4035 111.239 30.4035C111.42 30.4035 111.591 30.4035 111.767 30.3764C110.022 30.2444 108.391 29.4579 107.2 28.1745C106.01 26.8911 105.348 25.2054 105.347 23.4549Z" fill="black"/>
<g opacity="0.1">
<path opacity="0.1" d="M114.504 25.966C114.004 26.4124 113.367 26.6766 112.698 26.7155V27.8758H111.664V26.7471C111.168 26.722 110.678 26.6325 110.206 26.4807C109.805 26.3581 109.428 26.1688 109.09 25.9208L109.659 24.6611C109.936 24.8648 110.24 25.0289 110.562 25.1488C110.91 25.2798 111.275 25.3618 111.646 25.3926V23.6678C111.221 23.5732 110.806 23.4417 110.404 23.275C110.074 23.1381 109.784 22.9208 109.56 22.6429C109.318 22.3248 109.196 21.9314 109.217 21.5322C109.213 21.2568 109.267 20.9836 109.375 20.7302C109.483 20.4767 109.643 20.2486 109.844 20.0604C110.344 19.613 110.981 19.3487 111.65 19.3109V18.1641H112.684V19.2883C113.435 19.3287 114.164 19.5536 114.806 19.943L114.292 21.2117C113.806 20.9284 113.269 20.7457 112.711 20.6744V22.4307C113.129 22.524 113.538 22.6508 113.935 22.81C114.262 22.9465 114.551 23.1621 114.775 23.4376C115.014 23.7536 115.135 24.1433 115.118 24.5392C115.119 24.8065 115.065 25.0711 114.959 25.3165C114.854 25.562 114.699 25.7831 114.504 25.966ZM111.118 21.8709C111.286 22.0014 111.48 22.0966 111.686 22.1508V20.6834C111.47 20.7234 111.269 20.8253 111.109 20.9769C110.992 21.0987 110.926 21.2599 110.923 21.4284C110.917 21.5124 110.932 21.5965 110.966 21.6736C111 21.7507 111.052 21.8184 111.118 21.8709ZM113.276 25.0855C113.336 25.0274 113.384 24.9572 113.416 24.8794C113.448 24.8017 113.463 24.7181 113.461 24.634C113.463 24.5543 113.447 24.4751 113.414 24.4023C113.381 24.3296 113.332 24.2653 113.271 24.2141C113.108 24.0828 112.921 23.9846 112.72 23.9252V25.361C112.928 25.3242 113.121 25.2286 113.276 25.0855Z" fill="black"/>
</g>
<path d="M113.804 25.9655C113.302 26.4104 112.667 26.6743 111.998 26.715V27.8753H110.964V26.7466C110.468 26.7212 109.978 26.6316 109.505 26.4802C109.105 26.3576 108.728 26.1683 108.39 25.9203L108.959 24.6606C109.236 24.8643 109.54 25.0284 109.862 25.1483C110.21 25.2784 110.575 25.3604 110.946 25.3921V23.6673C110.521 23.5727 110.106 23.4412 109.704 23.2745C109.375 23.1364 109.085 22.9193 108.86 22.6424C108.62 22.3234 108.498 21.9306 108.517 21.5318C108.514 21.2564 108.568 20.9835 108.676 20.7302C108.784 20.4769 108.944 20.2486 109.144 20.0599C109.644 19.6125 110.281 19.3482 110.95 19.3104V18.1636H111.984V19.2878C112.723 19.3257 113.442 19.5426 114.079 19.9199L113.564 21.1886C113.079 20.9054 112.542 20.7226 111.984 20.6513V22.4077C112.402 22.5002 112.811 22.6271 113.208 22.7869C113.535 22.9234 113.824 23.1391 114.047 23.4145C114.289 23.7295 114.41 24.1199 114.391 24.5162C114.398 24.7851 114.349 25.0527 114.248 25.3021C114.147 25.5514 113.996 25.7773 113.804 25.9655ZM110.413 21.8704C110.582 22.001 110.775 22.0962 110.982 22.1503V20.6829C110.765 20.7229 110.564 20.8248 110.404 20.9764C110.287 21.0982 110.221 21.2595 110.219 21.4279C110.213 21.5119 110.227 21.596 110.261 21.6731C110.295 21.7502 110.347 21.8179 110.413 21.8704ZM112.571 25.0851C112.632 25.0272 112.681 24.9571 112.714 24.8793C112.746 24.8016 112.762 24.7179 112.761 24.6336C112.762 24.5535 112.745 24.4741 112.712 24.4014C112.678 24.3287 112.628 24.2646 112.567 24.2137C112.404 24.0823 112.216 23.9841 112.016 23.9247V25.3605C112.223 25.3237 112.416 25.2281 112.571 25.0851Z" fill="white"/>
<path d="M133.62 89.0984H122.983C122.861 89.0953 122.739 89.1172 122.625 89.1626C122.511 89.208 122.408 89.2761 122.322 89.3626C122.235 89.4492 122.167 89.5525 122.122 89.6662C122.076 89.7799 122.054 89.9016 122.057 90.024V100.657C122.057 100.779 122.08 100.9 122.127 101.012C122.173 101.125 122.241 101.228 122.327 101.314C122.413 101.401 122.515 101.469 122.628 101.516C122.74 101.563 122.861 101.587 122.983 101.587V103.393C122.985 103.519 123.024 103.642 123.095 103.746C123.166 103.851 123.266 103.932 123.383 103.98C123.5 104.028 123.628 104.041 123.752 104.017C123.876 103.993 123.99 103.933 124.08 103.844L126.338 101.587H133.62C133.742 101.587 133.863 101.563 133.976 101.516C134.088 101.469 134.19 101.401 134.276 101.314C134.362 101.228 134.43 101.125 134.477 101.012C134.523 100.9 134.546 100.779 134.546 100.657V90.024C134.549 89.9016 134.527 89.7799 134.482 89.6662C134.436 89.5525 134.368 89.4492 134.282 89.3626C134.195 89.2761 134.092 89.208 133.978 89.1626C133.864 89.1172 133.743 89.0953 133.62 89.0984Z" fill="#F99013"/>
<g opacity="0.9">
<path opacity="0.9" d="M131.277 94.2954H125.611L125.398 93.5098H123.498V93.8619H125.127L126.306 98.2144H130.207V97.8622H126.595L126.387 97.0992H130.351L131.277 94.2954ZM126.274 96.747L125.705 94.6475H130.785L130.08 96.747H126.274Z" fill="white"/>
<path opacity="0.9" d="M126.5 99.0408C126.695 99.0408 126.852 98.8831 126.852 98.6886C126.852 98.4941 126.695 98.3364 126.5 98.3364C126.306 98.3364 126.148 98.4941 126.148 98.6886C126.148 98.8831 126.306 99.0408 126.5 99.0408Z" fill="white"/>
<path opacity="0.9" d="M130.559 98.6886C130.559 98.7582 130.538 98.8263 130.499 98.8843C130.461 98.9422 130.406 98.9873 130.341 99.0139C130.277 99.0406 130.206 99.0476 130.138 99.034C130.07 99.0204 130.007 98.9869 129.958 98.9376C129.908 98.8884 129.875 98.8256 129.861 98.7573C129.848 98.689 129.855 98.6182 129.881 98.5538C129.908 98.4895 129.953 98.4345 130.011 98.3958C130.069 98.3571 130.137 98.3364 130.207 98.3364C130.3 98.3364 130.39 98.3735 130.456 98.4396C130.522 98.5056 130.559 98.5952 130.559 98.6886Z" fill="white"/>
</g>
<path d="M130.117 95.2297C131.261 95.2297 132.189 94.3019 132.189 93.1573C132.189 92.0128 131.261 91.085 130.117 91.085C128.972 91.085 128.044 92.0128 128.044 93.1573C128.044 94.3019 128.972 95.2297 130.117 95.2297Z" fill="#F99013"/>
<path opacity="0.3" d="M130.117 95.2297C131.261 95.2297 132.189 94.3019 132.189 93.1573C132.189 92.0128 131.261 91.085 130.117 91.085C128.972 91.085 128.044 92.0128 128.044 93.1573C128.044 94.3019 128.972 95.2297 130.117 95.2297Z" fill="black"/>
<g opacity="0.9">
<path opacity="0.9" d="M130.053 94.4984L128.351 92.733C128.222 92.6028 128.149 92.4267 128.149 92.2431C128.149 92.0596 128.222 91.8835 128.351 91.7532C128.415 91.6887 128.492 91.6374 128.576 91.6025C128.66 91.5675 128.75 91.5495 128.841 91.5495C128.932 91.5495 129.022 91.5675 129.106 91.6025C129.191 91.6374 129.267 91.6887 129.331 91.7532L130.076 92.5253L132.334 90.2452C132.398 90.1807 132.474 90.1294 132.558 90.0945C132.642 90.0595 132.732 90.0415 132.823 90.0415C132.914 90.0415 133.005 90.0595 133.089 90.0945C133.173 90.1294 133.249 90.1807 133.313 90.2452C133.442 90.3747 133.515 90.5501 133.515 90.7329C133.515 90.9157 133.442 91.091 133.313 91.2205L130.053 94.4984Z" fill="white"/>
</g>
<path d="M81.6437 47.7769H41.7583V80.19H81.6437V47.7769Z" fill="#F99013"/>
<path opacity="0.5" d="M81.6437 47.7769H41.7583V80.19H81.6437V47.7769Z" fill="white"/>
<path d="M46.4716 44.1606H40.3809V48.477H46.4716V44.1606Z" fill="#F99013"/>
<path d="M58.581 44.1606H52.4902V48.477H58.581V44.1606Z" fill="#F99013"/>
<path d="M70.6947 44.1606H64.604V48.477H70.6947V44.1606Z" fill="#F99013"/>
<path d="M82.8085 44.1606H76.7178V48.477H82.8085V44.1606Z" fill="#F99013"/>
<g opacity="0.2">
<path opacity="0.2" d="M46.4716 44.1606H40.3809V48.477H46.4716V44.1606Z" fill="white"/>
<path opacity="0.2" d="M58.581 44.1606H52.4902V48.477H58.581V44.1606Z" fill="white"/>
<path opacity="0.2" d="M70.6947 44.1606H64.604V48.477H70.6947V44.1606Z" fill="white"/>
<path opacity="0.2" d="M82.808 44.1606H76.7173V48.477H82.808V44.1606Z" fill="white"/>
</g>
<path d="M46.6569 51.4612C46.6569 52.5132 45.2528 53.3665 43.4964 53.3665C41.7401 53.3665 40.3359 52.5132 40.3359 51.4612V48.4316H46.4267L46.6569 51.4612Z" fill="#F99013"/>
<path d="M58.7799 51.4612C58.7799 52.5132 57.3757 53.3665 55.6194 53.3665C53.863 53.3665 52.4814 52.5132 52.4814 51.4612V48.4316H58.5767L58.7799 51.4612Z" fill="#F99013"/>
<path d="M70.9023 51.4612C70.9023 52.5132 69.4981 53.3665 67.7644 53.3665C66.0306 53.3665 64.6265 52.5132 64.6265 51.4612V48.4316H70.7217L70.9023 51.4612Z" fill="#F99013"/>
<path d="M82.8131 51.4612C82.8131 52.5132 81.5896 53.3665 79.8558 53.3665C78.122 53.3665 76.6953 52.5132 76.6953 51.4612V48.4316H82.7905L82.8131 51.4612Z" fill="#F99013"/>
<path d="M52.5263 48.4318V44.1606H46.4355V48.4725V51.4614C46.4355 52.5134 47.8397 53.3667 49.596 53.3667C51.3524 53.3667 52.5534 52.5134 52.5534 51.4614V48.4318H52.5263Z" fill="#263238"/>
<path opacity="0.8" d="M52.5263 44.1606H46.4355V51.4614C46.4355 52.5134 47.8397 53.3667 49.596 53.3667C51.3524 53.3667 52.5534 52.5134 52.5534 51.4614L52.5263 44.1606Z" fill="#FCC789"/>
<path d="M64.6897 48.4318V44.1606H58.5854V48.4725V51.4614C58.5854 52.5134 59.9896 53.3667 61.7234 53.3667C63.4571 53.3667 64.6807 52.5134 64.6807 51.4614V48.4318H64.6897Z" fill="#263238"/>
<path opacity="0.8" d="M64.6897 44.1606H58.5854V51.4614C58.5854 52.5134 59.9896 53.3667 61.7234 53.3667C63.4571 53.3667 64.6807 52.5134 64.6807 51.4614L64.6897 44.1606Z" fill="#FCC789"/>
<path d="M76.7899 48.4318V44.1606H70.6992V48.4725V51.4614C70.6992 52.5134 72.1034 53.3667 73.8597 53.3667C75.616 53.3667 76.817 52.5134 76.817 51.4614V48.4318H76.7899Z" fill="#263238"/>
<path opacity="0.8" d="M76.7899 44.1606H70.6992V51.4614C70.6992 52.5134 72.1034 53.3667 73.8597 53.3667C75.616 53.3667 76.817 52.5134 76.817 51.4614L76.7899 44.1606Z" fill="#FCC789"/>
<path opacity="0.5" d="M77.3315 57.918H59.1406V68.2392H77.3315V57.918Z" fill="white"/>
<path opacity="0.4" d="M70.7895 68.2299H67.498L69.9677 58.0215H73.2637L70.7895 68.2299Z" fill="white"/>
<path opacity="0.4" d="M72.3877 68.2299H71.6562L74.1305 58.0215H74.8574L72.3877 68.2299Z" fill="white"/>
<path opacity="0.4" d="M62.2428 68.2299H61.8726L64.3468 58.0215H64.717L62.2428 68.2299Z" fill="white"/>
<path d="M77.6931 68.6003H58.7798V57.5566H77.6931V68.6003ZM59.5022 67.8779H76.9707V58.279H59.5022V67.8779Z" fill="#F99013"/>
<path d="M54.7073 54.1431H43.772V80.0997H54.7073V54.1431Z" fill="#F99013"/>
<path opacity="0.7" d="M54.242 54.6128H44.2368V80.0954H54.242V54.6128Z" fill="white"/>
<path opacity="0.1" d="M49.0049 57.9766H44.9956V67.309H49.0049V57.9766Z" fill="black"/>
<path opacity="0.1" d="M53.5376 57.9766H49.5283V67.309H53.5376V57.9766Z" fill="black"/>
<path opacity="0.1" d="M53.538 70.1309H44.9956V79.4633H53.538V70.1309Z" fill="black"/>
<path opacity="0.1" d="M53.5425 57.4934H44.9956C44.9956 56.909 45.2277 56.3486 45.6409 55.9354C46.0541 55.5222 46.6146 55.29 47.1989 55.29H51.3392C51.9235 55.29 52.4839 55.5222 52.8971 55.9354C53.3103 56.3486 53.5425 56.909 53.5425 57.4934Z" fill="black"/>
<path d="M45.727 67.729H44.9956V69.6298H45.727V67.729Z" fill="#F99013"/>
<path opacity="0.3" d="M45.727 67.729H44.9956V69.6298H45.727V67.729Z" fill="white"/>
<path d="M45.7222 69.6294H45.8667V67.7286H45.7222V69.6294Z" fill="#F99013"/>
<path d="M45.4832 68.4735C45.4832 68.5342 45.4652 68.5936 45.4314 68.6441C45.3977 68.6946 45.3497 68.7339 45.2936 68.7572C45.2375 68.7804 45.1758 68.7865 45.1163 68.7746C45.0567 68.7628 45.002 68.7336 44.9591 68.6906C44.9161 68.6477 44.8869 68.593 44.875 68.5334C44.8632 68.4739 44.8693 68.4121 44.8925 68.356C44.9157 68.2999 44.9551 68.252 45.0056 68.2182C45.0561 68.1845 45.1154 68.1665 45.1762 68.1665C45.2576 68.1665 45.3357 68.1989 45.3933 68.2564C45.4508 68.314 45.4832 68.3921 45.4832 68.4735Z" fill="#263238"/>
<path opacity="0.5" d="M45.4241 69.0063H45.2661V69.3901H45.4241V69.0063Z" fill="white"/>
<path d="M44.905 68.9028C45.1419 68.9028 45.3339 68.7107 45.3339 68.4739C45.3339 68.237 45.1419 68.0449 44.905 68.0449C44.6681 68.0449 44.4761 68.237 44.4761 68.4739C44.4761 68.7107 44.6681 68.9028 44.905 68.9028Z" fill="#263238"/>
<path opacity="0.2" d="M44.905 68.9028C45.1419 68.9028 45.3339 68.7107 45.3339 68.4739C45.3339 68.237 45.1419 68.0449 44.905 68.0449C44.6681 68.0449 44.4761 68.237 44.4761 68.4739C44.4761 68.7107 44.6681 68.9028 44.905 68.9028Z" fill="white"/>
<path d="M159.96 88.0825H143.874L146.948 92.1189H163.031L159.96 88.0825Z" fill="#F99013"/>
<path opacity="0.3" d="M159.96 88.0825H143.874L146.948 92.1189H163.031L159.96 88.0825Z" fill="white"/>
<path d="M165.943 88.0825H175.822L172.914 92.1189H163.031L165.943 88.0825Z" fill="#F99013"/>
<path opacity="0.1" d="M165.943 88.0825H175.822L172.914 92.1189H163.031L165.943 88.0825Z" fill="white"/>
<path d="M163.035 92.1191H146.948V108.206H163.035V92.1191Z" fill="#F99013"/>
<path opacity="0.5" d="M163.035 92.1191H146.948V108.206H163.035V92.1191Z" fill="white"/>
<path opacity="0.2" d="M156.443 92.1191H153.531V95.7402H156.443V92.1191Z" fill="black"/>
<path opacity="0.2" d="M156.443 105.298H153.531V108.206H156.443V105.298Z" fill="black"/>
<path d="M172.91 92.1191H163.031V108.206H172.91V92.1191Z" fill="#F99013"/>
<path opacity="0.3" d="M172.91 92.1191H163.031V108.206H172.91V92.1191Z" fill="white"/>
<path opacity="0.8" d="M168.611 107.149V104.237H164.173V107.149H168.611Z" fill="white"/>
<path d="M123.981 152.041C127.701 152.231 129.561 152.348 133.277 152.642C132.675 139.259 131.897 125.889 130.943 112.531C130.816 110.833 129.173 109.37 127.277 109.257L123.665 109.077C109.582 108.553 95.5633 108.707 81.4946 109.528C84.6401 123.639 87.5703 137.786 90.2853 151.969C101.55 151.545 112.729 151.558 123.981 152.041Z" fill="#F99013"/>
<path d="M94.4481 151.825C90.7277 151.96 88.8675 152.055 85.1472 152.276C82.6369 139.117 79.967 125.992 77.1376 112.901C76.7719 111.24 78.0135 109.768 79.9143 109.632C81.3501 109.533 82.0725 109.483 83.5263 109.398C85.4271 109.28 87.2286 110.558 87.5447 112.229C90.0068 125.406 92.308 138.605 94.4481 151.825Z" fill="#F99013"/>
<path d="M99.6358 159.243L97.875 139.097C97.8354 138.661 97.6483 138.252 97.3446 137.937C97.0408 137.621 96.6386 137.419 96.2045 137.363L95.4775 137.269C94.8914 137.198 94.3473 136.927 93.9364 136.503C93.5255 136.079 93.2726 135.527 93.22 134.939L92.8995 131.268C92.8682 130.912 92.9113 130.553 93.0262 130.214C93.1411 129.876 93.3252 129.564 93.5668 129.301C93.8085 129.037 94.1023 128.827 94.4297 128.683C94.7571 128.539 95.1109 128.464 95.4685 128.464H79.2146C78.8573 128.465 78.504 128.54 78.1771 128.684C77.8503 128.828 77.557 129.039 77.3159 129.302C77.0747 129.566 76.891 129.877 76.7764 130.215C76.6618 130.554 76.6188 130.912 76.65 131.268L76.9706 134.939C77.0232 135.527 77.2761 136.079 77.687 136.503C78.0979 136.927 78.6419 137.198 79.2281 137.269L79.955 137.363C80.3892 137.419 80.7914 137.621 81.0951 137.937C81.3988 138.252 81.586 138.661 81.6256 139.097L83.3864 159.243C83.4485 159.951 83.7737 160.61 84.2978 161.089C84.8219 161.569 85.5068 161.835 86.2173 161.835H102.471C101.76 161.835 101.075 161.569 100.55 161.09C100.025 160.61 99.699 159.951 99.6358 159.243Z" fill="#FCC789"/>
<path d="M144.37 134.058C144.504 132.531 145.205 131.11 146.335 130.074C147.465 129.039 148.942 128.464 150.475 128.464H136.32C134.788 128.465 133.311 129.04 132.181 130.075C131.051 131.111 130.35 132.532 130.216 134.058L128.803 150.023H142.953L144.37 134.058Z" fill="#A07543"/>
<path d="M141.214 149.278C131.42 150.422 121.541 150.654 111.704 149.974C111.366 149.958 111.035 149.874 110.729 149.729C110.423 149.584 110.149 149.379 109.923 149.127C109.697 148.875 109.524 148.581 109.412 148.261C109.301 147.941 109.255 147.603 109.275 147.265C109.56 144.678 109.7 143.386 109.984 140.799C110.06 140.152 110.386 139.559 110.892 139.148C111.397 138.737 112.044 138.539 112.693 138.596C121.673 139.416 130.718 139.198 139.648 137.946C140.296 137.853 140.955 138.017 141.484 138.404C142.013 138.79 142.37 139.368 142.479 140.014L143.494 146.438C143.534 146.775 143.507 147.116 143.414 147.442C143.32 147.768 143.163 148.073 142.951 148.337C142.738 148.601 142.475 148.821 142.177 148.982C141.879 149.144 141.552 149.245 141.214 149.278Z" fill="#FCC789"/>
<path d="M112.517 138.596C110.26 138.393 109.163 138.267 106.937 137.96C106.288 137.866 105.628 138.029 105.098 138.416C104.568 138.802 104.21 139.381 104.101 140.027L103.067 146.452C103.029 146.789 103.059 147.13 103.154 147.455C103.249 147.78 103.408 148.083 103.621 148.346C103.835 148.61 104.099 148.828 104.397 148.988C104.696 149.148 105.024 149.247 105.361 149.279C107.804 149.613 109.023 149.753 111.474 149.974C111.903 145.423 112.097 143.147 112.517 138.596Z" fill="#A07543"/>
<path d="M156.755 128.464H150.475C148.943 128.465 147.467 129.04 146.337 130.076C145.208 131.111 144.508 132.532 144.375 134.059L142.975 150.024H109.266L107.871 134.059C107.738 132.532 107.038 131.111 105.909 130.076C104.78 129.04 103.304 128.465 101.772 128.464H95.4866C95.129 128.464 94.7752 128.539 94.4478 128.683C94.1204 128.827 93.8266 129.037 93.585 129.301C93.3433 129.565 93.1592 129.876 93.0443 130.214C92.9295 130.553 92.8863 130.912 92.9176 131.268L93.2382 134.939C93.2908 135.527 93.5437 136.079 93.9546 136.503C94.3655 136.927 94.9095 137.198 95.4957 137.269L96.2226 137.363C96.6568 137.419 97.059 137.621 97.3627 137.937C97.6664 138.252 97.8535 138.661 97.8931 139.097L99.654 159.243C99.7171 159.951 100.043 160.609 100.566 161.088C101.09 161.568 101.775 161.834 102.485 161.835H149.77C150.481 161.835 151.167 161.57 151.692 161.09C152.216 160.61 152.543 159.951 152.606 159.243L154.367 139.097C154.405 138.661 154.591 138.25 154.895 137.935C155.199 137.619 155.602 137.418 156.037 137.363L156.76 137.269C157.346 137.198 157.891 136.929 158.302 136.504C158.713 136.08 158.965 135.527 159.017 134.939L159.338 131.268C159.37 130.911 159.327 130.55 159.211 130.21C159.096 129.87 158.911 129.558 158.667 129.294C158.424 129.03 158.128 128.82 157.799 128.677C157.47 128.534 157.114 128.462 156.755 128.464Z" fill="#F99013"/>
<path d="M136.297 153.532L137.81 160.552L140.167 159.74L139.891 153.098L136.297 153.532Z" fill="#FFC3BD"/>
<path d="M114.197 124.058C116.454 124.081 118.703 123.788 120.879 123.187L123.1 127.851C123.1 127.851 137.002 125.358 138.772 129.656C140.284 133.309 140.348 155.843 140.348 155.843L136.478 156.295C136.478 156.295 132.239 139.892 132.257 134.46C132.258 134.365 132.232 134.27 132.182 134.188C132.132 134.106 132.061 134.04 131.975 133.997C131.889 133.954 131.793 133.937 131.697 133.946C131.602 133.955 131.511 133.991 131.435 134.05C129.299 135.711 123.615 139.305 115.009 138.75C113.678 138.664 112.12 138.375 112.517 134.027C112.897 130.676 113.458 127.348 114.197 124.058Z" fill="#407BFF"/>
<path opacity="0.1" d="M121.899 136.429C125.714 134.736 131.006 130.108 133.453 128.392C134.021 127.975 134.668 127.675 135.354 127.512C133.232 127.06 130.514 127.06 128.175 127.245L122.626 129.697L113.718 133.67L112.616 136.831C113 138.524 114.066 138.7 115.023 138.763C118.413 139 121.816 138.558 125.032 137.463C124.59 137.485 118.219 138.059 121.899 136.429Z" fill="black"/>
<path d="M148.479 140.669L153.247 145.486L155.098 144.028L151.423 138.501L148.479 140.669Z" fill="#FFC3BD"/>
<path d="M154.755 143.369L152.606 145.008C152.561 145.043 152.53 145.093 152.517 145.149C152.504 145.204 152.51 145.263 152.534 145.315L153.622 147.662C153.668 147.762 153.752 147.84 153.855 147.879C153.958 147.918 154.072 147.915 154.172 147.87C154.199 147.858 154.225 147.842 154.249 147.825C155.13 147.13 155.884 146.47 156.99 145.626C158.299 144.628 158.087 145.039 159.64 143.883C160.579 143.188 159.943 142.005 159.509 142.253C157.536 143.4 156.615 143.247 155.446 143.134C155.194 143.122 154.947 143.206 154.755 143.369Z" fill="#263238"/>
<path opacity="0.1" d="M115.637 127.457L118.012 128.026C118.012 128.026 122.455 124.572 120.382 125.715C118.87 126.554 118.125 124.812 117.813 123.823C116.87 123.954 116.043 124.012 115.42 124.039L115.637 127.457Z" fill="black"/>
<path d="M116.657 123.787C110.765 124.762 108.165 123.846 108.165 123.846C108.165 123.846 103.966 138.93 113.226 138.867C117.33 138.84 119.032 137.233 121.7 135.666C127.769 132.104 132.78 126.826 135.128 127.169C138.501 127.656 136.591 131.684 150.348 142.867L153.202 140.357C153.202 140.357 141.314 119.006 135.069 119.051C129.055 119.091 119.38 126.65 118.107 126.659C116.833 126.668 116.657 123.787 116.657 123.787Z" fill="#407BFF"/>
<path opacity="0.1" d="M137.006 128.026C137.782 128.317 138.416 128.896 138.776 129.643C139.008 130.292 139.168 130.964 139.255 131.647C139.643 132.207 140.104 132.835 140.645 133.521C140.284 128.997 137.006 128.026 137.006 128.026Z" fill="black"/>
<path d="M140.131 159.108L137.422 159.27C137.365 159.273 137.31 159.295 137.267 159.332C137.225 159.37 137.196 159.422 137.187 159.478L136.776 162.038C136.766 162.092 136.768 162.147 136.78 162.201C136.792 162.255 136.814 162.305 136.846 162.35C136.878 162.394 136.919 162.432 136.966 162.461C137.013 162.489 137.065 162.508 137.119 162.517C137.148 162.521 137.176 162.521 137.205 162.517C138.325 162.431 139.313 162.313 140.708 162.232C142.352 162.133 141.946 162.354 143.869 162.268C145.038 162.214 145.169 160.878 144.673 160.842C142.415 160.693 141.72 160.047 140.799 159.288C140.604 159.151 140.368 159.087 140.131 159.108Z" fill="#263238"/>
<path d="M115.962 103.768C116.725 103.474 117.989 103.98 119.086 105.939C120.183 107.899 124.852 115.981 123.525 117.019C122.197 118.058 119.655 115.114 118.721 113.001C117.786 110.888 114.625 104.287 115.962 103.768Z" fill="#263238"/>
<path opacity="0.4" d="M118.012 107.497L118.174 108.793L118.088 111.597C118.341 112.161 118.563 112.644 118.721 113.001C119.127 113.878 119.648 114.698 120.269 115.439C120.468 111.488 118.978 107.497 118.978 107.497H118.012Z" fill="black"/>
<path d="M107.876 124.134C107.876 124.134 116.034 125.105 121.24 123.394C121.24 123.394 119.655 121.398 119.434 117.403C119.231 113.484 120.897 108.779 116.973 104.011C116.897 103.918 116.799 103.844 116.688 103.797C116.578 103.75 116.457 103.731 116.337 103.74C114.273 103.885 104.666 104.643 104.526 106.345C104.363 108.504 108.562 113.109 107.876 124.134Z" fill="#263238"/>
<path d="M108.675 99.2344C108.675 99.2344 109.745 102.354 108.914 103.691C108.914 103.691 111.917 103.844 112.648 102.864C112.648 102.864 112.224 102.634 112.088 101.442C111.953 100.25 110.81 99.0177 108.675 99.2344Z" fill="#FFC3BD"/>
<path opacity="0.2" d="M112.097 101.442C111.975 100.341 110.982 99.1848 109.135 99.2119L109.009 99.3248L108.878 99.5641C108.878 99.5641 110.011 102.607 112.287 102.273C112.189 102.005 112.126 101.726 112.097 101.442Z" fill="black"/>
<path d="M107.546 95.0939C107.903 97.9609 107.998 99.1844 109.537 100.571C111.867 102.661 115.312 101.595 115.822 98.6743C116.274 96.0465 115.619 91.7979 112.729 90.8272C112.093 90.6102 111.411 90.5596 110.749 90.68C110.088 90.8005 109.468 91.0882 108.948 91.5157C108.429 91.9431 108.028 92.4963 107.782 93.1225C107.537 93.7488 107.456 94.4274 107.546 95.0939Z" fill="#FFC3BD"/>
<path d="M113.903 96.7827C114.146 97.3044 114.459 97.7905 114.833 98.2275C114.72 98.3208 114.588 98.3882 114.446 98.4249C114.304 98.4615 114.156 98.4666 114.012 98.4397L113.903 96.7827Z" fill="#ED893E"/>
<path d="M111.361 95.2884L111.307 95.2658C111.286 95.2439 111.274 95.2148 111.274 95.1845C111.274 95.1542 111.286 95.1251 111.307 95.1033C111.438 94.9317 111.608 94.7939 111.802 94.7012C111.997 94.6085 112.211 94.5637 112.427 94.5705C112.453 94.5778 112.477 94.5944 112.492 94.6172C112.508 94.64 112.515 94.6676 112.513 94.6951C112.51 94.7227 112.497 94.7484 112.478 94.7677C112.458 94.787 112.432 94.7987 112.404 94.8007C112.229 94.7993 112.055 94.8395 111.898 94.918C111.742 94.9965 111.605 95.111 111.501 95.2522C111.485 95.2724 111.462 95.2868 111.437 95.2933C111.412 95.2998 111.385 95.2981 111.361 95.2884Z" fill="#2E353A"/>
<path d="M115.619 94.8324L115.565 94.8098C115.426 94.6995 115.264 94.6236 115.09 94.5882C114.917 94.5529 114.737 94.5592 114.567 94.6066C114.553 94.6125 114.538 94.6155 114.523 94.6155C114.508 94.6154 114.493 94.6124 114.479 94.6065C114.465 94.6006 114.452 94.592 114.442 94.5812C114.431 94.5703 114.423 94.5575 114.418 94.5434C114.412 94.5293 114.41 94.5141 114.41 94.4988C114.411 94.4836 114.415 94.4687 114.422 94.455C114.428 94.4414 114.438 94.4294 114.45 94.4197C114.462 94.41 114.475 94.403 114.49 94.399C114.696 94.3382 114.914 94.3274 115.125 94.3675C115.336 94.4075 115.535 94.4972 115.705 94.6292C115.717 94.6378 115.727 94.6487 115.735 94.6612C115.743 94.6738 115.749 94.6879 115.751 94.7026C115.754 94.7173 115.753 94.7323 115.75 94.7469C115.746 94.7614 115.74 94.7751 115.732 94.7872C115.719 94.8052 115.702 94.8193 115.682 94.8281C115.662 94.8369 115.64 94.8399 115.619 94.8369V94.8324Z" fill="#2E353A"/>
<path d="M112.21 96.4982C112.21 96.733 112.364 96.9136 112.517 96.9046C112.671 96.8956 112.783 96.7014 112.765 96.4531C112.747 96.2048 112.616 96.0377 112.463 96.0467C112.309 96.0558 112.197 96.2454 112.21 96.4982Z" fill="#2E353A"/>
<path d="M114.865 96.3312C114.865 96.566 115.014 96.7466 115.167 96.7376C115.321 96.7286 115.429 96.5344 115.416 96.2861C115.402 96.0378 115.267 95.8707 115.113 95.8797C114.96 95.8888 114.847 96.0965 114.865 96.3312Z" fill="#2E353A"/>
<path d="M115.05 95.907L115.601 95.7129C115.601 95.7129 115.339 96.1689 115.05 95.907Z" fill="#2E353A"/>
<path d="M112.395 96.0741L112.95 95.8755C112.95 95.8755 112.684 96.336 112.395 96.0741Z" fill="#2E353A"/>
<path d="M112.499 98.8503C112.437 98.7784 112.381 98.7014 112.332 98.62C112.323 98.6094 112.318 98.5957 112.318 98.5816C112.318 98.5675 112.323 98.5539 112.332 98.5433C112.343 98.5348 112.357 98.5303 112.371 98.5303C112.384 98.5303 112.398 98.5348 112.409 98.5433C112.531 98.748 112.7 98.921 112.901 99.0481C113.103 99.1752 113.332 99.2528 113.569 99.2747C113.582 99.2782 113.592 99.2856 113.6 99.2958C113.608 99.306 113.612 99.3184 113.612 99.3311C113.612 99.3439 113.608 99.3563 113.6 99.3665C113.592 99.3767 113.582 99.3841 113.569 99.3876C113.364 99.3728 113.164 99.3177 112.981 99.2255C112.797 99.1333 112.633 99.0058 112.499 98.8503Z" fill="#263238"/>
<path opacity="0.4" d="M108.869 113.854C108.418 111.813 106.869 108.296 106.869 108.296L105.745 107.984L105.194 108.743C106.174 111.181 107.903 115.064 107.948 121.475C110.115 121.407 112.513 118.351 112.513 118.351L111.285 115.642C109.917 116.319 109.307 115.913 108.869 113.854Z" fill="black"/>
<path d="M108.368 97.3741C108.368 97.3741 110.228 96.5253 109.144 94.9315C109.144 94.9315 111.05 95.1934 111.208 93.3332C111.208 93.3332 112.901 94.1865 113.853 92.8591C113.853 92.8591 115.659 93.884 116.075 92.6018C116.49 91.3195 115.082 90.9809 115.082 90.9809C115.082 90.9809 115.298 89.7167 114.567 89.3826C114.324 89.2953 114.063 89.2698 113.807 89.3084C113.552 89.3471 113.31 89.4486 113.104 89.6038C113.104 89.6038 112.964 88.0958 111.75 88.1545C111.371 88.1898 111.006 88.3116 110.681 88.5104C110.357 88.7092 110.083 88.9798 109.88 89.3013C109.546 89.0926 109.166 88.9681 108.773 88.9382C108.38 88.9083 107.985 88.974 107.623 89.1297C106.417 89.6761 106.219 91.3195 106.219 91.3195C106.219 91.3195 104.864 91.5949 104.643 92.6424C104.422 93.6899 104.855 94.0466 104.855 94.0466C104.855 94.0466 104.124 95.0534 104.358 95.9835C104.593 96.9136 105.081 96.8865 105.081 96.8865C104.992 97.6143 105.172 98.3494 105.587 98.9544C106.259 99.7625 106.769 99.4059 106.769 99.4059C106.769 99.4059 106.991 101.212 108.228 101.027C109.465 100.842 108.368 97.3741 108.368 97.3741Z" fill="#263238"/>
<path d="M107.005 97.4146C107.199 97.9387 107.594 98.3642 108.102 98.5975C108.779 98.9045 109.226 98.3266 109.131 97.6313C109.05 97.0082 108.594 96.0917 107.871 96.0781C107.618 96.0829 107.377 96.1875 107.2 96.3693C107.023 96.5511 106.925 96.7953 106.928 97.0488C106.929 97.1746 106.955 97.299 107.005 97.4146Z" fill="#FFC3BD"/>
<path d="M108.368 104.697L109.099 102.557C109.871 102.851 110.703 102.956 111.524 102.864C112.427 102.76 112.395 102.354 112.395 102.354L114.201 103.916L113.429 104.905L112.043 104.268L110.995 105.433L108.368 104.697Z" fill="#263238"/>
<path opacity="0.7" d="M108.368 104.697L109.099 102.557C109.871 102.851 110.703 102.956 111.524 102.864C112.427 102.76 112.395 102.354 112.395 102.354L114.201 103.916L113.429 104.905L112.043 104.268L110.995 105.433L108.368 104.697Z" fill="white"/>
<path d="M118.355 113.145H116.612C116.531 113.148 116.45 113.132 116.377 113.098C116.303 113.064 116.238 113.013 116.188 112.949C116.138 112.885 116.104 112.81 116.088 112.731C116.072 112.651 116.075 112.569 116.098 112.491L117.064 107.921C117.106 107.741 117.206 107.579 117.349 107.461C117.491 107.343 117.669 107.275 117.854 107.267H119.606C119.687 107.264 119.767 107.281 119.84 107.316C119.913 107.35 119.977 107.401 120.027 107.465C120.076 107.529 120.11 107.603 120.126 107.683C120.141 107.762 120.138 107.844 120.116 107.921L119.145 112.5C119.101 112.678 119.001 112.838 118.858 112.954C118.716 113.071 118.539 113.138 118.355 113.145Z" fill="#407BFF"/>
<path opacity="0.3" d="M118.355 113.145H116.612C116.531 113.148 116.45 113.132 116.377 113.098C116.303 113.064 116.238 113.013 116.188 112.949C116.138 112.885 116.104 112.81 116.088 112.731C116.072 112.651 116.075 112.569 116.098 112.491L117.064 107.921C117.106 107.741 117.206 107.579 117.349 107.461C117.491 107.343 117.669 107.275 117.854 107.267H119.606C119.687 107.264 119.767 107.281 119.84 107.316C119.913 107.35 119.977 107.401 120.027 107.465C120.076 107.529 120.11 107.603 120.126 107.683C120.141 107.762 120.138 107.844 120.116 107.921L119.145 112.5C119.101 112.678 119.001 112.838 118.858 112.954C118.716 113.071 118.539 113.138 118.355 113.145Z" fill="white"/>
<path d="M118.613 113.145H116.865C116.784 113.148 116.703 113.132 116.63 113.098C116.556 113.064 116.491 113.013 116.441 112.949C116.391 112.885 116.357 112.81 116.341 112.731C116.325 112.651 116.328 112.569 116.351 112.491L117.321 107.921C117.363 107.741 117.464 107.579 117.606 107.461C117.749 107.343 117.926 107.275 118.111 107.267H119.863C119.944 107.264 120.024 107.281 120.097 107.316C120.17 107.35 120.234 107.401 120.284 107.465C120.334 107.529 120.368 107.603 120.383 107.683C120.399 107.762 120.395 107.844 120.373 107.921L119.403 112.5C119.359 112.678 119.258 112.838 119.115 112.954C118.973 113.071 118.796 113.138 118.613 113.145Z" fill="#407BFF"/>
<path opacity="0.7" d="M118.613 113.145H116.865C116.784 113.148 116.703 113.132 116.63 113.098C116.556 113.064 116.491 113.013 116.441 112.949C116.391 112.885 116.357 112.81 116.341 112.731C116.325 112.651 116.328 112.569 116.351 112.491L117.321 107.921C117.363 107.741 117.464 107.579 117.606 107.461C117.749 107.343 117.926 107.275 118.111 107.267H119.863C119.944 107.264 120.024 107.281 120.097 107.316C120.17 107.35 120.234 107.401 120.284 107.465C120.334 107.529 120.368 107.603 120.383 107.683C120.399 107.762 120.395 107.844 120.373 107.921L119.403 112.5C119.359 112.678 119.258 112.838 119.115 112.954C118.973 113.071 118.796 113.138 118.613 113.145Z" fill="white"/>
<path d="M117.917 108.621H118.089C118.214 108.614 118.333 108.566 118.429 108.484C118.524 108.403 118.59 108.292 118.617 108.169L118.653 107.998C118.671 107.945 118.675 107.888 118.666 107.833C118.657 107.778 118.635 107.726 118.601 107.681C118.567 107.637 118.523 107.601 118.472 107.578C118.421 107.554 118.366 107.543 118.31 107.546H118.138C118.013 107.553 117.893 107.601 117.798 107.683C117.702 107.765 117.636 107.875 117.61 107.998L117.574 108.169C117.556 108.222 117.552 108.279 117.561 108.334C117.57 108.389 117.592 108.441 117.626 108.486C117.66 108.53 117.704 108.566 117.755 108.589C117.805 108.613 117.861 108.624 117.917 108.621Z" fill="#407BFF"/>
<path d="M118.337 107.836C118.327 107.886 118.3 107.931 118.26 107.964C118.221 107.997 118.172 108.015 118.12 108.016C118.098 108.018 118.075 108.014 118.054 108.005C118.033 107.996 118.015 107.982 118 107.964C117.986 107.946 117.976 107.925 117.972 107.903C117.968 107.88 117.969 107.857 117.976 107.836C117.988 107.786 118.017 107.741 118.057 107.709C118.096 107.676 118.146 107.657 118.197 107.655C118.219 107.654 118.242 107.658 118.262 107.668C118.282 107.677 118.3 107.691 118.314 107.709C118.328 107.727 118.337 107.747 118.341 107.769C118.345 107.791 118.344 107.814 118.337 107.836Z" fill="#263238"/>
<path d="M118.229 108.359C118.216 108.409 118.188 108.454 118.148 108.486C118.108 108.519 118.059 108.538 118.007 108.54C117.985 108.541 117.963 108.536 117.942 108.527C117.922 108.517 117.904 108.503 117.89 108.486C117.876 108.468 117.866 108.448 117.862 108.426C117.857 108.404 117.857 108.381 117.863 108.359C117.876 108.309 117.904 108.265 117.944 108.232C117.984 108.2 118.033 108.181 118.084 108.179C118.107 108.178 118.129 108.183 118.149 108.192C118.17 108.201 118.188 108.215 118.202 108.233C118.216 108.25 118.225 108.271 118.23 108.293C118.235 108.315 118.234 108.338 118.229 108.359Z" fill="#263238"/>
<path d="M123.24 115.041L120.789 113.15C120.789 113.15 119.832 111.064 119.168 110.802C118.991 110.749 118.802 110.752 118.627 110.811C118.452 110.869 118.299 110.979 118.188 111.127C117.8 111.606 117.759 113.118 118.152 113.597C118.545 114.075 119.741 114.391 119.741 114.391L122.035 116.78L123.24 115.041Z" fill="#FFC3BD"/>
<path d="M123.836 117.141C122.694 118.215 121.547 116.897 120.378 115.57C120.744 115.394 121.068 115.142 121.328 114.831C121.589 114.519 121.779 114.155 121.886 113.764C121.886 113.764 125.34 115.732 123.836 117.141Z" fill="#263238"/>
<path opacity="0.7" d="M120.382 115.57L120.721 115.953C121.475 115.537 122.042 114.849 122.306 114.03C122.062 113.863 121.89 113.768 121.89 113.768C121.783 114.159 121.592 114.522 121.332 114.833C121.072 115.143 120.748 115.395 120.382 115.57Z" fill="white"/>
<path d="M112.648 115.041L115.1 113.15C115.1 113.15 116.057 111.064 116.72 110.802C116.897 110.749 117.086 110.752 117.261 110.811C117.437 110.869 117.59 110.979 117.7 111.127C118.089 111.606 118.129 113.118 117.736 113.597C117.344 114.075 116.147 114.391 116.147 114.391L113.853 116.78L112.648 115.041Z" fill="#FFC3BD"/>
<path d="M103.862 112.734C103.469 111.176 103.031 107.275 104.539 106.034C106.047 104.792 106.914 108.187 107.51 110.802C108.106 113.416 108.413 116.919 109.745 116.378C110.949 115.776 112.098 115.072 113.181 114.274L114.711 116.432C114.711 116.432 110.038 121.818 107.984 120.229C105.93 118.64 104.363 114.707 103.862 112.734Z" fill="#263238"/>
<path opacity="0.7" d="M112.612 114.68L114.183 117.006C114.513 116.662 114.711 116.432 114.711 116.432L113.181 114.274C113.181 114.274 112.955 114.441 112.612 114.68Z" fill="white"/>
</svg>
