<svg width="95" height="15" viewBox="0 0 95 15" fill="none" xmlns="http://www.w3.org/2000/svg">
<path d="M15 5.57175H9.2705L7.5 0.0839844L5.7295 5.57175H0L4.63525 8.96365L2.86475 14.4512L7.5 11.0598L12.1353 14.4512L10.3647 8.9639L15 5.57175Z" fill="#F3F824"/>
<path d="M55 5.57175H49.2705L47.5 0.0839844L45.7295 5.57175H40L44.6353 8.96365L42.8647 14.4512L47.5 11.0598L52.1353 14.4512L50.3647 8.9639L55 5.57175Z" fill="#F3F824"/>
<path d="M35 5.57175H29.2705L27.5 0.0839844L25.7295 5.57175H20L24.6353 8.96365L22.8647 14.4512L27.5 11.0598L32.1353 14.4512L30.3647 8.9639L35 5.57175Z" fill="#F3F824"/>
<path d="M75 5.57175H69.2705L67.5 0.0839844L65.7295 5.57175H60L64.6353 8.96365L62.8647 14.4512L67.5 11.0598L72.1353 14.4512L70.3647 8.9639L75 5.57175Z" fill="#F3F824"/>
<path d="M95 5.57175H89.2705L87.5 0.0839844L85.7295 5.57175H80L84.6353 8.96365L82.8647 14.4512L87.5 11.0598L92.1353 14.4512L90.3647 8.9639L95 5.57175Z" fill="#F3F824"/>
</svg>
