<svg width="18" height="18" viewBox="0 0 18 18" fill="none" xmlns="http://www.w3.org/2000/svg">
<path opacity="0.5" d="M8.83481 0.337158C4.31861 0.337158 0.663574 4.13089 0.663574 8.81943C0.663574 13.5076 4.31819 17.3017 8.83481 17.3017C13.3511 17.3017 17.006 13.508 17.006 8.81943C17.006 4.13125 13.3514 0.337158 8.83481 0.337158ZM9.2374 9.17091L7.01009 11.9198C6.82307 12.1506 6.49118 12.1803 6.26891 11.9862C6.04657 11.7921 6.01792 11.4476 6.20494 11.2168L8.30877 8.6203V2.44961C8.30877 2.14804 8.5443 1.90355 8.83481 1.90355C9.12532 1.90355 9.36084 2.14804 9.36084 2.44961V8.81943C9.36084 8.94801 9.31711 9.07251 9.2374 9.17091Z" fill="black"/>
</svg>
